<?xml version="1.0" encoding="UTF-8"?>
<svg xmlns="http://www.w3.org/2000/svg" xmlns:xlink="http://www.w3.org/1999/xlink" width="71.862pt" height="39.062pt" viewBox="0 0 71.862 39.062" version="1.1">
<defs>
<clipPath id="clip1">
  <path d="M 60 7 L 71.863281 7 L 71.863281 8 L 60 8 Z M 60 7 "/>
</clipPath>
</defs>
<g id="surface1">
<g clip-path="url(#clip1)" clip-rule="nonzero">
<path style="fill:none;stroke-width:0.3985;stroke-linecap:butt;stroke-linejoin:miter;stroke:rgb(0%,0%,0%);stroke-opacity:1;stroke-miterlimit:10;" d="M 24.295563 7.085063 L 35.432281 7.085063 " transform="matrix(1,0,0,-1,35.931,14.671)"/>
</g>
<path style="fill:none;stroke-width:0.79701;stroke-linecap:butt;stroke-linejoin:miter;stroke:rgb(100%,5.097961%,7.841492%);stroke-opacity:1;stroke-dasharray:1.99255,0.49814;stroke-miterlimit:10;" d="M 14.174469 14.174906 L 28.346344 14.174906 " transform="matrix(1,0,0,-1,35.931,14.671)"/>
<path style="fill:none;stroke-width:0.79701;stroke-linecap:butt;stroke-linejoin:miter;stroke:rgb(100%,5.097961%,7.841492%);stroke-opacity:1;stroke-dasharray:1.99255,0.49814;stroke-miterlimit:10;" d="M 28.346344 14.174906 L 28.346344 -14.17275 " transform="matrix(1,0,0,-1,35.931,14.671)"/>
<path style="fill:none;stroke-width:0.79701;stroke-linecap:butt;stroke-linejoin:miter;stroke:rgb(100%,5.097961%,7.841492%);stroke-opacity:1;stroke-dasharray:1.99255,0.49814;stroke-miterlimit:10;" d="M 28.346344 -14.17275 L 14.174469 -14.17275 " transform="matrix(1,0,0,-1,35.931,14.671)"/>
<path style="fill:none;stroke-width:0.79701;stroke-linecap:butt;stroke-linejoin:miter;stroke:rgb(100%,5.097961%,7.841492%);stroke-opacity:1;stroke-dasharray:1.99255,0.49814;stroke-miterlimit:10;" d="M 14.174469 -14.17275 L 14.174469 14.174906 " transform="matrix(1,0,0,-1,35.931,14.671)"/>
<path style="fill:none;stroke-width:0.3985;stroke-linecap:butt;stroke-linejoin:miter;stroke:rgb(0%,0%,0%);stroke-opacity:1;stroke-miterlimit:10;" d="M -0.0013125 -21.258687 L -0.0013125 -10.121969 " transform="matrix(1,0,0,-1,35.931,14.671)"/>
<path style="fill:none;stroke-width:0.79701;stroke-linecap:butt;stroke-linejoin:miter;stroke:rgb(26.667786%,53.33252%,100%);stroke-opacity:1;stroke-dasharray:1.99255,0.49814;stroke-miterlimit:10;" d="M 2.526031 -5.403219 L 18.736969 5.405375 " transform="matrix(1,0,0,-1,35.931,14.671)"/>
<path style="fill:none;stroke-width:0.3985;stroke-linecap:butt;stroke-linejoin:miter;stroke:rgb(0%,0%,0%);stroke-opacity:1;stroke-miterlimit:10;" d="M -35.434906 -7.086812 L -24.294281 -7.086812 " transform="matrix(1,0,0,-1,35.931,14.671)"/>
<path style="fill:none;stroke-width:0.79701;stroke-linecap:butt;stroke-linejoin:miter;stroke:rgb(26.667786%,53.33252%,100%);stroke-opacity:1;stroke-dasharray:1.99255,0.49814;stroke-miterlimit:10;" d="M -18.227875 -7.086812 L -3.032562 -7.086812 " transform="matrix(1,0,0,-1,35.931,14.671)"/>
<path style="fill:none;stroke-width:0.3985;stroke-linecap:butt;stroke-linejoin:miter;stroke:rgb(0%,0%,0%);stroke-opacity:1;stroke-miterlimit:10;" d="M -35.434906 7.085063 L -3.032562 7.085063 " transform="matrix(1,0,0,-1,35.931,14.671)"/>
<path style="fill:none;stroke-width:0.79701;stroke-linecap:butt;stroke-linejoin:miter;stroke:rgb(26.667786%,53.33252%,100%);stroke-opacity:1;stroke-dasharray:1.99255,0.49814;stroke-miterlimit:10;" d="M 3.033844 7.085063 L 18.22525 7.085063 " transform="matrix(1,0,0,-1,35.931,14.671)"/>
<path style="fill-rule:nonzero;fill:rgb(86.66687%,100%,86.66687%);fill-opacity:1;stroke-width:0.3985;stroke-linecap:butt;stroke-linejoin:miter;stroke:rgb(0%,0%,0%);stroke-opacity:1;stroke-miterlimit:10;" d="M 2.834625 -7.086812 C 2.834625 -5.520406 1.565094 -4.250875 -0.0013125 -4.250875 C -1.563812 -4.250875 -2.833344 -5.520406 -2.833344 -7.086812 C -2.833344 -8.653219 -1.563812 -9.92275 -0.0013125 -9.92275 C 1.565094 -9.92275 2.834625 -8.653219 2.834625 -7.086812 Z M 2.834625 -7.086812 " transform="matrix(1,0,0,-1,35.931,14.671)"/>
<path style="fill-rule:nonzero;fill:rgb(86.66687%,100%,86.66687%);fill-opacity:1;stroke-width:0.3985;stroke-linecap:butt;stroke-linejoin:miter;stroke:rgb(0%,0%,0%);stroke-opacity:1;stroke-miterlimit:10;" d="M 24.096344 7.085063 C 24.096344 8.651469 22.826813 9.921 21.260406 9.921 C 19.694 9.921 18.424469 8.651469 18.424469 7.085063 C 18.424469 5.522563 19.694 4.253031 21.260406 4.253031 C 22.826813 4.253031 24.096344 5.522563 24.096344 7.085063 Z M 24.096344 7.085063 " transform="matrix(1,0,0,-1,35.931,14.671)"/>
<path style="fill:none;stroke-width:0.3985;stroke-linecap:butt;stroke-linejoin:miter;stroke:rgb(0%,0%,0%);stroke-opacity:1;stroke-miterlimit:10;" d="M -0.0013125 2.145906 L -0.0013125 0.001375 " transform="matrix(1,0,0,-1,35.931,35.642)"/>
<path style="fill:none;stroke-width:0.3985;stroke-linecap:butt;stroke-linejoin:miter;stroke:rgb(0%,0%,0%);stroke-opacity:1;stroke-miterlimit:10;" d="M -3.485687 -0.108 L 3.486969 -0.108 M -2.325531 -1.416594 L 2.322906 -1.416594 M -1.161469 -2.721281 L 1.16275 -2.721281 " transform="matrix(1,0,0,-1,35.931,35.642)"/>
<path style="fill-rule:nonzero;fill:rgb(86.66687%,100%,86.66687%);fill-opacity:1;stroke-width:0.3985;stroke-linecap:butt;stroke-linejoin:miter;stroke:rgb(0%,0%,0%);stroke-opacity:1;stroke-miterlimit:10;" d="M -18.427094 -7.086812 C -18.427094 -5.520406 -19.692719 -4.250875 -21.259125 -4.250875 C -22.825531 -4.250875 -24.095062 -5.520406 -24.095062 -7.086812 C -24.095062 -8.653219 -22.825531 -9.92275 -21.259125 -9.92275 C -19.692719 -9.92275 -18.427094 -8.653219 -18.427094 -7.086812 Z M -18.427094 -7.086812 " transform="matrix(1,0,0,-1,35.931,14.671)"/>
<path style="fill-rule:nonzero;fill:rgb(86.66687%,100%,86.66687%);fill-opacity:1;stroke-width:0.3985;stroke-linecap:butt;stroke-linejoin:miter;stroke:rgb(0%,0%,0%);stroke-opacity:1;stroke-miterlimit:10;" d="M 2.834625 7.085063 C 2.834625 8.651469 1.565094 9.921 -0.0013125 9.921 C -1.563812 9.921 -2.833344 8.651469 -2.833344 7.085063 C -2.833344 5.522563 -1.563812 4.253031 -0.0013125 4.253031 C 1.565094 4.253031 2.834625 5.522563 2.834625 7.085063 Z M 2.834625 7.085063 " transform="matrix(1,0,0,-1,35.931,14.671)"/>
</g>
</svg>
