<?xml version="1.0" encoding="UTF-8"?>
<svg xmlns="http://www.w3.org/2000/svg" xmlns:xlink="http://www.w3.org/1999/xlink" width="64.776pt" height="6.068pt" viewBox="0 0 64.776 6.068" version="1.1">
<defs>
<clipPath id="clip1">
  <path d="M 49 2 L 64.777344 2 L 64.777344 4 L 49 4 Z M 49 2 "/>
</clipPath>
<clipPath id="clip2">
  <path d="M 9 0 L 55 0 L 55 6.066406 L 9 6.066406 Z M 9 0 "/>
</clipPath>
<clipPath id="clip3">
  <path d="M 9 0 L 27 0 L 27 6.066406 L 9 6.066406 Z M 9 0 "/>
</clipPath>
<clipPath id="clip4">
  <path d="M 38 0 L 56 0 L 56 6.066406 L 38 6.066406 Z M 38 0 "/>
</clipPath>
</defs>
<g id="surface1">
<path style="fill:none;stroke-width:0.3985;stroke-linecap:butt;stroke-linejoin:miter;stroke:rgb(0%,0%,0%);stroke-opacity:1;stroke-miterlimit:10;" d="M -17.715 -0.00115625 L -3.035312 -0.00115625 " transform="matrix(1,0,0,-1,18.215,3.034)"/>
<g clip-path="url(#clip1)" clip-rule="nonzero">
<path style="fill:none;stroke-width:0.3985;stroke-linecap:butt;stroke-linejoin:miter;stroke:rgb(0%,0%,0%);stroke-opacity:1;stroke-miterlimit:10;" d="M 31.382656 -0.00115625 L 46.062344 -0.00115625 " transform="matrix(1,0,0,-1,18.215,3.034)"/>
</g>
<g clip-path="url(#clip2)" clip-rule="nonzero">
<path style="fill:none;stroke-width:0.79701;stroke-linecap:butt;stroke-linejoin:miter;stroke:rgb(26.667786%,53.33252%,100%);stroke-opacity:1;stroke-dasharray:1.99255,0.49814;stroke-miterlimit:10;" d="M 3.035 -0.00115625 C 9.550625 -0.00115625 18.796719 -0.00115625 25.312344 -0.00115625 " transform="matrix(1,0,0,-1,18.215,3.034)"/>
</g>
<path style=" stroke:none;fill-rule:nonzero;fill:rgb(86.66687%,100%,86.66687%);fill-opacity:1;" d="M 21.050781 3.035156 C 21.050781 1.46875 19.78125 0.199219 18.214844 0.199219 C 16.648438 0.199219 15.378906 1.46875 15.378906 3.035156 C 15.378906 4.597656 16.648438 5.867188 18.214844 5.867188 C 19.78125 5.867188 21.050781 4.597656 21.050781 3.035156 Z M 21.050781 3.035156 "/>
<g clip-path="url(#clip3)" clip-rule="nonzero">
<path style="fill:none;stroke-width:0.3985;stroke-linecap:butt;stroke-linejoin:miter;stroke:rgb(0%,0%,0%);stroke-opacity:1;stroke-miterlimit:10;" d="M 2.835781 -0.00115625 C 2.835781 1.56525 1.56625 2.834781 -0.00015625 2.834781 C -1.566562 2.834781 -2.836094 1.56525 -2.836094 -0.00115625 C -2.836094 -1.563656 -1.566562 -2.833188 -0.00015625 -2.833188 C 1.56625 -2.833188 2.835781 -1.563656 2.835781 -0.00115625 Z M 2.835781 -0.00115625 " transform="matrix(1,0,0,-1,18.215,3.034)"/>
</g>
<path style=" stroke:none;fill-rule:nonzero;fill:rgb(86.66687%,100%,86.66687%);fill-opacity:1;" d="M 49.394531 3.035156 C 49.394531 1.46875 48.128906 0.199219 46.5625 0.199219 C 44.996094 0.199219 43.726562 1.46875 43.726562 3.035156 C 43.726562 4.597656 44.996094 5.867188 46.5625 5.867188 C 48.128906 5.867188 49.394531 4.597656 49.394531 3.035156 Z M 49.394531 3.035156 "/>
<g clip-path="url(#clip4)" clip-rule="nonzero">
<path style="fill:none;stroke-width:0.3985;stroke-linecap:butt;stroke-linejoin:miter;stroke:rgb(0%,0%,0%);stroke-opacity:1;stroke-miterlimit:10;" d="M 31.179531 -0.00115625 C 31.179531 1.56525 29.913906 2.834781 28.3475 2.834781 C 26.781094 2.834781 25.511563 1.56525 25.511563 -0.00115625 C 25.511563 -1.563656 26.781094 -2.833188 28.3475 -2.833188 C 29.913906 -2.833188 31.179531 -1.563656 31.179531 -0.00115625 Z M 31.179531 -0.00115625 " transform="matrix(1,0,0,-1,18.215,3.034)"/>
</g>
</g>
</svg>
