<?xml version="1.0" encoding="UTF-8"?>
<svg xmlns="http://www.w3.org/2000/svg" xmlns:xlink="http://www.w3.org/1999/xlink" width="49.692pt" height="36.715pt" viewBox="0 0 49.692 36.715" version="1.1">
<defs>
<clipPath id="clip1">
  <path d="M 27 24 L 45 24 L 45 36.714844 L 27 36.714844 Z M 27 24 "/>
</clipPath>
<clipPath id="clip2">
  <path d="M 6 24 L 24 24 L 24 36.714844 L 6 36.714844 Z M 6 24 "/>
</clipPath>
<clipPath id="clip3">
  <path d="M 46 0 L 49.691406 0 L 49.691406 8 L 46 8 Z M 46 0 "/>
</clipPath>
<clipPath id="clip4">
  <path d="M 46 14 L 49.691406 14 L 49.691406 23 L 46 23 Z M 46 14 "/>
</clipPath>
<clipPath id="clip5">
  <path d="M 46 28 L 49.691406 28 L 49.691406 36.714844 L 46 36.714844 Z M 46 28 "/>
</clipPath>
</defs>
<g id="surface1">
<path style="fill:none;stroke-width:0.3985;stroke-linecap:butt;stroke-linejoin:miter;stroke:rgb(0%,0%,0%);stroke-opacity:1;stroke-miterlimit:10;" d="M -14.174906 0.00153125 L -3.034281 0.00153125 " transform="matrix(1,0,0,-1,14.671,18.357)"/>
<path style="fill:none;stroke-width:0.79701;stroke-linecap:butt;stroke-linejoin:miter;stroke:rgb(26.667786%,53.33252%,100%);stroke-opacity:1;stroke-dasharray:1.99255,0.49814;stroke-miterlimit:10;" d="M 3.032125 0.00153125 L 18.227438 0.00153125 " transform="matrix(1,0,0,-1,14.671,18.357)"/>
<path style="fill:none;stroke-width:0.3985;stroke-linecap:butt;stroke-linejoin:miter;stroke:rgb(0%,0%,0%);stroke-opacity:1;stroke-miterlimit:10;" d="M -14.174906 14.173406 L -3.034281 14.173406 " transform="matrix(1,0,0,-1,14.671,18.357)"/>
<path style="fill:none;stroke-width:0.79701;stroke-linecap:butt;stroke-linejoin:miter;stroke:rgb(26.667786%,53.33252%,100%);stroke-opacity:1;stroke-dasharray:1.99255,0.49814;stroke-miterlimit:10;" d="M 3.032125 14.173406 L 18.227438 14.173406 " transform="matrix(1,0,0,-1,14.671,18.357)"/>
<path style="fill:none;stroke-width:0.3985;stroke-linecap:butt;stroke-linejoin:miter;stroke:rgb(0%,0%,0%);stroke-opacity:1;stroke-miterlimit:10;" d="M -14.174906 -14.17425 L -3.034281 -14.17425 " transform="matrix(1,0,0,-1,14.671,18.357)"/>
<path style="fill:none;stroke-width:0.79701;stroke-linecap:butt;stroke-linejoin:miter;stroke:rgb(26.667786%,53.33252%,100%);stroke-opacity:1;stroke-dasharray:1.99255,0.49814;stroke-miterlimit:10;" d="M 3.032125 -14.17425 L 18.227438 -14.17425 " transform="matrix(1,0,0,-1,14.671,18.357)"/>
<path style="fill:none;stroke-width:0.3985;stroke-linecap:butt;stroke-linejoin:miter;stroke:rgb(0%,0%,0%);stroke-opacity:1;stroke-miterlimit:10;" d="M 24.293844 -14.17425 L 31.8915 -14.17425 " transform="matrix(1,0,0,-1,14.671,18.357)"/>
<path style="fill:none;stroke-width:0.3985;stroke-linecap:butt;stroke-linejoin:miter;stroke:rgb(0%,0%,0%);stroke-opacity:1;stroke-miterlimit:10;" d="M 24.293844 0.00153125 L 31.8915 0.00153125 " transform="matrix(1,0,0,-1,14.671,18.357)"/>
<path style="fill:none;stroke-width:0.3985;stroke-linecap:butt;stroke-linejoin:miter;stroke:rgb(0%,0%,0%);stroke-opacity:1;stroke-miterlimit:10;" d="M 24.293844 14.173406 L 31.8915 14.173406 " transform="matrix(1,0,0,-1,14.671,18.357)"/>
<path style="fill-rule:nonzero;fill:rgb(86.66687%,100%,86.66687%);fill-opacity:1;stroke-width:0.3985;stroke-linecap:butt;stroke-linejoin:miter;stroke:rgb(0%,0%,0%);stroke-opacity:1;stroke-miterlimit:10;" d="M 24.094625 0.00153125 C 24.094625 1.564031 22.825094 2.833563 21.258688 2.833563 C 19.696188 2.833563 18.426656 1.564031 18.426656 0.00153125 C 18.426656 -1.564875 19.696188 -2.834406 21.258688 -2.834406 C 22.825094 -2.834406 24.094625 -1.564875 24.094625 0.00153125 Z M 24.094625 0.00153125 " transform="matrix(1,0,0,-1,14.671,18.357)"/>
<path style="fill-rule:nonzero;fill:rgb(86.66687%,100%,86.66687%);fill-opacity:1;stroke-width:0.3985;stroke-linecap:butt;stroke-linejoin:miter;stroke:rgb(0%,0%,0%);stroke-opacity:1;stroke-miterlimit:10;" d="M 24.094625 14.173406 C 24.094625 15.739813 22.825094 17.009344 21.258688 17.009344 C 19.696188 17.009344 18.426656 15.739813 18.426656 14.173406 C 18.426656 12.607 19.696188 11.337469 21.258688 11.337469 C 22.825094 11.337469 24.094625 12.607 24.094625 14.173406 Z M 24.094625 14.173406 " transform="matrix(1,0,0,-1,14.671,18.357)"/>
<path style="fill-rule:nonzero;fill:rgb(86.66687%,100%,86.66687%);fill-opacity:1;stroke-width:0.3985;stroke-linecap:butt;stroke-linejoin:miter;stroke:rgb(0%,0%,0%);stroke-opacity:1;stroke-miterlimit:10;" d="M 2.832906 0.00153125 C 2.832906 1.564031 1.567281 2.833563 0.000875 2.833563 C -1.565531 2.833563 -2.835062 1.564031 -2.835062 0.00153125 C -2.835062 -1.564875 -1.565531 -2.834406 0.000875 -2.834406 C 1.567281 -2.834406 2.832906 -1.564875 2.832906 0.00153125 Z M 2.832906 0.00153125 " transform="matrix(1,0,0,-1,14.671,18.357)"/>
<path style="fill-rule:nonzero;fill:rgb(86.66687%,100%,86.66687%);fill-opacity:1;stroke-width:0.3985;stroke-linecap:butt;stroke-linejoin:miter;stroke:rgb(0%,0%,0%);stroke-opacity:1;stroke-miterlimit:10;" d="M 2.832906 14.173406 C 2.832906 15.739813 1.567281 17.009344 0.000875 17.009344 C -1.565531 17.009344 -2.835062 15.739813 -2.835062 14.173406 C -2.835062 12.607 -1.565531 11.337469 0.000875 11.337469 C 1.567281 11.337469 2.832906 12.607 2.832906 14.173406 Z M 2.832906 14.173406 " transform="matrix(1,0,0,-1,14.671,18.357)"/>
<path style=" stroke:none;fill-rule:nonzero;fill:rgb(86.66687%,100%,86.66687%);fill-opacity:1;" d="M 38.765625 32.53125 C 38.765625 30.964844 37.496094 29.695312 35.929688 29.695312 C 34.367188 29.695312 33.097656 30.964844 33.097656 32.53125 C 33.097656 34.097656 34.367188 35.363281 35.929688 35.363281 C 37.496094 35.363281 38.765625 34.097656 38.765625 32.53125 Z M 38.765625 32.53125 "/>
<g clip-path="url(#clip1)" clip-rule="nonzero">
<path style="fill:none;stroke-width:0.3985;stroke-linecap:butt;stroke-linejoin:miter;stroke:rgb(0%,0%,0%);stroke-opacity:1;stroke-miterlimit:10;" d="M 24.094625 -14.17425 C 24.094625 -12.607844 22.825094 -11.338312 21.258688 -11.338312 C 19.696188 -11.338312 18.426656 -12.607844 18.426656 -14.17425 C 18.426656 -15.740656 19.696188 -17.006281 21.258688 -17.006281 C 22.825094 -17.006281 24.094625 -15.740656 24.094625 -14.17425 Z M 24.094625 -14.17425 " transform="matrix(1,0,0,-1,14.671,18.357)"/>
</g>
<path style=" stroke:none;fill-rule:nonzero;fill:rgb(86.66687%,100%,86.66687%);fill-opacity:1;" d="M 17.503906 32.53125 C 17.503906 30.964844 16.238281 29.695312 14.671875 29.695312 C 13.105469 29.695312 11.835938 30.964844 11.835938 32.53125 C 11.835938 34.097656 13.105469 35.363281 14.671875 35.363281 C 16.238281 35.363281 17.503906 34.097656 17.503906 32.53125 Z M 17.503906 32.53125 "/>
<g clip-path="url(#clip2)" clip-rule="nonzero">
<path style="fill:none;stroke-width:0.3985;stroke-linecap:butt;stroke-linejoin:miter;stroke:rgb(0%,0%,0%);stroke-opacity:1;stroke-miterlimit:10;" d="M 2.832906 -14.17425 C 2.832906 -12.607844 1.567281 -11.338312 0.000875 -11.338312 C -1.565531 -11.338312 -2.835062 -12.607844 -2.835062 -14.17425 C -2.835062 -15.740656 -1.565531 -17.006281 0.000875 -17.006281 C 1.567281 -17.006281 2.832906 -15.740656 2.832906 -14.17425 Z M 2.832906 -14.17425 " transform="matrix(1,0,0,-1,14.671,18.357)"/>
</g>
<path style="fill:none;stroke-width:0.3985;stroke-linecap:butt;stroke-linejoin:miter;stroke:rgb(0%,0%,0%);stroke-opacity:1;stroke-miterlimit:10;" d="M -0.00059375 2.143094 L -0.00059375 -0.0014375 " transform="matrix(0,-1,-1,0,46.272,4.183)"/>
<g clip-path="url(#clip3)" clip-rule="nonzero">
<path style="fill:none;stroke-width:0.3985;stroke-linecap:butt;stroke-linejoin:miter;stroke:rgb(0%,0%,0%);stroke-opacity:1;stroke-miterlimit:10;" d="M -3.488875 -0.106906 L 3.487688 -0.106906 M -2.324812 -1.4155 L 2.323625 -1.4155 M -1.16075 -2.724094 L 1.163469 -2.724094 " transform="matrix(0,-1,-1,0,46.272,4.183)"/>
</g>
<path style="fill:none;stroke-width:0.3985;stroke-linecap:butt;stroke-linejoin:miter;stroke:rgb(0%,0%,0%);stroke-opacity:1;stroke-miterlimit:10;" d="M 0.00153125 2.146 L 0.00153125 0.00146875 " transform="matrix(0,-1,-1,0,46.271,18.357)"/>
<g clip-path="url(#clip4)" clip-rule="nonzero">
<path style="fill:none;stroke-width:0.3985;stroke-linecap:butt;stroke-linejoin:miter;stroke:rgb(0%,0%,0%);stroke-opacity:1;stroke-miterlimit:10;" d="M -3.48675 -0.107906 L 3.485906 -0.107906 M -2.326594 -1.4165 L 2.32575 -1.4165 M -1.162531 -2.721187 L 1.161688 -2.721187 " transform="matrix(0,-1,-1,0,46.271,18.357)"/>
</g>
<path style="fill:none;stroke-width:0.3985;stroke-linecap:butt;stroke-linejoin:miter;stroke:rgb(0%,0%,0%);stroke-opacity:1;stroke-miterlimit:10;" d="M -0.00125 2.146 L -0.00125 0.00146875 " transform="matrix(0,-1,-1,0,46.271,32.53)"/>
<g clip-path="url(#clip5)" clip-rule="nonzero">
<path style="fill:none;stroke-width:0.3985;stroke-linecap:butt;stroke-linejoin:miter;stroke:rgb(0%,0%,0%);stroke-opacity:1;stroke-miterlimit:10;" d="M -3.485625 -0.107906 L 3.487031 -0.107906 M -2.325469 -1.4165 L 2.322969 -1.4165 M -1.161406 -2.721187 L 1.162813 -2.721187 " transform="matrix(0,-1,-1,0,46.271,32.53)"/>
</g>
</g>
</svg>
