<?xml version="1.0" encoding="UTF-8"?>
<svg width="752pt" height="752pt" version="1.1" viewBox="0 0 752 752" xmlns="http://www.w3.org/2000/svg">
 <g>
  <path d="m511.21 383.93h39.375c3.1133 9.3906 11.961 16.191 22.383 16.191 13.008 0 23.59-10.582 23.59-23.59s-10.582-23.59-23.59-23.59c-10.422 0-19.27 6.8008-22.383 16.191h-39.375v-51.43h39.375c3.1133 9.3906 11.961 16.191 22.383 16.191 13.008 0 23.59-10.582 23.59-23.59 0-13.008-10.582-23.59-23.59-23.59-10.422 0-19.27 6.8008-22.383 16.191h-39.375v-28.176c0-18.711-15.223-33.93-33.93-33.93h-27.648v-39.594c9.3906-3.1133 16.191-11.965 16.191-22.387 0-13.008-10.582-23.59-23.59-23.59-13.008 0-23.59 10.582-23.59 23.59 0 10.422 6.8008 19.273 16.191 22.387v39.59h-51.43v-39.59c9.3906-3.1133 16.191-11.965 16.191-22.387 0-13.008-10.582-23.59-23.59-23.59-13.008 0-23.59 10.582-23.59 23.59 0 10.422 6.8008 19.273 16.191 22.387v39.59h-51.434v-39.59c9.3906-3.1133 16.191-11.965 16.191-22.387 0-13.008-10.582-23.59-23.59-23.59-13.008 0-23.59 10.582-23.59 23.59 0 10.422 6.8008 19.273 16.191 22.387v39.59h-27.645c-18.711 0-33.93 15.223-33.93 33.93v27.117h-39.375c-3.1133-9.3906-11.961-16.191-22.383-16.191-13.008 0-23.59 10.582-23.59 23.59 0 13.008 10.582 23.59 23.59 23.59 10.422 0 19.27-6.8008 22.383-16.191h39.375v51.43h-39.375c-3.1133-9.3906-11.961-16.191-22.383-16.191-13.008 0-23.59 10.582-23.59 23.59s10.582 23.59 23.59 23.59c10.422 0 19.27-6.8008 22.383-16.191h39.375v51.43l-39.375 0.003906c-3.1133-9.3906-11.961-16.191-22.383-16.191-13.008 0-23.59 10.582-23.59 23.59 0 13.008 10.582 23.59 23.59 23.59 10.422 0 19.27-6.8008 22.383-16.191h39.375v28.18c0 18.707 15.223 33.93 33.93 33.93h27.645v39.59c-9.3906 3.1133-16.191 11.961-16.191 22.383 0 13.008 10.582 23.59 23.59 23.59 13.008 0 23.59-10.582 23.59-23.59 0-10.422-6.8008-19.27-16.191-22.383v-39.59h51.43v39.59c-9.3906 3.1133-16.191 11.961-16.191 22.383 0 13.008 10.582 23.59 23.59 23.59s23.59-10.582 23.59-23.59c0-10.422-6.8008-19.27-16.191-22.383v-39.59h51.43v39.59c-9.3906 3.1133-16.191 11.961-16.191 22.383 0 13.008 10.582 23.59 23.59 23.59 13.008 0 23.59-10.582 23.59-23.59 0-10.422-6.8008-19.27-16.191-22.383v-39.59h27.648c18.707 0 33.93-15.223 33.93-33.93v-27.117h39.375c3.1133 9.3906 11.961 16.191 22.383 16.191 13.008 0 23.59-10.582 23.59-23.59 0-13.008-10.582-23.59-23.59-23.59-10.422 0-19.27 6.8008-22.383 16.191h-39.375zm61.758-16.188c4.8477 0 8.7891 3.9414 8.7891 8.7891s-3.9414 8.7891-8.7891 8.7891-8.7891-3.9414-8.7891-8.7891c-0.003906-4.8477 3.9414-8.7891 8.7891-8.7891zm0-66.23c4.8477 0 8.7891 3.9414 8.7891 8.7891 0 4.8477-3.9414 8.7891-8.7891 8.7891s-8.7891-3.9414-8.7891-8.7891c-0.003906-4.8438 3.9414-8.7891 8.7891-8.7891zm-130.73-131.48c4.8477 0 8.7891 3.9414 8.7891 8.7891 0 4.8477-3.9414 8.7891-8.7891 8.7891-4.8477 0-8.7891-3.9453-8.7891-8.7891-0.003906-4.8438 3.9375-8.7891 8.7891-8.7891zm-66.23 0c4.8477 0 8.7891 3.9414 8.7891 8.7891 0 4.8477-3.9414 8.7891-8.7891 8.7891s-8.7891-3.9453-8.7891-8.7891 3.9414-8.7891 8.7891-8.7891zm-66.227 0c4.8477 0 8.7891 3.9414 8.7891 8.7891 0 4.8477-3.9414 8.7891-8.7891 8.7891-4.8477 0-8.7891-3.9453-8.7891-8.7891s3.9414-8.7891 8.7891-8.7891zm-130.73 148c-4.8477 0-8.7891-3.9414-8.7891-8.7891s3.9453-8.7891 8.7891-8.7891 8.7891 3.9414 8.7891 8.7891-3.9453 8.7891-8.7891 8.7891zm0 66.227c-4.8477 0-8.7891-3.9414-8.7891-8.7891s3.9453-8.7891 8.7891-8.7891 8.7891 3.9414 8.7891 8.7891-3.9453 8.7891-8.7891 8.7891zm0 66.227c-4.8477 0-8.7891-3.9414-8.7891-8.7891 0-4.8477 3.9453-8.7891 8.7891-8.7891s8.7891 3.9414 8.7891 8.7891c0 4.8477-3.9453 8.7891-8.7891 8.7891zm130.73 131.48c-4.8477 0-8.7891-3.9414-8.7891-8.7891 0-4.8477 3.9414-8.7891 8.7891-8.7891 4.8477 0 8.7891 3.9414 8.7891 8.7891 0.003906 4.8477-3.9414 8.7891-8.7891 8.7891zm66.227 0c-4.8477 0-8.7891-3.9414-8.7891-8.7891 0-4.8477 3.9414-8.7891 8.7891-8.7891s8.7891 3.9414 8.7891 8.7891c0.003907 4.8477-3.9375 8.7891-8.7891 8.7891zm66.23 0c-4.8477 0-8.7891-3.9414-8.7891-8.7891 0-4.8477 3.9414-8.7891 8.7891-8.7891 4.8477 0 8.7891 3.9414 8.7891 8.7891 0 4.8477-3.9414 8.7891-8.7891 8.7891zm130.73-148c4.8477 0 8.7891 3.9414 8.7891 8.7891 0 4.8477-3.9414 8.7891-8.7891 8.7891s-8.7891-3.9414-8.7891-8.7891c-0.003906-4.8477 3.9414-8.7891 8.7891-8.7891zm-82.477 43.309c0 7.2852-5.9258 13.211-13.211 13.211h-202.55c-7.2852 0-13.211-5.9258-13.211-13.211v-202.55c0-7.2852 5.9258-13.211 13.211-13.211h202.55c7.2852 0 13.211 5.9258 13.211 13.211z"/>
  <path d="m447.8 376c16.707-15.316 27.508-30.27 29.828-42.328 1.6133-8.375-0.98828-13.98-3.4531-17.207-9.8516-12.887-34.297-11.754-62.727-2.625-7.1836-25.328-19.137-43.609-35.449-43.609s-28.266 18.281-35.449 43.609c-28.43-9.125-52.879-10.258-62.73 2.625-2.4648 3.2266-5.0664 8.832-3.4531 17.207 2.3242 12.062 13.125 27.012 29.828 42.328-16.707 15.316-27.508 30.27-29.832 42.332-1.6094 8.375 0.98828 13.98 3.4531 17.207 5.0938 6.6641 14.086 9.5742 25.52 9.5742 10.672 0 23.48-2.5703 37.207-6.9766 7.1836 25.344 19.137 43.633 35.453 43.633s28.273-18.293 35.457-43.633c13.723 4.4062 26.531 6.9766 37.203 6.9766 11.43 0 20.426-2.9141 25.516-9.5742 2.4648-3.2305 5.0664-8.832 3.457-17.207-2.3164-12.062-13.117-27.012-29.828-42.332zm1.5195-54.34c6.6641 0 11.211 1.3203 13.098 3.7891 0.33984 0.44531 1.3789 1.8008 0.67969 5.4219-1.5898 8.2539-10.832 21.102-26.668 35.379-5.5781-4.4844-11.641-8.9492-18.074-13.344-0.74609-8.4102-1.8906-16.676-3.4375-24.531 14.117-4.5664 25.973-6.7148 34.402-6.7148zm-73.32 145.31c-6.8672 0-15.562-12.316-21.551-33.789 7.1055-2.7812 14.332-5.9688 21.551-9.4844 7.2188 3.5156 14.445 6.6992 21.551 9.4844-5.9844 21.473-14.684 33.789-21.551 33.789zm0-181.94c6.8672 0 15.559 12.312 21.547 33.777-7.0977 2.7812-14.328 5.9805-21.547 9.4961-7.2148-3.5156-14.445-6.7148-21.547-9.4961 5.9883-21.465 14.68-33.777 21.547-33.777zm28.582 90.969c0 5.0898-0.14453 10.008-0.41016 14.75-3.4492 2.2422-6.9805 4.4805-10.707 6.6992-5.9492 3.5508-11.777 6.7656-17.465 9.6992-5.6875-2.9336-11.516-6.1523-17.465-9.6992-3.7188-2.2188-7.2578-4.457-10.707-6.6992-0.26562-4.7422-0.41016-9.6562-0.41016-14.75 0-5.0898 0.14453-10.012 0.41016-14.75 3.4492-2.2422 6.9805-4.4844 10.707-6.7031 5.957-3.5508 11.773-6.75 17.465-9.6836 5.6875 2.9375 11.512 6.1367 17.465 9.6836 3.7188 2.2188 7.2578 4.4609 10.707 6.7031 0.26562 4.7422 0.41016 9.6602 0.41016 14.75zm-2.1875-33.332c-0.45703-0.27344-0.89062-0.55469-1.3516-0.82812-2.8047-1.6719-5.6445-3.3047-8.5-4.8984 2.8477-1.2539 5.6289-2.4062 8.3633-3.4922 0.54688 2.957 1.0469 6.0234 1.4883 9.2188zm-42.934-5.7266c-2.8555 1.5938-5.6992 3.2266-8.5 4.8984-0.45703 0.27344-0.89453 0.55469-1.3516 0.82812 0.4375-3.1914 0.94141-6.2617 1.4883-9.2188 2.7344 1.0859 5.5156 2.2383 8.3633 3.4922zm-26.801 43.258c-1.8867-1.4062-3.7109-2.8047-5.4844-4.1953 1.7734-1.3945 3.5977-2.793 5.4844-4.1992-0.023437 1.3984-0.039062 2.8008-0.039062 4.1992 0 1.3945 0.019531 2.793 0.039062 4.1953zm16.949 29.137c0.45703 0.27344 0.89062 0.55469 1.3516 0.82812 2.8086 1.6758 5.6562 3.2969 8.5156 4.8945-2.8477 1.25-5.6406 2.4258-8.375 3.5117-0.55078-2.9648-1.0508-6.0391-1.4922-9.2344zm42.922 5.7227c2.8594-1.5938 5.707-3.2188 8.5156-4.8945 0.45703-0.27344 0.89453-0.55469 1.3516-0.82812-0.44141 3.1953-0.94141 6.2656-1.4922 9.2305-2.7344-1.0898-5.5312-2.2617-8.375-3.5078zm26.812-43.254c1.8867 1.4062 3.7109 2.8047 5.4805 4.1953-1.7734 1.3945-3.5977 2.793-5.4805 4.1953 0.023438-1.3984 0.039062-2.8008 0.039062-4.1953s-0.015624-2.7969-0.039062-4.1953zm-130.44-40.934c-0.69531-3.6211 0.33984-4.9805 0.67969-5.4219 1.8867-2.4688 6.4336-3.7891 13.098-3.7891 8.4336 0 20.285 2.1445 34.402 6.7148-1.5469 7.8555-2.6953 16.121-3.4375 24.531-6.4336 4.3906-12.5 8.8594-18.074 13.344-15.836-14.273-25.078-27.121-26.668-35.379zm0.67969 95.684c-0.33984-0.44531-1.375-1.8008-0.67969-5.4219 1.5898-8.2539 10.832-21.102 26.668-35.379 5.5781 4.4844 11.641 8.9492 18.074 13.344 0.74609 8.4141 1.8906 16.684 3.4375 24.543-25.281 8.1836-43.223 8.5078-47.5 2.9141zm172.84 0c-4.2734 5.5938-22.219 5.2734-47.504-2.918 1.5469-7.8594 2.6953-16.125 3.4375-24.543 6.4336-4.3906 12.496-8.8594 18.074-13.344 15.836 14.277 25.078 27.129 26.668 35.379 0.70312 3.6211-0.33203 4.9766-0.67578 5.4258z"/>
  <path d="m376.26 354.34c-11.941 0-21.66 9.7188-21.66 21.66s9.7188 21.66 21.66 21.66c11.941 0 21.66-9.7188 21.66-21.66s-9.7148-21.66-21.66-21.66zm0 28.523c-3.7812 0-6.8594-3.0781-6.8594-6.8594s3.0781-6.8594 6.8594-6.8594 6.8594 3.0781 6.8594 6.8594c0.003906 3.7812-3.0742 6.8594-6.8594 6.8594z"/>
 </g>
</svg>
