<?xml version="1.0" encoding="UTF-8"?>
<svg xmlns="http://www.w3.org/2000/svg" xmlns:xlink="http://www.w3.org/1999/xlink" width="50.603pt" height="39.062pt" viewBox="0 0 50.603 39.062" version="1.1">
<defs>
<clipPath id="clip1">
  <path d="M 38 7 L 50.601562 7 L 50.601562 8 L 38 8 Z M 38 7 "/>
</clipPath>
</defs>
<g id="surface1">
<g clip-path="url(#clip1)" clip-rule="nonzero">
<path style="fill:none;stroke-width:0.3985;stroke-linecap:butt;stroke-linejoin:miter;stroke:rgb(0%,0%,0%);stroke-opacity:1;stroke-miterlimit:10;" d="M 24.293844 7.085063 L 35.434469 7.085063 " transform="matrix(1,0,0,-1,14.671,14.671)"/>
</g>
<path style="fill:none;stroke-width:0.79701;stroke-linecap:butt;stroke-linejoin:miter;stroke:rgb(100%,5.097961%,7.841492%);stroke-opacity:1;stroke-dasharray:1.99255,0.49814;stroke-miterlimit:10;" d="M 14.17275 14.174906 L 28.348531 14.174906 " transform="matrix(1,0,0,-1,14.671,14.671)"/>
<path style="fill:none;stroke-width:0.79701;stroke-linecap:butt;stroke-linejoin:miter;stroke:rgb(100%,5.097961%,7.841492%);stroke-opacity:1;stroke-dasharray:1.99255,0.49814;stroke-miterlimit:10;" d="M 28.348531 14.174906 L 28.348531 -14.17275 " transform="matrix(1,0,0,-1,14.671,14.671)"/>
<path style="fill:none;stroke-width:0.79701;stroke-linecap:butt;stroke-linejoin:miter;stroke:rgb(100%,5.097961%,7.841492%);stroke-opacity:1;stroke-dasharray:1.99255,0.49814;stroke-miterlimit:10;" d="M 28.348531 -14.17275 L 14.17275 -14.17275 " transform="matrix(1,0,0,-1,14.671,14.671)"/>
<path style="fill:none;stroke-width:0.79701;stroke-linecap:butt;stroke-linejoin:miter;stroke:rgb(100%,5.097961%,7.841492%);stroke-opacity:1;stroke-dasharray:1.99255,0.49814;stroke-miterlimit:10;" d="M 14.17275 -14.17275 L 14.17275 14.174906 " transform="matrix(1,0,0,-1,14.671,14.671)"/>
<path style="fill:none;stroke-width:0.3985;stroke-linecap:butt;stroke-linejoin:miter;stroke:rgb(0%,0%,0%);stroke-opacity:1;stroke-miterlimit:10;" d="M 21.258688 -21.258687 L 21.258688 -10.121969 " transform="matrix(1,0,0,-1,14.671,14.671)"/>
<path style="fill:none;stroke-width:0.79701;stroke-linecap:butt;stroke-linejoin:miter;stroke:rgb(26.667786%,53.33252%,100%);stroke-opacity:1;stroke-dasharray:1.99255,0.49814;stroke-miterlimit:10;" d="M 21.258688 -4.051656 L 21.258688 4.053813 " transform="matrix(1,0,0,-1,14.671,14.671)"/>
<path style="fill:none;stroke-width:0.3985;stroke-linecap:butt;stroke-linejoin:miter;stroke:rgb(0%,0%,0%);stroke-opacity:1;stroke-miterlimit:10;" d="M -14.174906 -7.086812 L -3.034281 -7.086812 " transform="matrix(1,0,0,-1,14.671,14.671)"/>
<path style="fill:none;stroke-width:0.79701;stroke-linecap:butt;stroke-linejoin:miter;stroke:rgb(26.667786%,53.33252%,100%);stroke-opacity:1;stroke-dasharray:1.99255,0.49814;stroke-miterlimit:10;" d="M 3.032125 -7.086812 L 18.227438 -7.086812 " transform="matrix(1,0,0,-1,14.671,14.671)"/>
<path style="fill:none;stroke-width:0.3985;stroke-linecap:butt;stroke-linejoin:miter;stroke:rgb(0%,0%,0%);stroke-opacity:1;stroke-miterlimit:10;" d="M -14.174906 7.085063 L -3.034281 7.085063 " transform="matrix(1,0,0,-1,14.671,14.671)"/>
<path style="fill:none;stroke-width:0.79701;stroke-linecap:butt;stroke-linejoin:miter;stroke:rgb(26.667786%,53.33252%,100%);stroke-opacity:1;stroke-dasharray:1.99255,0.49814;stroke-miterlimit:10;" d="M 3.032125 7.085063 L 18.227438 7.085063 " transform="matrix(1,0,0,-1,14.671,14.671)"/>
<path style="fill-rule:nonzero;fill:rgb(86.66687%,100%,86.66687%);fill-opacity:1;stroke-width:0.3985;stroke-linecap:butt;stroke-linejoin:miter;stroke:rgb(0%,0%,0%);stroke-opacity:1;stroke-miterlimit:10;" d="M 24.094625 -7.086812 C 24.094625 -5.520406 22.825094 -4.250875 21.258688 -4.250875 C 19.696188 -4.250875 18.426656 -5.520406 18.426656 -7.086812 C 18.426656 -8.653219 19.696188 -9.92275 21.258688 -9.92275 C 22.825094 -9.92275 24.094625 -8.653219 24.094625 -7.086812 Z M 24.094625 -7.086812 " transform="matrix(1,0,0,-1,14.671,14.671)"/>
<path style="fill-rule:nonzero;fill:rgb(86.66687%,100%,86.66687%);fill-opacity:1;stroke-width:0.3985;stroke-linecap:butt;stroke-linejoin:miter;stroke:rgb(0%,0%,0%);stroke-opacity:1;stroke-miterlimit:10;" d="M 24.094625 7.085063 C 24.094625 8.651469 22.825094 9.921 21.258688 9.921 C 19.696188 9.921 18.426656 8.651469 18.426656 7.085063 C 18.426656 5.522563 19.696188 4.253031 21.258688 4.253031 C 22.825094 4.253031 24.094625 5.522563 24.094625 7.085063 Z M 24.094625 7.085063 " transform="matrix(1,0,0,-1,14.671,14.671)"/>
<path style="fill:none;stroke-width:0.3985;stroke-linecap:butt;stroke-linejoin:miter;stroke:rgb(0%,0%,0%);stroke-opacity:1;stroke-miterlimit:10;" d="M -0.0013125 2.145906 L -0.0013125 0.001375 " transform="matrix(1,0,0,-1,35.931,35.642)"/>
<path style="fill:none;stroke-width:0.3985;stroke-linecap:butt;stroke-linejoin:miter;stroke:rgb(0%,0%,0%);stroke-opacity:1;stroke-miterlimit:10;" d="M -3.485688 -0.108 L 3.486969 -0.108 M -2.325531 -1.416594 L 2.322906 -1.416594 M -1.161469 -2.721281 L 1.16275 -2.721281 " transform="matrix(1,0,0,-1,35.931,35.642)"/>
<path style="fill-rule:nonzero;fill:rgb(86.66687%,100%,86.66687%);fill-opacity:1;stroke-width:0.3985;stroke-linecap:butt;stroke-linejoin:miter;stroke:rgb(0%,0%,0%);stroke-opacity:1;stroke-miterlimit:10;" d="M 2.832906 -7.086812 C 2.832906 -5.520406 1.567281 -4.250875 0.000875 -4.250875 C -1.565531 -4.250875 -2.835062 -5.520406 -2.835062 -7.086812 C -2.835062 -8.653219 -1.565531 -9.92275 0.000875 -9.92275 C 1.567281 -9.92275 2.832906 -8.653219 2.832906 -7.086812 Z M 2.832906 -7.086812 " transform="matrix(1,0,0,-1,14.671,14.671)"/>
<path style="fill-rule:nonzero;fill:rgb(86.66687%,100%,86.66687%);fill-opacity:1;stroke-width:0.3985;stroke-linecap:butt;stroke-linejoin:miter;stroke:rgb(0%,0%,0%);stroke-opacity:1;stroke-miterlimit:10;" d="M 2.832906 7.085063 C 2.832906 8.651469 1.567281 9.921 0.000875 9.921 C -1.565531 9.921 -2.835062 8.651469 -2.835062 7.085063 C -2.835062 5.522563 -1.565531 4.253031 0.000875 4.253031 C 1.567281 4.253031 2.832906 5.522563 2.832906 7.085063 Z M 2.832906 7.085063 " transform="matrix(1,0,0,-1,14.671,14.671)"/>
</g>
</svg>
