<?xml version="1.0" encoding="UTF-8"?>
<svg xmlns="http://www.w3.org/2000/svg" xmlns:xlink="http://www.w3.org/1999/xlink" width="98.194" height="55.674" viewBox="0 0 98.194 55.674">
<defs>
<clipPath id="clip-0">
<path clip-rule="nonzero" d="M 86 22 L 98.195312 22 L 98.195312 40 L 86 40 Z M 86 22 "/>
</clipPath>
<clipPath id="clip-1">
<path clip-rule="nonzero" d="M 0 49 L 6 49 L 6 55.675781 L 0 55.675781 Z M 0 49 "/>
</clipPath>
<clipPath id="clip-2">
<path clip-rule="nonzero" d="M 0 44 L 12 44 L 12 55.675781 L 0 55.675781 Z M 0 44 "/>
</clipPath>
<clipPath id="clip-3">
<path clip-rule="nonzero" d="M 14 49 L 21 49 L 21 55.675781 L 14 55.675781 Z M 14 49 "/>
</clipPath>
<clipPath id="clip-4">
<path clip-rule="nonzero" d="M 8 44 L 26 44 L 26 55.675781 L 8 55.675781 Z M 8 44 "/>
</clipPath>
<clipPath id="clip-5">
<path clip-rule="nonzero" d="M 28 49 L 35 49 L 35 55.675781 L 28 55.675781 Z M 28 49 "/>
</clipPath>
<clipPath id="clip-6">
<path clip-rule="nonzero" d="M 22 44 L 40 44 L 40 55.675781 L 22 55.675781 Z M 22 44 "/>
</clipPath>
<clipPath id="clip-7">
<path clip-rule="nonzero" d="M 42 49 L 49 49 L 49 55.675781 L 42 55.675781 Z M 42 49 "/>
</clipPath>
<clipPath id="clip-8">
<path clip-rule="nonzero" d="M 37 44 L 55 44 L 55 55.675781 L 37 55.675781 Z M 37 44 "/>
</clipPath>
<clipPath id="clip-9">
<path clip-rule="nonzero" d="M 71 49 L 77 49 L 77 55.675781 L 71 55.675781 Z M 71 49 "/>
</clipPath>
<clipPath id="clip-10">
<path clip-rule="nonzero" d="M 65 44 L 83 44 L 83 55.675781 L 65 55.675781 Z M 65 44 "/>
</clipPath>
<clipPath id="clip-11">
<path clip-rule="nonzero" d="M 92 49 L 98 49 L 98 55.675781 L 92 55.675781 Z M 92 49 "/>
</clipPath>
<clipPath id="clip-12">
<path clip-rule="nonzero" d="M 86 44 L 98.195312 44 L 98.195312 55.675781 L 86 55.675781 Z M 86 44 "/>
</clipPath>
<clipPath id="clip-13">
<path clip-rule="nonzero" d="M 92 49 L 98 49 L 98 55.675781 L 92 55.675781 Z M 92 49 "/>
</clipPath>
<clipPath id="clip-14">
<path clip-rule="nonzero" d="M 86 44 L 98.195312 44 L 98.195312 55.675781 L 86 55.675781 Z M 86 44 "/>
</clipPath>
<clipPath id="clip-15">
<path clip-rule="nonzero" d="M 92 49 L 98 49 L 98 55.675781 L 92 55.675781 Z M 92 49 "/>
</clipPath>
<clipPath id="clip-16">
<path clip-rule="nonzero" d="M 86 44 L 98.195312 44 L 98.195312 55.675781 L 86 55.675781 Z M 86 44 "/>
</clipPath>
</defs>
<path fill="none" stroke-width="0.3985" stroke-linecap="butt" stroke-linejoin="miter" stroke="rgb(0%, 0%, 0%)" stroke-opacity="1" stroke-miterlimit="10" d="M -67.833594 14.175094 L -59.728125 14.175094 " transform="matrix(1, 0, 0, -1, 73.9, 45.554)"/>
<path fill="none" stroke-width="0.3985" stroke-linecap="butt" stroke-linejoin="miter" stroke="rgb(0%, 0%, 0%)" stroke-opacity="1" stroke-miterlimit="10" d="M -67.833594 -7.086625 L -59.728125 -7.086625 " transform="matrix(1, 0, 0, -1, 73.9, 45.554)"/>
<path fill="none" stroke-width="0.3985" stroke-linecap="butt" stroke-linejoin="miter" stroke="rgb(0%, 0%, 0%)" stroke-opacity="1" stroke-miterlimit="10" d="M -53.657813 14.175094 L -45.552344 14.175094 " transform="matrix(1, 0, 0, -1, 73.9, 45.554)"/>
<path fill="none" stroke-width="0.3985" stroke-linecap="butt" stroke-linejoin="miter" stroke="rgb(0%, 0%, 0%)" stroke-opacity="1" stroke-miterlimit="10" d="M -53.657813 -7.086625 L -45.552344 -7.086625 " transform="matrix(1, 0, 0, -1, 73.9, 45.554)"/>
<path fill="none" stroke-width="0.3985" stroke-linecap="butt" stroke-linejoin="miter" stroke="rgb(0%, 0%, 0%)" stroke-opacity="1" stroke-miterlimit="10" d="M -39.485938 -7.086625 L -31.380469 -7.086625 " transform="matrix(1, 0, 0, -1, 73.9, 45.554)"/>
<path fill="none" stroke-width="0.3985" stroke-linecap="butt" stroke-linejoin="miter" stroke="rgb(0%, 0%, 0%)" stroke-opacity="1" stroke-miterlimit="10" d="M -42.521094 -4.051469 L -42.521094 11.139938 " transform="matrix(1, 0, 0, -1, 73.9, 45.554)"/>
<path fill="none" stroke-width="0.3985" stroke-linecap="butt" stroke-linejoin="miter" stroke="rgb(0%, 0%, 0%)" stroke-opacity="1" stroke-miterlimit="10" d="M -28.345313 25.311813 L -28.345313 17.206344 " transform="matrix(1, 0, 0, -1, 73.9, 45.554)"/>
<path fill="none" stroke-width="0.3985" stroke-linecap="butt" stroke-linejoin="miter" stroke="rgb(0%, 0%, 0%)" stroke-opacity="1" stroke-miterlimit="10" d="M -0.0015625 39.487594 L -0.0015625 17.206344 " transform="matrix(1, 0, 0, -1, 73.9, 45.554)"/>
<path fill="none" stroke-width="0.3985" stroke-linecap="butt" stroke-linejoin="miter" stroke="rgb(0%, 0%, 0%)" stroke-opacity="1" stroke-miterlimit="10" d="M -25.314063 -7.086625 L -3.032813 -7.086625 " transform="matrix(1, 0, 0, -1, 73.9, 45.554)"/>
<path fill="none" stroke-width="0.3985" stroke-linecap="butt" stroke-linejoin="miter" stroke="rgb(0%, 0%, 0%)" stroke-opacity="1" stroke-miterlimit="10" d="M -0.0015625 11.139938 L -0.0015625 -4.051469 " transform="matrix(1, 0, 0, -1, 73.9, 45.554)"/>
<path fill="none" stroke-width="0.3985" stroke-linecap="butt" stroke-linejoin="miter" stroke="rgb(0%, 0%, 0%)" stroke-opacity="1" stroke-miterlimit="10" d="M 3.033594 14.175094 L 18.225 14.175094 " transform="matrix(1, 0, 0, -1, 73.9, 45.554)"/>
<path fill="none" stroke-width="0.3985" stroke-linecap="butt" stroke-linejoin="miter" stroke="rgb(0%, 0%, 0%)" stroke-opacity="1" stroke-miterlimit="10" d="M 3.033594 -7.086625 L 18.225 -7.086625 " transform="matrix(1, 0, 0, -1, 73.9, 45.554)"/>
<path fill="none" stroke-width="0.3985" stroke-linecap="butt" stroke-linejoin="miter" stroke="rgb(0%, 0%, 0%)" stroke-opacity="1" stroke-miterlimit="10" d="M -39.485938 14.175094 L -31.380469 14.175094 " transform="matrix(1, 0, 0, -1, 73.9, 45.554)"/>
<path fill="none" stroke-width="0.3985" stroke-linecap="butt" stroke-linejoin="miter" stroke="rgb(0%, 0%, 0%)" stroke-opacity="1" stroke-miterlimit="10" d="M -25.314063 14.175094 L -3.032813 14.175094 " transform="matrix(1, 0, 0, -1, 73.9, 45.554)"/>
<path fill-rule="nonzero" fill="rgb(0%, 0%, 0%)" fill-opacity="1" d="M 97.996094 31.378906 C 97.996094 29.816406 96.726562 28.546875 95.160156 28.546875 C 93.59375 28.546875 92.324219 29.816406 92.324219 31.378906 C 92.324219 32.945312 93.59375 34.214844 95.160156 34.214844 C 96.726562 34.214844 97.996094 32.945312 97.996094 31.378906 Z M 97.996094 31.378906 "/>
<g clip-path="url(#clip-0)">
<path fill="none" stroke-width="0.3985" stroke-linecap="butt" stroke-linejoin="miter" stroke="rgb(0%, 0%, 0%)" stroke-opacity="1" stroke-miterlimit="10" d="M 24.096094 14.175094 C 24.096094 15.737594 22.826562 17.007125 21.260156 17.007125 C 19.69375 17.007125 18.424219 15.737594 18.424219 14.175094 C 18.424219 12.608688 19.69375 11.339156 21.260156 11.339156 C 22.826562 11.339156 24.096094 12.608688 24.096094 14.175094 Z M 24.096094 14.175094 " transform="matrix(1, 0, 0, -1, 73.9, 45.554)"/>
</g>
<path fill-rule="nonzero" fill="rgb(0%, 0%, 0%)" fill-opacity="1" stroke-width="0.3985" stroke-linecap="butt" stroke-linejoin="miter" stroke="rgb(0%, 0%, 0%)" stroke-opacity="1" stroke-miterlimit="10" d="M -68.032813 14.175094 C -68.032813 15.737594 -69.302344 17.007125 -70.86875 17.007125 C -72.43125 17.007125 -73.700781 15.737594 -73.700781 14.175094 C -73.700781 12.608688 -72.43125 11.339156 -70.86875 11.339156 C -69.302344 11.339156 -68.032813 12.608688 -68.032813 14.175094 Z M -68.032813 14.175094 " transform="matrix(1, 0, 0, -1, 73.9, 45.554)"/>
<g clip-path="url(#clip-1)">
<path fill-rule="nonzero" fill="rgb(0%, 0%, 0%)" fill-opacity="1" d="M 5.867188 52.640625 C 5.867188 51.074219 4.597656 49.804688 3.03125 49.804688 C 1.46875 49.804688 0.199219 51.074219 0.199219 52.640625 C 0.199219 54.207031 1.46875 55.476562 3.03125 55.476562 C 4.597656 55.476562 5.867188 54.207031 5.867188 52.640625 Z M 5.867188 52.640625 "/>
</g>
<g clip-path="url(#clip-2)">
<path fill="none" stroke-width="0.3985" stroke-linecap="butt" stroke-linejoin="miter" stroke="rgb(0%, 0%, 0%)" stroke-opacity="1" stroke-miterlimit="10" d="M -68.032813 -7.086625 C -68.032813 -5.520219 -69.302344 -4.250687 -70.86875 -4.250687 C -72.43125 -4.250687 -73.700781 -5.520219 -73.700781 -7.086625 C -73.700781 -8.653031 -72.43125 -9.922562 -70.86875 -9.922562 C -69.302344 -9.922562 -68.032813 -8.653031 -68.032813 -7.086625 Z M -68.032813 -7.086625 " transform="matrix(1, 0, 0, -1, 73.9, 45.554)"/>
</g>
<path fill-rule="nonzero" fill="rgb(0%, 0%, 0%)" fill-opacity="1" stroke-width="0.3985" stroke-linecap="butt" stroke-linejoin="miter" stroke="rgb(0%, 0%, 0%)" stroke-opacity="1" stroke-miterlimit="10" d="M -53.857031 14.175094 C -53.857031 15.737594 -55.126563 17.007125 -56.692969 17.007125 C -58.259375 17.007125 -59.528906 15.737594 -59.528906 14.175094 C -59.528906 12.608688 -58.259375 11.339156 -56.692969 11.339156 C -55.126563 11.339156 -53.857031 12.608688 -53.857031 14.175094 Z M -53.857031 14.175094 " transform="matrix(1, 0, 0, -1, 73.9, 45.554)"/>
<g clip-path="url(#clip-3)">
<path fill-rule="nonzero" fill="rgb(0%, 0%, 0%)" fill-opacity="1" d="M 20.042969 52.640625 C 20.042969 51.074219 18.773438 49.804688 17.207031 49.804688 C 15.640625 49.804688 14.371094 51.074219 14.371094 52.640625 C 14.371094 54.207031 15.640625 55.476562 17.207031 55.476562 C 18.773438 55.476562 20.042969 54.207031 20.042969 52.640625 Z M 20.042969 52.640625 "/>
</g>
<g clip-path="url(#clip-4)">
<path fill="none" stroke-width="0.3985" stroke-linecap="butt" stroke-linejoin="miter" stroke="rgb(0%, 0%, 0%)" stroke-opacity="1" stroke-miterlimit="10" d="M -53.857031 -7.086625 C -53.857031 -5.520219 -55.126563 -4.250687 -56.692969 -4.250687 C -58.259375 -4.250687 -59.528906 -5.520219 -59.528906 -7.086625 C -59.528906 -8.653031 -58.259375 -9.922562 -56.692969 -9.922562 C -55.126563 -9.922562 -53.857031 -8.653031 -53.857031 -7.086625 Z M -53.857031 -7.086625 " transform="matrix(1, 0, 0, -1, 73.9, 45.554)"/>
</g>
<path fill-rule="nonzero" fill="rgb(0%, 0%, 0%)" fill-opacity="1" stroke-width="0.3985" stroke-linecap="butt" stroke-linejoin="miter" stroke="rgb(0%, 0%, 0%)" stroke-opacity="1" stroke-miterlimit="10" d="M -39.685156 14.175094 C -39.685156 15.737594 -40.954688 17.007125 -42.521094 17.007125 C -44.0875 17.007125 -45.353125 15.737594 -45.353125 14.175094 C -45.353125 12.608688 -44.0875 11.339156 -42.521094 11.339156 C -40.954688 11.339156 -39.685156 12.608688 -39.685156 14.175094 Z M -39.685156 14.175094 " transform="matrix(1, 0, 0, -1, 73.9, 45.554)"/>
<g clip-path="url(#clip-5)">
<path fill-rule="nonzero" fill="rgb(0%, 0%, 0%)" fill-opacity="1" d="M 34.214844 52.640625 C 34.214844 51.074219 32.945312 49.804688 31.378906 49.804688 C 29.8125 49.804688 28.546875 51.074219 28.546875 52.640625 C 28.546875 54.207031 29.8125 55.476562 31.378906 55.476562 C 32.945312 55.476562 34.214844 54.207031 34.214844 52.640625 Z M 34.214844 52.640625 "/>
</g>
<g clip-path="url(#clip-6)">
<path fill="none" stroke-width="0.3985" stroke-linecap="butt" stroke-linejoin="miter" stroke="rgb(0%, 0%, 0%)" stroke-opacity="1" stroke-miterlimit="10" d="M -39.685156 -7.086625 C -39.685156 -5.520219 -40.954688 -4.250687 -42.521094 -4.250687 C -44.0875 -4.250687 -45.353125 -5.520219 -45.353125 -7.086625 C -45.353125 -8.653031 -44.0875 -9.922562 -42.521094 -9.922562 C -40.954688 -9.922562 -39.685156 -8.653031 -39.685156 -7.086625 Z M -39.685156 -7.086625 " transform="matrix(1, 0, 0, -1, 73.9, 45.554)"/>
</g>
<g clip-path="url(#clip-7)">
<path fill-rule="nonzero" fill="rgb(0%, 0%, 0%)" fill-opacity="1" d="M 48.386719 52.640625 C 48.386719 51.074219 47.117188 49.804688 45.554688 49.804688 C 43.988281 49.804688 42.71875 51.074219 42.71875 52.640625 C 42.71875 54.207031 43.988281 55.476562 45.554688 55.476562 C 47.117188 55.476562 48.386719 54.207031 48.386719 52.640625 Z M 48.386719 52.640625 "/>
</g>
<g clip-path="url(#clip-8)">
<path fill="none" stroke-width="0.3985" stroke-linecap="butt" stroke-linejoin="miter" stroke="rgb(0%, 0%, 0%)" stroke-opacity="1" stroke-miterlimit="10" d="M -25.513281 -7.086625 C -25.513281 -5.520219 -26.782813 -4.250687 -28.345313 -4.250687 C -29.911719 -4.250687 -31.18125 -5.520219 -31.18125 -7.086625 C -31.18125 -8.653031 -29.911719 -9.922562 -28.345313 -9.922562 C -26.782813 -9.922562 -25.513281 -8.653031 -25.513281 -7.086625 Z M -25.513281 -7.086625 " transform="matrix(1, 0, 0, -1, 73.9, 45.554)"/>
</g>
<path fill-rule="nonzero" fill="rgb(0%, 0%, 0%)" fill-opacity="1" stroke-width="0.3985" stroke-linecap="butt" stroke-linejoin="miter" stroke="rgb(0%, 0%, 0%)" stroke-opacity="1" stroke-miterlimit="10" d="M -25.513281 14.175094 C -25.513281 15.737594 -26.782813 17.007125 -28.345313 17.007125 C -29.911719 17.007125 -31.18125 15.737594 -31.18125 14.175094 C -31.18125 12.608688 -29.911719 11.339156 -28.345313 11.339156 C -26.782813 11.339156 -25.513281 12.608688 -25.513281 14.175094 Z M -25.513281 14.175094 " transform="matrix(1, 0, 0, -1, 73.9, 45.554)"/>
<path fill-rule="nonzero" fill="rgb(0%, 0%, 0%)" fill-opacity="1" stroke-width="0.3985" stroke-linecap="butt" stroke-linejoin="miter" stroke="rgb(0%, 0%, 0%)" stroke-opacity="1" stroke-miterlimit="10" d="M 2.834375 14.175094 C 2.834375 15.737594 1.564844 17.007125 -0.0015625 17.007125 C -1.564063 17.007125 -2.833594 15.737594 -2.833594 14.175094 C -2.833594 12.608688 -1.564063 11.339156 -0.0015625 11.339156 C 1.564844 11.339156 2.834375 12.608688 2.834375 14.175094 Z M 2.834375 14.175094 " transform="matrix(1, 0, 0, -1, 73.9, 45.554)"/>
<path fill-rule="nonzero" fill="rgb(0%, 0%, 0%)" fill-opacity="1" stroke-width="0.3985" stroke-linecap="butt" stroke-linejoin="miter" stroke="rgb(0%, 0%, 0%)" stroke-opacity="1" stroke-miterlimit="10" d="M -25.513281 28.346969 C -25.513281 29.913375 -26.782813 31.182906 -28.345313 31.182906 C -29.911719 31.182906 -31.18125 29.913375 -31.18125 28.346969 C -31.18125 26.780563 -29.911719 25.511031 -28.345313 25.511031 C -26.782813 25.511031 -25.513281 26.780563 -25.513281 28.346969 Z M -25.513281 28.346969 " transform="matrix(1, 0, 0, -1, 73.9, 45.554)"/>
<path fill-rule="nonzero" fill="rgb(0%, 0%, 0%)" fill-opacity="1" stroke-width="0.3985" stroke-linecap="butt" stroke-linejoin="miter" stroke="rgb(0%, 0%, 0%)" stroke-opacity="1" stroke-miterlimit="10" d="M 2.834375 42.518844 C 2.834375 44.08525 1.564844 45.354781 -0.0015625 45.354781 C -1.564063 45.354781 -2.833594 44.08525 -2.833594 42.518844 C -2.833594 40.956344 -1.564063 39.686813 -0.0015625 39.686813 C 1.564844 39.686813 2.834375 40.956344 2.834375 42.518844 Z M 2.834375 42.518844 " transform="matrix(1, 0, 0, -1, 73.9, 45.554)"/>
<g clip-path="url(#clip-9)">
<path fill-rule="nonzero" fill="rgb(0%, 0%, 0%)" fill-opacity="1" d="M 76.734375 52.640625 C 76.734375 51.074219 75.464844 49.804688 73.898438 49.804688 C 72.335938 49.804688 71.066406 51.074219 71.066406 52.640625 C 71.066406 54.207031 72.335938 55.476562 73.898438 55.476562 C 75.464844 55.476562 76.734375 54.207031 76.734375 52.640625 Z M 76.734375 52.640625 "/>
</g>
<g clip-path="url(#clip-10)">
<path fill="none" stroke-width="0.3985" stroke-linecap="butt" stroke-linejoin="miter" stroke="rgb(0%, 0%, 0%)" stroke-opacity="1" stroke-miterlimit="10" d="M 2.834375 -7.086625 C 2.834375 -5.520219 1.564844 -4.250687 -0.0015625 -4.250687 C -1.564063 -4.250687 -2.833594 -5.520219 -2.833594 -7.086625 C -2.833594 -8.653031 -1.564063 -9.922562 -0.0015625 -9.922562 C 1.564844 -9.922562 2.834375 -8.653031 2.834375 -7.086625 Z M 2.834375 -7.086625 " transform="matrix(1, 0, 0, -1, 73.9, 45.554)"/>
</g>
<g clip-path="url(#clip-11)">
<path fill-rule="nonzero" fill="rgb(0%, 0%, 0%)" fill-opacity="1" d="M 97.996094 52.640625 C 97.996094 51.074219 96.726562 49.804688 95.160156 49.804688 C 93.59375 49.804688 92.324219 51.074219 92.324219 52.640625 C 92.324219 54.207031 93.59375 55.476562 95.160156 55.476562 C 96.726562 55.476562 97.996094 54.207031 97.996094 52.640625 Z M 97.996094 52.640625 "/>
</g>
<g clip-path="url(#clip-12)">
<path fill="none" stroke-width="0.3985" stroke-linecap="butt" stroke-linejoin="miter" stroke="rgb(0%, 0%, 0%)" stroke-opacity="1" stroke-miterlimit="10" d="M 24.096094 -7.086625 C 24.096094 -5.520219 22.826562 -4.250687 21.260156 -4.250687 C 19.69375 -4.250687 18.424219 -5.520219 18.424219 -7.086625 C 18.424219 -8.653031 19.69375 -9.922562 21.260156 -9.922562 C 22.826562 -9.922562 24.096094 -8.653031 24.096094 -7.086625 Z M 24.096094 -7.086625 " transform="matrix(1, 0, 0, -1, 73.9, 45.554)"/>
</g>
<g clip-path="url(#clip-13)">
<path fill-rule="nonzero" fill="rgb(0%, 0%, 0%)" fill-opacity="1" d="M 97.996094 52.640625 C 97.996094 51.074219 96.726562 49.804688 95.160156 49.804688 C 93.59375 49.804688 92.324219 51.074219 92.324219 52.640625 C 92.324219 54.207031 93.59375 55.476562 95.160156 55.476562 C 96.726562 55.476562 97.996094 54.207031 97.996094 52.640625 Z M 97.996094 52.640625 "/>
</g>
<g clip-path="url(#clip-14)">
<path fill="none" stroke-width="0.3985" stroke-linecap="butt" stroke-linejoin="miter" stroke="rgb(0%, 0%, 0%)" stroke-opacity="1" stroke-miterlimit="10" d="M 24.096094 -7.086625 C 24.096094 -5.520219 22.826562 -4.250687 21.260156 -4.250687 C 19.69375 -4.250687 18.424219 -5.520219 18.424219 -7.086625 C 18.424219 -8.653031 19.69375 -9.922562 21.260156 -9.922562 C 22.826562 -9.922562 24.096094 -8.653031 24.096094 -7.086625 Z M 24.096094 -7.086625 " transform="matrix(1, 0, 0, -1, 73.9, 45.554)"/>
</g>
<g clip-path="url(#clip-15)">
<path fill-rule="nonzero" fill="rgb(0%, 0%, 0%)" fill-opacity="1" d="M 97.996094 52.640625 C 97.996094 51.074219 96.726562 49.804688 95.160156 49.804688 C 93.59375 49.804688 92.324219 51.074219 92.324219 52.640625 C 92.324219 54.207031 93.59375 55.476562 95.160156 55.476562 C 96.726562 55.476562 97.996094 54.207031 97.996094 52.640625 Z M 97.996094 52.640625 "/>
</g>
<g clip-path="url(#clip-16)">
<path fill="none" stroke-width="0.3985" stroke-linecap="butt" stroke-linejoin="miter" stroke="rgb(0%, 0%, 0%)" stroke-opacity="1" stroke-miterlimit="10" d="M 24.096094 -7.086625 C 24.096094 -5.520219 22.826562 -4.250687 21.260156 -4.250687 C 19.69375 -4.250687 18.424219 -5.520219 18.424219 -7.086625 C 18.424219 -8.653031 19.69375 -9.922562 21.260156 -9.922562 C 22.826562 -9.922562 24.096094 -8.653031 24.096094 -7.086625 Z M 24.096094 -7.086625 " transform="matrix(1, 0, 0, -1, 73.9, 45.554)"/>
</g>
<path fill-rule="nonzero" fill="rgb(0%, 0%, 0%)" fill-opacity="1" stroke-width="0.3985" stroke-linecap="butt" stroke-linejoin="miter" stroke="rgb(0%, 0%, 0%)" stroke-opacity="1" stroke-miterlimit="10" d="M 2.834375 14.175094 C 2.834375 15.737594 1.564844 17.007125 -0.0015625 17.007125 C -1.564063 17.007125 -2.833594 15.737594 -2.833594 14.175094 C -2.833594 12.608688 -1.564063 11.339156 -0.0015625 11.339156 C 1.564844 11.339156 2.834375 12.608688 2.834375 14.175094 Z M 2.834375 14.175094 " transform="matrix(1, 0, 0, -1, 73.9, 45.554)"/>
</svg>
