<?xml version="1.0" encoding="UTF-8"?>
<svg xmlns="http://www.w3.org/2000/svg" xmlns:xlink="http://www.w3.org/1999/xlink" width="61.375pt" height="39.062pt" viewBox="0 0 61.375 39.062" version="1.1">
<defs>
<clipPath id="clip1">
  <path d="M 48 13 L 61.375 13 L 61.375 31 L 48 31 Z M 48 13 "/>
</clipPath>
</defs>
<g id="surface1">
<path style="fill:none;stroke-width:0.3985;stroke-linecap:butt;stroke-linejoin:miter;stroke:rgb(0%,0%,0%);stroke-opacity:1;stroke-miterlimit:10;" d="M 17.205781 7.085063 L 28.346406 7.085063 " transform="matrix(1,0,0,-1,28.845,14.671)"/>
<path style="fill:none;stroke-width:0.79701;stroke-linecap:butt;stroke-linejoin:miter;stroke:rgb(100%,5.097961%,7.841492%);stroke-opacity:1;stroke-dasharray:1.99255,0.49814;stroke-miterlimit:10;" d="M -7.087187 14.174906 L 7.088594 14.174906 " transform="matrix(1,0,0,-1,28.845,14.671)"/>
<path style="fill:none;stroke-width:0.79701;stroke-linecap:butt;stroke-linejoin:miter;stroke:rgb(100%,5.097961%,7.841492%);stroke-opacity:1;stroke-dasharray:1.99255,0.49814;stroke-miterlimit:10;" d="M 7.088594 14.174906 L 7.088594 -14.17275 " transform="matrix(1,0,0,-1,28.845,14.671)"/>
<path style="fill:none;stroke-width:0.79701;stroke-linecap:butt;stroke-linejoin:miter;stroke:rgb(100%,5.097961%,7.841492%);stroke-opacity:1;stroke-dasharray:1.99255,0.49814;stroke-miterlimit:10;" d="M 7.088594 -14.17275 L -7.087187 -14.17275 " transform="matrix(1,0,0,-1,28.845,14.671)"/>
<path style="fill:none;stroke-width:0.79701;stroke-linecap:butt;stroke-linejoin:miter;stroke:rgb(100%,5.097961%,7.841492%);stroke-opacity:1;stroke-dasharray:1.99255,0.49814;stroke-miterlimit:10;" d="M -7.087187 -14.17275 L -7.087187 14.174906 " transform="matrix(1,0,0,-1,28.845,14.671)"/>
<path style="fill:none;stroke-width:0.3985;stroke-linecap:butt;stroke-linejoin:miter;stroke:rgb(0%,0%,0%);stroke-opacity:1;stroke-miterlimit:10;" d="M 28.346406 -21.258687 L 28.346406 -10.121969 " transform="matrix(1,0,0,-1,28.845,14.671)"/>
<path style="fill:none;stroke-width:0.3985;stroke-linecap:butt;stroke-linejoin:miter;stroke:rgb(0%,0%,0%);stroke-opacity:1;stroke-miterlimit:10;" d="M 17.205781 -7.086812 L 25.31125 -7.086812 " transform="matrix(1,0,0,-1,28.845,14.671)"/>
<path style="fill:none;stroke-width:0.3985;stroke-linecap:butt;stroke-linejoin:miter;stroke:rgb(0%,0%,0%);stroke-opacity:1;stroke-miterlimit:10;" d="M 3.033906 -7.086812 L 11.139375 -7.086812 " transform="matrix(1,0,0,-1,28.845,14.671)"/>
<path style="fill:none;stroke-width:0.3985;stroke-linecap:butt;stroke-linejoin:miter;stroke:rgb(0%,0%,0%);stroke-opacity:1;stroke-miterlimit:10;" d="M 3.033906 7.085063 L 11.139375 7.085063 " transform="matrix(1,0,0,-1,28.845,14.671)"/>
<path style="fill:none;stroke-width:0.3985;stroke-linecap:butt;stroke-linejoin:miter;stroke:rgb(0%,0%,0%);stroke-opacity:1;stroke-miterlimit:10;" d="M -28.345 -7.086812 L -17.208281 -7.086812 " transform="matrix(1,0,0,-1,28.845,14.671)"/>
<path style="fill:none;stroke-width:0.3985;stroke-linecap:butt;stroke-linejoin:miter;stroke:rgb(0%,0%,0%);stroke-opacity:1;stroke-miterlimit:10;" d="M -28.345 7.085063 L -17.208281 7.085063 " transform="matrix(1,0,0,-1,28.845,14.671)"/>
<path style="fill:none;stroke-width:0.79701;stroke-linecap:butt;stroke-linejoin:miter;stroke:rgb(26.667786%,53.33252%,100%);stroke-opacity:1;stroke-dasharray:1.99255,0.49814;stroke-miterlimit:10;" d="M -11.137969 7.085063 L -3.0325 7.085063 " transform="matrix(1,0,0,-1,28.845,14.671)"/>
<path style="fill:none;stroke-width:0.79701;stroke-linecap:butt;stroke-linejoin:miter;stroke:rgb(26.667786%,53.33252%,100%);stroke-opacity:1;stroke-dasharray:1.99255,0.49814;stroke-miterlimit:10;" d="M -11.137969 -7.086812 L -3.0325 -7.086812 " transform="matrix(1,0,0,-1,28.845,14.671)"/>
<path style="fill:none;stroke-width:0.79701;stroke-linecap:butt;stroke-linejoin:miter;stroke:rgb(26.667786%,53.33252%,100%);stroke-opacity:1;stroke-dasharray:1.99255,0.49814;stroke-miterlimit:10;" d="M 14.174531 4.053813 L 14.174531 -4.051656 " transform="matrix(1,0,0,-1,28.845,14.671)"/>
<path style=" stroke:none;fill-rule:nonzero;fill:rgb(86.66687%,100%,86.66687%);fill-opacity:1;" d="M 60.027344 21.757812 C 60.027344 20.191406 58.757812 18.921875 57.191406 18.921875 C 55.625 18.921875 54.355469 20.191406 54.355469 21.757812 C 54.355469 23.324219 55.625 24.59375 57.191406 24.59375 C 58.757812 24.59375 60.027344 23.324219 60.027344 21.757812 Z M 60.027344 21.757812 "/>
<g clip-path="url(#clip1)" clip-rule="nonzero">
<path style="fill:none;stroke-width:0.3985;stroke-linecap:butt;stroke-linejoin:miter;stroke:rgb(0%,0%,0%);stroke-opacity:1;stroke-miterlimit:10;" d="M 31.182344 -7.086812 C 31.182344 -5.520406 29.912813 -4.250875 28.346406 -4.250875 C 26.78 -4.250875 25.510469 -5.520406 25.510469 -7.086812 C 25.510469 -8.653219 26.78 -9.92275 28.346406 -9.92275 C 29.912813 -9.92275 31.182344 -8.653219 31.182344 -7.086812 Z M 31.182344 -7.086812 " transform="matrix(1,0,0,-1,28.845,14.671)"/>
</g>
<path style="fill-rule:nonzero;fill:rgb(86.66687%,100%,86.66687%);fill-opacity:1;stroke-width:0.3985;stroke-linecap:butt;stroke-linejoin:miter;stroke:rgb(0%,0%,0%);stroke-opacity:1;stroke-miterlimit:10;" d="M 17.006563 7.085063 C 17.006563 8.651469 15.737031 9.921 14.174531 9.921 C 12.608125 9.921 11.338594 8.651469 11.338594 7.085063 C 11.338594 5.522563 12.608125 4.253031 14.174531 4.253031 C 15.737031 4.253031 17.006563 5.522563 17.006563 7.085063 Z M 17.006563 7.085063 " transform="matrix(1,0,0,-1,28.845,14.671)"/>
<path style="fill:none;stroke-width:0.3985;stroke-linecap:butt;stroke-linejoin:miter;stroke:rgb(0%,0%,0%);stroke-opacity:1;stroke-miterlimit:10;" d="M 0.00040625 2.145906 L 0.00040625 0.001375 " transform="matrix(1,0,0,-1,57.191,35.642)"/>
<path style="fill:none;stroke-width:0.3985;stroke-linecap:butt;stroke-linejoin:miter;stroke:rgb(0%,0%,0%);stroke-opacity:1;stroke-miterlimit:10;" d="M -3.487875 -0.108 L 3.488688 -0.108 M -2.323812 -1.416594 L 2.324625 -1.416594 M -1.163656 -2.721281 L 1.160563 -2.721281 " transform="matrix(1,0,0,-1,57.191,35.642)"/>
<path style="fill-rule:nonzero;fill:rgb(86.66687%,100%,86.66687%);fill-opacity:1;stroke-width:0.3985;stroke-linecap:butt;stroke-linejoin:miter;stroke:rgb(0%,0%,0%);stroke-opacity:1;stroke-miterlimit:10;" d="M 2.834688 -7.086812 C 2.834688 -5.520406 1.565156 -4.250875 -0.00125 -4.250875 C -1.56375 -4.250875 -2.833281 -5.520406 -2.833281 -7.086812 C -2.833281 -8.653219 -1.56375 -9.92275 -0.00125 -9.92275 C 1.565156 -9.92275 2.834688 -8.653219 2.834688 -7.086812 Z M 2.834688 -7.086812 " transform="matrix(1,0,0,-1,28.845,14.671)"/>
<path style="fill-rule:nonzero;fill:rgb(86.66687%,100%,86.66687%);fill-opacity:1;stroke-width:0.3985;stroke-linecap:butt;stroke-linejoin:miter;stroke:rgb(0%,0%,0%);stroke-opacity:1;stroke-miterlimit:10;" d="M 2.834688 7.085063 C 2.834688 8.651469 1.565156 9.921 -0.00125 9.921 C -1.56375 9.921 -2.833281 8.651469 -2.833281 7.085063 C -2.833281 5.522563 -1.56375 4.253031 -0.00125 4.253031 C 1.565156 4.253031 2.834688 5.522563 2.834688 7.085063 Z M 2.834688 7.085063 " transform="matrix(1,0,0,-1,28.845,14.671)"/>
<path style="fill-rule:nonzero;fill:rgb(86.66687%,100%,86.66687%);fill-opacity:1;stroke-width:0.3985;stroke-linecap:butt;stroke-linejoin:miter;stroke:rgb(0%,0%,0%);stroke-opacity:1;stroke-miterlimit:10;" d="M 17.006563 -7.086812 C 17.006563 -5.520406 15.737031 -4.250875 14.174531 -4.250875 C 12.608125 -4.250875 11.338594 -5.520406 11.338594 -7.086812 C 11.338594 -8.653219 12.608125 -9.92275 14.174531 -9.92275 C 15.737031 -9.92275 17.006563 -8.653219 17.006563 -7.086812 Z M 17.006563 -7.086812 " transform="matrix(1,0,0,-1,28.845,14.671)"/>
<path style="fill-rule:nonzero;fill:rgb(86.66687%,100%,86.66687%);fill-opacity:1;stroke-width:0.3985;stroke-linecap:butt;stroke-linejoin:miter;stroke:rgb(0%,0%,0%);stroke-opacity:1;stroke-miterlimit:10;" d="M -11.337187 7.085063 C -11.337187 8.651469 -12.606719 9.921 -14.173125 9.921 C -15.739531 9.921 -17.009062 8.651469 -17.009062 7.085063 C -17.009062 5.522563 -15.739531 4.253031 -14.173125 4.253031 C -12.606719 4.253031 -11.337187 5.522563 -11.337187 7.085063 Z M -11.337187 7.085063 " transform="matrix(1,0,0,-1,28.845,14.671)"/>
<path style="fill-rule:nonzero;fill:rgb(86.66687%,100%,86.66687%);fill-opacity:1;stroke-width:0.3985;stroke-linecap:butt;stroke-linejoin:miter;stroke:rgb(0%,0%,0%);stroke-opacity:1;stroke-miterlimit:10;" d="M -11.337187 -7.086812 C -11.337187 -5.520406 -12.606719 -4.250875 -14.173125 -4.250875 C -15.739531 -4.250875 -17.009062 -5.520406 -17.009062 -7.086812 C -17.009062 -8.653219 -15.739531 -9.92275 -14.173125 -9.92275 C -12.606719 -9.92275 -11.337187 -8.653219 -11.337187 -7.086812 Z M -11.337187 -7.086812 " transform="matrix(1,0,0,-1,28.845,14.671)"/>
</g>
</svg>
