<?xml version="1.0" encoding="UTF-8"?>
<svg xmlns="http://www.w3.org/2000/svg" xmlns:xlink="http://www.w3.org/1999/xlink" width="192.335pt" height="67.552pt" viewBox="0 0 192.335 67.552" version="1.1">
<defs>
<clipPath id="clip1">
  <path d="M 180 32 L 192.335938 32 L 192.335938 33 L 180 33 Z M 180 32 "/>
</clipPath>
<clipPath id="clip2">
  <path d="M 180 53 L 192.335938 53 L 192.335938 54 L 180 54 Z M 180 53 "/>
</clipPath>
<clipPath id="clip3">
  <path d="M 173 64 L 182 64 L 182 67.550781 L 173 67.550781 Z M 173 64 "/>
</clipPath>
</defs>
<g id="surface1">
<path style="fill:none;stroke-width:0.3985;stroke-linecap:butt;stroke-linejoin:miter;stroke:rgb(0%,0%,0%);stroke-opacity:1;stroke-miterlimit:10;" d="M 56.694063 3.543844 L 56.694063 11.137594 " transform="matrix(1,0,0,-1,120.97,46.704)"/>
<path style="fill:none;stroke-width:0.79701;stroke-linecap:butt;stroke-linejoin:miter;stroke:rgb(26.667786%,53.33252%,100%);stroke-opacity:1;stroke-dasharray:1.99255,0.49814;stroke-miterlimit:10;" d="M -110.352812 14.17275 L -102.247344 14.17275 " transform="matrix(1,0,0,-1,120.97,46.704)"/>
<path style="fill:none;stroke-width:0.79701;stroke-linecap:butt;stroke-linejoin:miter;stroke:rgb(26.667786%,53.33252%,100%);stroke-opacity:1;stroke-dasharray:1.99255,0.49814;stroke-miterlimit:10;" d="M -110.352812 -7.085063 L -102.247344 -7.085063 " transform="matrix(1,0,0,-1,120.97,46.704)"/>
<path style="fill:none;stroke-width:0.79701;stroke-linecap:butt;stroke-linejoin:miter;stroke:rgb(26.667786%,53.33252%,100%);stroke-opacity:1;stroke-dasharray:1.99255,0.49814;stroke-miterlimit:10;" d="M -53.661406 -7.085063 L -45.555937 -7.085063 " transform="matrix(1,0,0,-1,120.97,46.704)"/>
<path style="fill:none;stroke-width:0.79701;stroke-linecap:butt;stroke-linejoin:miter;stroke:rgb(26.667786%,53.33252%,100%);stroke-opacity:1;stroke-dasharray:1.99255,0.49814;stroke-miterlimit:10;" d="M -56.692656 -4.053813 L -56.692656 11.137594 " transform="matrix(1,0,0,-1,120.97,46.704)"/>
<path style="fill:none;stroke-width:0.3985;stroke-linecap:butt;stroke-linejoin:miter;stroke:rgb(0%,0%,0%);stroke-opacity:1;stroke-miterlimit:10;" d="M -120.473906 28.348531 L -31.380156 28.348531 " transform="matrix(1,0,0,-1,120.97,46.704)"/>
<path style="fill:none;stroke-width:0.3985;stroke-linecap:butt;stroke-linejoin:miter;stroke:rgb(0%,0%,0%);stroke-opacity:1;stroke-miterlimit:10;" d="M -25.31375 28.348531 L -17.716094 28.348531 " transform="matrix(1,0,0,-1,120.97,46.704)"/>
<path style="fill:none;stroke-width:0.79701;stroke-linecap:butt;stroke-linejoin:miter;stroke:rgb(26.667786%,53.33252%,100%);stroke-opacity:1;stroke-dasharray:1.99255,0.49814;stroke-miterlimit:10;" d="M -28.345 25.313375 L -28.345 17.207906 " transform="matrix(1,0,0,-1,120.97,46.704)"/>
<path style="fill:none;stroke-width:0.3985;stroke-linecap:butt;stroke-linejoin:miter;stroke:rgb(0%,0%,0%);stroke-opacity:1;stroke-miterlimit:10;" d="M 3.033906 42.520406 L 10.631563 42.520406 " transform="matrix(1,0,0,-1,120.97,46.704)"/>
<path style="fill:none;stroke-width:0.3985;stroke-linecap:butt;stroke-linejoin:miter;stroke:rgb(0%,0%,0%);stroke-opacity:1;stroke-miterlimit:10;" d="M -120.473906 42.520406 L -3.0325 42.520406 " transform="matrix(1,0,0,-1,120.97,46.704)"/>
<path style="fill:none;stroke-width:0.3985;stroke-linecap:butt;stroke-linejoin:miter;stroke:rgb(0%,0%,0%);stroke-opacity:1;stroke-miterlimit:10;" d="M 56.694063 -17.717875 L 56.694063 -10.120219 " transform="matrix(1,0,0,-1,120.97,46.704)"/>
<g clip-path="url(#clip1)" clip-rule="nonzero">
<path style="fill:none;stroke-width:0.3985;stroke-linecap:butt;stroke-linejoin:miter;stroke:rgb(0%,0%,0%);stroke-opacity:1;stroke-miterlimit:10;" d="M 59.729219 14.17275 L 70.865938 14.17275 " transform="matrix(1,0,0,-1,120.97,46.704)"/>
</g>
<g clip-path="url(#clip2)" clip-rule="nonzero">
<path style="fill:none;stroke-width:0.3985;stroke-linecap:butt;stroke-linejoin:miter;stroke:rgb(0%,0%,0%);stroke-opacity:1;stroke-miterlimit:10;" d="M 59.729219 -7.085063 L 70.865938 -7.085063 " transform="matrix(1,0,0,-1,120.97,46.704)"/>
</g>
<path style="fill:none;stroke-width:0.79701;stroke-linecap:butt;stroke-linejoin:miter;stroke:rgb(26.667786%,53.33252%,100%);stroke-opacity:1;stroke-dasharray:1.99255,0.49814;stroke-miterlimit:10;" d="M -67.833281 -7.085063 L -59.727812 -7.085063 " transform="matrix(1,0,0,-1,120.97,46.704)"/>
<path style="fill:none;stroke-width:0.79701;stroke-linecap:butt;stroke-linejoin:miter;stroke:rgb(26.667786%,53.33252%,100%);stroke-opacity:1;stroke-dasharray:1.99255,0.49814;stroke-miterlimit:10;" d="M -82.005156 14.17275 L -73.899687 14.17275 " transform="matrix(1,0,0,-1,120.97,46.704)"/>
<path style="fill:none;stroke-width:0.79701;stroke-linecap:butt;stroke-linejoin:miter;stroke:rgb(26.667786%,53.33252%,100%);stroke-opacity:1;stroke-dasharray:1.99255,0.49814;stroke-miterlimit:10;" d="M -39.485625 14.17275 L -31.380156 14.17275 " transform="matrix(1,0,0,-1,120.97,46.704)"/>
<path style="fill:none;stroke-width:0.79701;stroke-linecap:butt;stroke-linejoin:miter;stroke:rgb(26.667786%,53.33252%,100%);stroke-opacity:1;stroke-dasharray:1.99255,0.49814;stroke-miterlimit:10;" d="M -25.31375 14.17275 L -17.208281 14.17275 " transform="matrix(1,0,0,-1,120.97,46.704)"/>
<path style="fill:none;stroke-width:0.79701;stroke-linecap:butt;stroke-linejoin:miter;stroke:rgb(26.667786%,53.33252%,100%);stroke-opacity:1;stroke-dasharray:1.99255,0.49814;stroke-miterlimit:10;" d="M -0.00125 39.48525 L -0.00125 17.207906 " transform="matrix(1,0,0,-1,120.97,46.704)"/>
<path style="fill:none;stroke-width:0.79701;stroke-linecap:butt;stroke-linejoin:miter;stroke:rgb(26.667786%,53.33252%,100%);stroke-opacity:1;stroke-dasharray:1.99255,0.49814;stroke-miterlimit:10;" d="M 3.033906 -7.085063 L 11.139375 -7.085063 " transform="matrix(1,0,0,-1,120.97,46.704)"/>
<path style="fill:none;stroke-width:0.79701;stroke-linecap:butt;stroke-linejoin:miter;stroke:rgb(26.667786%,53.33252%,100%);stroke-opacity:1;stroke-dasharray:1.99255,0.49814;stroke-miterlimit:10;" d="M 17.205781 -7.085063 L 25.31125 -7.085063 " transform="matrix(1,0,0,-1,120.97,46.704)"/>
<path style="fill:none;stroke-width:0.79701;stroke-linecap:butt;stroke-linejoin:miter;stroke:rgb(26.667786%,53.33252%,100%);stroke-opacity:1;stroke-dasharray:1.99255,0.49814;stroke-miterlimit:10;" d="M 14.174531 -4.053813 L 14.174531 11.137594 " transform="matrix(1,0,0,-1,120.97,46.704)"/>
<path style="fill:none;stroke-width:0.79701;stroke-linecap:butt;stroke-linejoin:miter;stroke:rgb(26.667786%,53.33252%,100%);stroke-opacity:1;stroke-dasharray:1.99255,0.49814;stroke-miterlimit:10;" d="M 31.381563 14.17275 L 39.487031 14.17275 " transform="matrix(1,0,0,-1,120.97,46.704)"/>
<path style="fill:none;stroke-width:0.3985;stroke-linecap:butt;stroke-linejoin:miter;stroke:rgb(0%,0%,0%);stroke-opacity:1;stroke-miterlimit:10;" d="M -11.137969 14.17275 L -3.0325 14.17275 " transform="matrix(1,0,0,-1,120.97,46.704)"/>
<path style="fill:none;stroke-width:0.3985;stroke-linecap:butt;stroke-linejoin:miter;stroke:rgb(0%,0%,0%);stroke-opacity:1;stroke-miterlimit:10;" d="M -96.180937 14.17275 L -88.075469 14.17275 " transform="matrix(1,0,0,-1,120.97,46.704)"/>
<path style="fill:none;stroke-width:0.3985;stroke-linecap:butt;stroke-linejoin:miter;stroke:rgb(0%,0%,0%);stroke-opacity:1;stroke-miterlimit:10;" d="M -96.180937 -7.085063 L -73.899687 -7.085063 " transform="matrix(1,0,0,-1,120.97,46.704)"/>
<path style="fill:none;stroke-width:0.3985;stroke-linecap:butt;stroke-linejoin:miter;stroke:rgb(0%,0%,0%);stroke-opacity:1;stroke-miterlimit:10;" d="M -67.833281 14.17275 L -59.727812 14.17275 " transform="matrix(1,0,0,-1,120.97,46.704)"/>
<path style="fill:none;stroke-width:0.3985;stroke-linecap:butt;stroke-linejoin:miter;stroke:rgb(0%,0%,0%);stroke-opacity:1;stroke-miterlimit:10;" d="M -39.485625 -7.085063 L -3.0325 -7.085063 " transform="matrix(1,0,0,-1,120.97,46.704)"/>
<path style="fill:none;stroke-width:0.3985;stroke-linecap:butt;stroke-linejoin:miter;stroke:rgb(0%,0%,0%);stroke-opacity:1;stroke-miterlimit:10;" d="M -53.661406 14.17275 L -45.555937 14.17275 " transform="matrix(1,0,0,-1,120.97,46.704)"/>
<path style="fill:none;stroke-width:0.3985;stroke-linecap:butt;stroke-linejoin:miter;stroke:rgb(0%,0%,0%);stroke-opacity:1;stroke-miterlimit:10;" d="M 3.033906 14.17275 L 11.139375 14.17275 " transform="matrix(1,0,0,-1,120.97,46.704)"/>
<path style="fill:none;stroke-width:0.3985;stroke-linecap:butt;stroke-linejoin:miter;stroke:rgb(0%,0%,0%);stroke-opacity:1;stroke-miterlimit:10;" d="M 17.205781 14.17275 L 25.31125 14.17275 " transform="matrix(1,0,0,-1,120.97,46.704)"/>
<path style="fill:none;stroke-width:0.3985;stroke-linecap:butt;stroke-linejoin:miter;stroke:rgb(0%,0%,0%);stroke-opacity:1;stroke-miterlimit:10;" d="M 45.553438 14.17275 L 53.658906 14.17275 " transform="matrix(1,0,0,-1,120.97,46.704)"/>
<path style="fill:none;stroke-width:0.3985;stroke-linecap:butt;stroke-linejoin:miter;stroke:rgb(0%,0%,0%);stroke-opacity:1;stroke-miterlimit:10;" d="M 31.381563 -7.085063 L 53.658906 -7.085063 " transform="matrix(1,0,0,-1,120.97,46.704)"/>
<path style="fill-rule:nonzero;fill:rgb(86.66687%,100%,86.66687%);fill-opacity:1;stroke-width:0.3985;stroke-linecap:butt;stroke-linejoin:miter;stroke:rgb(0%,0%,0%);stroke-opacity:1;stroke-miterlimit:10;" d="M 59.53 14.17275 C 59.53 15.739156 58.260469 17.008687 56.694063 17.008687 C 55.127656 17.008687 53.858125 15.739156 53.858125 14.17275 C 53.858125 12.606344 55.127656 11.336812 56.694063 11.336812 C 58.260469 11.336812 59.53 12.606344 59.53 14.17275 Z M 59.53 14.17275 " transform="matrix(1,0,0,-1,120.97,46.704)"/>
<path style="fill:none;stroke-width:0.3985;stroke-linecap:butt;stroke-linejoin:miter;stroke:rgb(0%,0%,0%);stroke-opacity:1;stroke-miterlimit:10;" d="M 0.0010625 2.145437 L 0.0010625 0.00090625 " transform="matrix(1,0,0,-1,177.663,42.872)"/>
<path style="fill:none;stroke-width:0.3985;stroke-linecap:butt;stroke-linejoin:miter;stroke:rgb(0%,0%,0%);stroke-opacity:1;stroke-miterlimit:10;" d="M -3.487219 -0.108469 L 3.485437 -0.108469 M -2.323156 -1.417063 L 2.325281 -1.417063 M -1.163 -2.72175 L 1.161219 -2.72175 " transform="matrix(1,0,0,-1,177.663,42.872)"/>
<path style="fill-rule:nonzero;fill:rgb(86.66687%,100%,86.66687%);fill-opacity:1;stroke-width:0.3985;stroke-linecap:butt;stroke-linejoin:miter;stroke:rgb(0%,0%,0%);stroke-opacity:1;stroke-miterlimit:10;" d="M -110.552031 14.17275 C -110.552031 15.739156 -111.821562 17.008687 -113.387969 17.008687 C -114.954375 17.008687 -116.22 15.739156 -116.22 14.17275 C -116.22 12.606344 -114.954375 11.336812 -113.387969 11.336812 C -111.821562 11.336812 -110.552031 12.606344 -110.552031 14.17275 Z M -110.552031 14.17275 " transform="matrix(1,0,0,-1,120.97,46.704)"/>
<path style="fill-rule:nonzero;fill:rgb(86.66687%,100%,86.66687%);fill-opacity:1;stroke-width:0.3985;stroke-linecap:butt;stroke-linejoin:miter;stroke:rgb(0%,0%,0%);stroke-opacity:1;stroke-miterlimit:10;" d="M -110.552031 -7.085063 C -110.552031 -5.522563 -111.821562 -4.253031 -113.387969 -4.253031 C -114.954375 -4.253031 -116.22 -5.522563 -116.22 -7.085063 C -116.22 -8.651469 -114.954375 -9.921 -113.387969 -9.921 C -111.821562 -9.921 -110.552031 -8.651469 -110.552031 -7.085063 Z M -110.552031 -7.085063 " transform="matrix(1,0,0,-1,120.97,46.704)"/>
<path style="fill-rule:nonzero;fill:rgb(86.66687%,100%,86.66687%);fill-opacity:1;stroke-width:0.3985;stroke-linecap:butt;stroke-linejoin:miter;stroke:rgb(0%,0%,0%);stroke-opacity:1;stroke-miterlimit:10;" d="M -96.380156 14.17275 C -96.380156 15.739156 -97.649687 17.008687 -99.212187 17.008687 C -100.778594 17.008687 -102.048125 15.739156 -102.048125 14.17275 C -102.048125 12.606344 -100.778594 11.336812 -99.212187 11.336812 C -97.649687 11.336812 -96.380156 12.606344 -96.380156 14.17275 Z M -96.380156 14.17275 " transform="matrix(1,0,0,-1,120.97,46.704)"/>
<path style="fill-rule:nonzero;fill:rgb(86.66687%,100%,86.66687%);fill-opacity:1;stroke-width:0.3985;stroke-linecap:butt;stroke-linejoin:miter;stroke:rgb(0%,0%,0%);stroke-opacity:1;stroke-miterlimit:10;" d="M -96.380156 -7.085063 C -96.380156 -5.522563 -97.649687 -4.253031 -99.212187 -4.253031 C -100.778594 -4.253031 -102.048125 -5.522563 -102.048125 -7.085063 C -102.048125 -8.651469 -100.778594 -9.921 -99.212187 -9.921 C -97.649687 -9.921 -96.380156 -8.651469 -96.380156 -7.085063 Z M -96.380156 -7.085063 " transform="matrix(1,0,0,-1,120.97,46.704)"/>
<path style="fill-rule:nonzero;fill:rgb(86.66687%,100%,86.66687%);fill-opacity:1;stroke-width:0.3985;stroke-linecap:butt;stroke-linejoin:miter;stroke:rgb(0%,0%,0%);stroke-opacity:1;stroke-miterlimit:10;" d="M -53.860625 14.17275 C -53.860625 15.739156 -55.12625 17.008687 -56.692656 17.008687 C -58.259062 17.008687 -59.528594 15.739156 -59.528594 14.17275 C -59.528594 12.606344 -58.259062 11.336812 -56.692656 11.336812 C -55.12625 11.336812 -53.860625 12.606344 -53.860625 14.17275 Z M -53.860625 14.17275 " transform="matrix(1,0,0,-1,120.97,46.704)"/>
<path style="fill-rule:nonzero;fill:rgb(86.66687%,100%,86.66687%);fill-opacity:1;stroke-width:0.3985;stroke-linecap:butt;stroke-linejoin:miter;stroke:rgb(0%,0%,0%);stroke-opacity:1;stroke-miterlimit:10;" d="M -53.860625 -7.085063 C -53.860625 -5.522563 -55.12625 -4.253031 -56.692656 -4.253031 C -58.259062 -4.253031 -59.528594 -5.522563 -59.528594 -7.085063 C -59.528594 -8.651469 -58.259062 -9.921 -56.692656 -9.921 C -55.12625 -9.921 -53.860625 -8.651469 -53.860625 -7.085063 Z M -53.860625 -7.085063 " transform="matrix(1,0,0,-1,120.97,46.704)"/>
<path style="fill-rule:nonzero;fill:rgb(86.66687%,100%,86.66687%);fill-opacity:1;stroke-width:0.3985;stroke-linecap:butt;stroke-linejoin:miter;stroke:rgb(0%,0%,0%);stroke-opacity:1;stroke-miterlimit:10;" d="M -39.684844 -7.085063 C -39.684844 -5.522563 -40.954375 -4.253031 -42.520781 -4.253031 C -44.087187 -4.253031 -45.356719 -5.522563 -45.356719 -7.085063 C -45.356719 -8.651469 -44.087187 -9.921 -42.520781 -9.921 C -40.954375 -9.921 -39.684844 -8.651469 -39.684844 -7.085063 Z M -39.684844 -7.085063 " transform="matrix(1,0,0,-1,120.97,46.704)"/>
<path style="fill-rule:nonzero;fill:rgb(86.66687%,100%,86.66687%);fill-opacity:1;stroke-width:0.3985;stroke-linecap:butt;stroke-linejoin:miter;stroke:rgb(0%,0%,0%);stroke-opacity:1;stroke-miterlimit:10;" d="M -25.512969 14.17275 C -25.512969 15.739156 -26.7825 17.008687 -28.345 17.008687 C -29.911406 17.008687 -31.180937 15.739156 -31.180937 14.17275 C -31.180937 12.606344 -29.911406 11.336812 -28.345 11.336812 C -26.7825 11.336812 -25.512969 12.606344 -25.512969 14.17275 Z M -25.512969 14.17275 " transform="matrix(1,0,0,-1,120.97,46.704)"/>
<path style="fill-rule:nonzero;fill:rgb(86.66687%,100%,86.66687%);fill-opacity:1;stroke-width:0.3985;stroke-linecap:butt;stroke-linejoin:miter;stroke:rgb(0%,0%,0%);stroke-opacity:1;stroke-miterlimit:10;" d="M -25.512969 28.348531 C -25.512969 29.911031 -26.7825 31.180562 -28.345 31.180562 C -29.911406 31.180562 -31.180937 29.911031 -31.180937 28.348531 C -31.180937 26.782125 -29.911406 25.512594 -28.345 25.512594 C -26.7825 25.512594 -25.512969 26.782125 -25.512969 28.348531 Z M -25.512969 28.348531 " transform="matrix(1,0,0,-1,120.97,46.704)"/>
<path style="fill:none;stroke-width:0.3985;stroke-linecap:butt;stroke-linejoin:miter;stroke:rgb(0%,0%,0%);stroke-opacity:1;stroke-miterlimit:10;" d="M 0.00153125 2.143687 L 0.00153125 -0.00084375 " transform="matrix(0,-1,-1,0,102.964,18.357)"/>
<path style="fill:none;stroke-width:0.3985;stroke-linecap:butt;stroke-linejoin:miter;stroke:rgb(0%,0%,0%);stroke-opacity:1;stroke-miterlimit:10;" d="M -3.48675 -0.106313 L 3.485906 -0.106313 M -2.326594 -1.414906 L 2.32575 -1.414906 M -1.162531 -2.7235 L 1.161687 -2.7235 " transform="matrix(0,-1,-1,0,102.964,18.357)"/>
<path style="fill-rule:nonzero;fill:rgb(86.66687%,100%,86.66687%);fill-opacity:1;stroke-width:0.3985;stroke-linecap:butt;stroke-linejoin:miter;stroke:rgb(0%,0%,0%);stroke-opacity:1;stroke-miterlimit:10;" d="M 2.834688 42.520406 C 2.834688 44.086812 1.565156 45.356344 -0.00125 45.356344 C -1.56375 45.356344 -2.833281 44.086812 -2.833281 42.520406 C -2.833281 40.954 -1.56375 39.684469 -0.00125 39.684469 C 1.565156 39.684469 2.834688 40.954 2.834688 42.520406 Z M 2.834688 42.520406 " transform="matrix(1,0,0,-1,120.97,46.704)"/>
<path style="fill:none;stroke-width:0.3985;stroke-linecap:butt;stroke-linejoin:miter;stroke:rgb(0%,0%,0%);stroke-opacity:1;stroke-miterlimit:10;" d="M 0.00140625 2.143031 L 0.00140625 -0.0015 " transform="matrix(0,-1,-1,0,131.311,4.185)"/>
<path style="fill:none;stroke-width:0.3985;stroke-linecap:butt;stroke-linejoin:miter;stroke:rgb(0%,0%,0%);stroke-opacity:1;stroke-miterlimit:10;" d="M -3.486875 -0.106969 L 3.485781 -0.106969 M -2.322813 -1.415563 L 2.325625 -1.415563 M -1.162656 -2.724156 L 1.161562 -2.724156 " transform="matrix(0,-1,-1,0,131.311,4.185)"/>
<path style="fill-rule:nonzero;fill:rgb(86.66687%,100%,86.66687%);fill-opacity:1;stroke-width:0.3985;stroke-linecap:butt;stroke-linejoin:miter;stroke:rgb(0%,0%,0%);stroke-opacity:1;stroke-miterlimit:10;" d="M 59.53 -7.085063 C 59.53 -5.522563 58.260469 -4.253031 56.694063 -4.253031 C 55.127656 -4.253031 53.858125 -5.522563 53.858125 -7.085063 C 53.858125 -8.651469 55.127656 -9.921 56.694063 -9.921 C 58.260469 -9.921 59.53 -8.651469 59.53 -7.085063 Z M 59.53 -7.085063 " transform="matrix(1,0,0,-1,120.97,46.704)"/>
<path style="fill:none;stroke-width:0.3985;stroke-linecap:butt;stroke-linejoin:miter;stroke:rgb(0%,0%,0%);stroke-opacity:1;stroke-miterlimit:10;" d="M 0.0010625 2.146625 L 0.0010625 -0.0018125 " transform="matrix(1,0,0,-1,177.663,64.131)"/>
<g clip-path="url(#clip3)" clip-rule="nonzero">
<path style="fill:none;stroke-width:0.3985;stroke-linecap:butt;stroke-linejoin:miter;stroke:rgb(0%,0%,0%);stroke-opacity:1;stroke-miterlimit:10;" d="M -3.487219 -0.107281 L 3.485437 -0.107281 M -2.323156 -1.415875 L 2.325281 -1.415875 M -1.163 -2.724469 L 1.161219 -2.724469 " transform="matrix(1,0,0,-1,177.663,64.131)"/>
</g>
<path style="fill-rule:nonzero;fill:rgb(86.66687%,100%,86.66687%);fill-opacity:1;stroke-width:0.3985;stroke-linecap:butt;stroke-linejoin:miter;stroke:rgb(0%,0%,0%);stroke-opacity:1;stroke-miterlimit:10;" d="M 59.53 -7.085063 C 59.53 -5.522563 58.260469 -4.253031 56.694063 -4.253031 C 55.127656 -4.253031 53.858125 -5.522563 53.858125 -7.085063 C 53.858125 -8.651469 55.127656 -9.921 56.694063 -9.921 C 58.260469 -9.921 59.53 -8.651469 59.53 -7.085063 Z M 59.53 -7.085063 " transform="matrix(1,0,0,-1,120.97,46.704)"/>
<path style="fill-rule:nonzero;fill:rgb(86.66687%,100%,86.66687%);fill-opacity:1;stroke-width:0.3985;stroke-linecap:butt;stroke-linejoin:miter;stroke:rgb(0%,0%,0%);stroke-opacity:1;stroke-miterlimit:10;" d="M 59.53 -7.085063 C 59.53 -5.522563 58.260469 -4.253031 56.694063 -4.253031 C 55.127656 -4.253031 53.858125 -5.522563 53.858125 -7.085063 C 53.858125 -8.651469 55.127656 -9.921 56.694063 -9.921 C 58.260469 -9.921 59.53 -8.651469 59.53 -7.085063 Z M 59.53 -7.085063 " transform="matrix(1,0,0,-1,120.97,46.704)"/>
<path style="fill-rule:nonzero;fill:rgb(86.66687%,100%,86.66687%);fill-opacity:1;stroke-width:0.3985;stroke-linecap:butt;stroke-linejoin:miter;stroke:rgb(0%,0%,0%);stroke-opacity:1;stroke-miterlimit:10;" d="M -68.0325 -7.085063 C -68.0325 -5.522563 -69.302031 -4.253031 -70.868437 -4.253031 C -72.430937 -4.253031 -73.700469 -5.522563 -73.700469 -7.085063 C -73.700469 -8.651469 -72.430937 -9.921 -70.868437 -9.921 C -69.302031 -9.921 -68.0325 -8.651469 -68.0325 -7.085063 Z M -68.0325 -7.085063 " transform="matrix(1,0,0,-1,120.97,46.704)"/>
<path style="fill-rule:nonzero;fill:rgb(86.66687%,100%,86.66687%);fill-opacity:1;stroke-width:0.3985;stroke-linecap:butt;stroke-linejoin:miter;stroke:rgb(0%,0%,0%);stroke-opacity:1;stroke-miterlimit:10;" d="M -82.204375 14.17275 C -82.204375 15.739156 -83.473906 17.008687 -85.040312 17.008687 C -86.606719 17.008687 -87.87625 15.739156 -87.87625 14.17275 C -87.87625 12.606344 -86.606719 11.336812 -85.040312 11.336812 C -83.473906 11.336812 -82.204375 12.606344 -82.204375 14.17275 Z M -82.204375 14.17275 " transform="matrix(1,0,0,-1,120.97,46.704)"/>
<path style="fill-rule:nonzero;fill:rgb(86.66687%,100%,86.66687%);fill-opacity:1;stroke-width:0.3985;stroke-linecap:butt;stroke-linejoin:miter;stroke:rgb(0%,0%,0%);stroke-opacity:1;stroke-miterlimit:10;" d="M -68.0325 14.17275 C -68.0325 15.739156 -69.302031 17.008687 -70.868437 17.008687 C -72.430937 17.008687 -73.700469 15.739156 -73.700469 14.17275 C -73.700469 12.606344 -72.430937 11.336812 -70.868437 11.336812 C -69.302031 11.336812 -68.0325 12.606344 -68.0325 14.17275 Z M -68.0325 14.17275 " transform="matrix(1,0,0,-1,120.97,46.704)"/>
<path style="fill-rule:nonzero;fill:rgb(86.66687%,100%,86.66687%);fill-opacity:1;stroke-width:0.3985;stroke-linecap:butt;stroke-linejoin:miter;stroke:rgb(0%,0%,0%);stroke-opacity:1;stroke-miterlimit:10;" d="M -39.684844 14.17275 C -39.684844 15.739156 -40.954375 17.008687 -42.520781 17.008687 C -44.087187 17.008687 -45.356719 15.739156 -45.356719 14.17275 C -45.356719 12.606344 -44.087187 11.336812 -42.520781 11.336812 C -40.954375 11.336812 -39.684844 12.606344 -39.684844 14.17275 Z M -39.684844 14.17275 " transform="matrix(1,0,0,-1,120.97,46.704)"/>
<path style="fill-rule:nonzero;fill:rgb(86.66687%,100%,86.66687%);fill-opacity:1;stroke-width:0.3985;stroke-linecap:butt;stroke-linejoin:miter;stroke:rgb(0%,0%,0%);stroke-opacity:1;stroke-miterlimit:10;" d="M -11.337187 14.17275 C -11.337187 15.739156 -12.606719 17.008687 -14.173125 17.008687 C -15.739531 17.008687 -17.009062 15.739156 -17.009062 14.17275 C -17.009062 12.606344 -15.739531 11.336812 -14.173125 11.336812 C -12.606719 11.336812 -11.337187 12.606344 -11.337187 14.17275 Z M -11.337187 14.17275 " transform="matrix(1,0,0,-1,120.97,46.704)"/>
<path style="fill-rule:nonzero;fill:rgb(86.66687%,100%,86.66687%);fill-opacity:1;stroke-width:0.3985;stroke-linecap:butt;stroke-linejoin:miter;stroke:rgb(0%,0%,0%);stroke-opacity:1;stroke-miterlimit:10;" d="M 2.834688 14.17275 C 2.834688 15.739156 1.565156 17.008687 -0.00125 17.008687 C -1.56375 17.008687 -2.833281 15.739156 -2.833281 14.17275 C -2.833281 12.606344 -1.56375 11.336812 -0.00125 11.336812 C 1.565156 11.336812 2.834688 12.606344 2.834688 14.17275 Z M 2.834688 14.17275 " transform="matrix(1,0,0,-1,120.97,46.704)"/>
<path style="fill-rule:nonzero;fill:rgb(86.66687%,100%,86.66687%);fill-opacity:1;stroke-width:0.3985;stroke-linecap:butt;stroke-linejoin:miter;stroke:rgb(0%,0%,0%);stroke-opacity:1;stroke-miterlimit:10;" d="M 17.006563 14.17275 C 17.006563 15.739156 15.737031 17.008687 14.174531 17.008687 C 12.608125 17.008687 11.338594 15.739156 11.338594 14.17275 C 11.338594 12.606344 12.608125 11.336812 14.174531 11.336812 C 15.737031 11.336812 17.006563 12.606344 17.006563 14.17275 Z M 17.006563 14.17275 " transform="matrix(1,0,0,-1,120.97,46.704)"/>
<path style="fill-rule:nonzero;fill:rgb(86.66687%,100%,86.66687%);fill-opacity:1;stroke-width:0.3985;stroke-linecap:butt;stroke-linejoin:miter;stroke:rgb(0%,0%,0%);stroke-opacity:1;stroke-miterlimit:10;" d="M 17.006563 -7.085063 C 17.006563 -5.522563 15.737031 -4.253031 14.174531 -4.253031 C 12.608125 -4.253031 11.338594 -5.522563 11.338594 -7.085063 C 11.338594 -8.651469 12.608125 -9.921 14.174531 -9.921 C 15.737031 -9.921 17.006563 -8.651469 17.006563 -7.085063 Z M 17.006563 -7.085063 " transform="matrix(1,0,0,-1,120.97,46.704)"/>
<path style="fill-rule:nonzero;fill:rgb(86.66687%,100%,86.66687%);fill-opacity:1;stroke-width:0.3985;stroke-linecap:butt;stroke-linejoin:miter;stroke:rgb(0%,0%,0%);stroke-opacity:1;stroke-miterlimit:10;" d="M 2.834688 -7.085063 C 2.834688 -5.522563 1.565156 -4.253031 -0.00125 -4.253031 C -1.56375 -4.253031 -2.833281 -5.522563 -2.833281 -7.085063 C -2.833281 -8.651469 -1.56375 -9.921 -0.00125 -9.921 C 1.565156 -9.921 2.834688 -8.651469 2.834688 -7.085063 Z M 2.834688 -7.085063 " transform="matrix(1,0,0,-1,120.97,46.704)"/>
<path style="fill-rule:nonzero;fill:rgb(86.66687%,100%,86.66687%);fill-opacity:1;stroke-width:0.3985;stroke-linecap:butt;stroke-linejoin:miter;stroke:rgb(0%,0%,0%);stroke-opacity:1;stroke-miterlimit:10;" d="M 31.182344 -7.085063 C 31.182344 -5.522563 29.912813 -4.253031 28.346406 -4.253031 C 26.78 -4.253031 25.510469 -5.522563 25.510469 -7.085063 C 25.510469 -8.651469 26.78 -9.921 28.346406 -9.921 C 29.912813 -9.921 31.182344 -8.651469 31.182344 -7.085063 Z M 31.182344 -7.085063 " transform="matrix(1,0,0,-1,120.97,46.704)"/>
<path style="fill-rule:nonzero;fill:rgb(86.66687%,100%,86.66687%);fill-opacity:1;stroke-width:0.3985;stroke-linecap:butt;stroke-linejoin:miter;stroke:rgb(0%,0%,0%);stroke-opacity:1;stroke-miterlimit:10;" d="M 31.182344 14.17275 C 31.182344 15.739156 29.912813 17.008687 28.346406 17.008687 C 26.78 17.008687 25.510469 15.739156 25.510469 14.17275 C 25.510469 12.606344 26.78 11.336812 28.346406 11.336812 C 29.912813 11.336812 31.182344 12.606344 31.182344 14.17275 Z M 31.182344 14.17275 " transform="matrix(1,0,0,-1,120.97,46.704)"/>
<path style="fill-rule:nonzero;fill:rgb(86.66687%,100%,86.66687%);fill-opacity:1;stroke-width:0.3985;stroke-linecap:butt;stroke-linejoin:miter;stroke:rgb(0%,0%,0%);stroke-opacity:1;stroke-miterlimit:10;" d="M 45.354219 14.17275 C 45.354219 15.739156 44.084688 17.008687 42.518281 17.008687 C 40.955781 17.008687 39.68625 15.739156 39.68625 14.17275 C 39.68625 12.606344 40.955781 11.336812 42.518281 11.336812 C 44.084688 11.336812 45.354219 12.606344 45.354219 14.17275 Z M 45.354219 14.17275 " transform="matrix(1,0,0,-1,120.97,46.704)"/>
</g>
</svg>
