<?xml version="1.0" encoding="UTF-8"?>
<svg xmlns="http://www.w3.org/2000/svg" xmlns:xlink="http://www.w3.org/1999/xlink" width="142.728pt" height="67.552pt" viewBox="0 0 142.728 67.552" version="1.1">
<defs>
<clipPath id="clip1">
  <path d="M 130 32 L 142.726562 32 L 142.726562 33 L 130 33 Z M 130 32 "/>
</clipPath>
<clipPath id="clip2">
  <path d="M 130 53 L 142.726562 53 L 142.726562 54 L 130 54 Z M 130 53 "/>
</clipPath>
<clipPath id="clip3">
  <path d="M 96 64 L 104 64 L 104 67.550781 L 96 67.550781 Z M 96 64 "/>
</clipPath>
</defs>
<g id="surface1">
<path style="fill:none;stroke-width:0.3985;stroke-linecap:butt;stroke-linejoin:miter;stroke:rgb(0%,0%,0%);stroke-opacity:1;stroke-miterlimit:10;" d="M 21.259937 3.543844 L 21.259937 11.137594 " transform="matrix(1,0,0,-1,78.451,46.704)"/>
<path style="fill:none;stroke-width:0.79701;stroke-linecap:butt;stroke-linejoin:miter;stroke:rgb(26.667786%,53.33252%,100%);stroke-opacity:1;stroke-dasharray:1.99255,0.49814;stroke-miterlimit:10;" d="M -67.833813 14.17275 L -59.728344 14.17275 " transform="matrix(1,0,0,-1,78.451,46.704)"/>
<path style="fill:none;stroke-width:0.79701;stroke-linecap:butt;stroke-linejoin:miter;stroke:rgb(26.667786%,53.33252%,100%);stroke-opacity:1;stroke-dasharray:1.99255,0.49814;stroke-miterlimit:10;" d="M -67.833813 -7.085063 L -59.728344 -7.085063 " transform="matrix(1,0,0,-1,78.451,46.704)"/>
<path style="fill:none;stroke-width:0.79701;stroke-linecap:butt;stroke-linejoin:miter;stroke:rgb(26.667786%,53.33252%,100%);stroke-opacity:1;stroke-dasharray:1.99255,0.49814;stroke-miterlimit:10;" d="M -53.658031 14.17275 L -45.552563 14.17275 " transform="matrix(1,0,0,-1,78.451,46.704)"/>
<path style="fill:none;stroke-width:0.79701;stroke-linecap:butt;stroke-linejoin:miter;stroke:rgb(26.667786%,53.33252%,100%);stroke-opacity:1;stroke-dasharray:1.99255,0.49814;stroke-miterlimit:10;" d="M -53.658031 -7.085063 L -45.552563 -7.085063 " transform="matrix(1,0,0,-1,78.451,46.704)"/>
<path style="fill:none;stroke-width:0.79701;stroke-linecap:butt;stroke-linejoin:miter;stroke:rgb(26.667786%,53.33252%,100%);stroke-opacity:1;stroke-dasharray:1.99255,0.49814;stroke-miterlimit:10;" d="M -39.486156 -7.085063 L -31.380688 -7.085063 " transform="matrix(1,0,0,-1,78.451,46.704)"/>
<path style="fill:none;stroke-width:0.79701;stroke-linecap:butt;stroke-linejoin:miter;stroke:rgb(26.667786%,53.33252%,100%);stroke-opacity:1;stroke-dasharray:1.99255,0.49814;stroke-miterlimit:10;" d="M -42.521313 -4.053813 L -42.521313 11.137594 " transform="matrix(1,0,0,-1,78.451,46.704)"/>
<path style="fill:none;stroke-width:0.3985;stroke-linecap:butt;stroke-linejoin:miter;stroke:rgb(0%,0%,0%);stroke-opacity:1;stroke-miterlimit:10;" d="M -25.314281 28.348531 L -17.716625 28.348531 " transform="matrix(1,0,0,-1,78.451,46.704)"/>
<path style="fill:none;stroke-width:0.79701;stroke-linecap:butt;stroke-linejoin:miter;stroke:rgb(26.667786%,53.33252%,100%);stroke-opacity:1;stroke-dasharray:1.99255,0.49814;stroke-miterlimit:10;" d="M -28.345531 25.313375 L -28.345531 17.207906 " transform="matrix(1,0,0,-1,78.451,46.704)"/>
<path style="fill:none;stroke-width:0.3985;stroke-linecap:butt;stroke-linejoin:miter;stroke:rgb(0%,0%,0%);stroke-opacity:1;stroke-miterlimit:10;" d="M 3.033375 42.520406 L 10.631031 42.520406 " transform="matrix(1,0,0,-1,78.451,46.704)"/>
<path style="fill:none;stroke-width:0.79701;stroke-linecap:butt;stroke-linejoin:miter;stroke:rgb(26.667786%,53.33252%,100%);stroke-opacity:1;stroke-dasharray:1.99255,0.49814;stroke-miterlimit:10;" d="M -0.00178125 39.48525 L -0.00178125 17.207906 " transform="matrix(1,0,0,-1,78.451,46.704)"/>
<path style="fill:none;stroke-width:0.79701;stroke-linecap:butt;stroke-linejoin:miter;stroke:rgb(26.667786%,53.33252%,100%);stroke-opacity:1;stroke-dasharray:1.99255,0.49814;stroke-miterlimit:10;" d="M -25.314281 -7.085063 L -3.033031 -7.085063 " transform="matrix(1,0,0,-1,78.451,46.704)"/>
<path style="fill:none;stroke-width:0.79701;stroke-linecap:butt;stroke-linejoin:miter;stroke:rgb(26.667786%,53.33252%,100%);stroke-opacity:1;stroke-dasharray:1.99255,0.49814;stroke-miterlimit:10;" d="M -0.00178125 11.137594 L -0.00178125 -4.053813 " transform="matrix(1,0,0,-1,78.451,46.704)"/>
<path style="fill:none;stroke-width:0.79701;stroke-linecap:butt;stroke-linejoin:miter;stroke:rgb(26.667786%,53.33252%,100%);stroke-opacity:1;stroke-dasharray:1.99255,0.49814;stroke-miterlimit:10;" d="M 3.033375 14.17275 L 18.224781 14.17275 " transform="matrix(1,0,0,-1,78.451,46.704)"/>
<path style="fill:none;stroke-width:0.3985;stroke-linecap:butt;stroke-linejoin:miter;stroke:rgb(0%,0%,0%);stroke-opacity:1;stroke-miterlimit:10;" d="M 21.259937 -17.717875 L 21.259937 -10.120219 " transform="matrix(1,0,0,-1,78.451,46.704)"/>
<path style="fill:none;stroke-width:0.79701;stroke-linecap:butt;stroke-linejoin:miter;stroke:rgb(26.667786%,53.33252%,100%);stroke-opacity:1;stroke-dasharray:1.99255,0.49814;stroke-miterlimit:10;" d="M 3.033375 -7.085063 L 18.224781 -7.085063 " transform="matrix(1,0,0,-1,78.451,46.704)"/>
<path style="fill:none;stroke-width:0.79701;stroke-linecap:butt;stroke-linejoin:miter;stroke:rgb(26.667786%,53.33252%,100%);stroke-opacity:1;stroke-dasharray:1.99255,0.49814;stroke-miterlimit:10;" d="M -39.486156 14.17275 L -31.380688 14.17275 " transform="matrix(1,0,0,-1,78.451,46.704)"/>
<path style="fill:none;stroke-width:0.79701;stroke-linecap:butt;stroke-linejoin:miter;stroke:rgb(26.667786%,53.33252%,100%);stroke-opacity:1;stroke-dasharray:1.99255,0.49814;stroke-miterlimit:10;" d="M -25.314281 14.17275 L -3.033031 14.17275 " transform="matrix(1,0,0,-1,78.451,46.704)"/>
<path style="fill:none;stroke-width:0.3985;stroke-linecap:butt;stroke-linejoin:miter;stroke:rgb(0%,0%,0%);stroke-opacity:1;stroke-miterlimit:10;" d="M -77.954906 42.520406 L -59.728344 42.520406 " transform="matrix(1,0,0,-1,78.451,46.704)"/>
<path style="fill:none;stroke-width:0.3985;stroke-linecap:butt;stroke-linejoin:miter;stroke:rgb(0%,0%,0%);stroke-opacity:1;stroke-miterlimit:10;" d="M -77.954906 28.348531 L -59.728344 28.348531 " transform="matrix(1,0,0,-1,78.451,46.704)"/>
<path style="fill:none;stroke-width:0.79701;stroke-linecap:butt;stroke-linejoin:miter;stroke:rgb(26.667786%,53.33252%,100%);stroke-opacity:1;stroke-dasharray:1.99255,0.49814;stroke-miterlimit:10;" d="M -53.658031 28.348531 L -45.552563 28.348531 " transform="matrix(1,0,0,-1,78.451,46.704)"/>
<path style="fill:none;stroke-width:0.79701;stroke-linecap:butt;stroke-linejoin:miter;stroke:rgb(26.667786%,53.33252%,100%);stroke-opacity:1;stroke-dasharray:1.99255,0.49814;stroke-miterlimit:10;" d="M -39.486156 28.348531 L -31.380688 28.348531 " transform="matrix(1,0,0,-1,78.451,46.704)"/>
<path style="fill:none;stroke-width:0.79701;stroke-linecap:butt;stroke-linejoin:miter;stroke:rgb(26.667786%,53.33252%,100%);stroke-opacity:1;stroke-dasharray:1.99255,0.49814;stroke-miterlimit:10;" d="M -53.658031 42.520406 L -45.552563 42.520406 " transform="matrix(1,0,0,-1,78.451,46.704)"/>
<path style="fill:none;stroke-width:0.79701;stroke-linecap:butt;stroke-linejoin:miter;stroke:rgb(26.667786%,53.33252%,100%);stroke-opacity:1;stroke-dasharray:1.99255,0.49814;stroke-miterlimit:10;" d="M -39.486156 42.520406 L -3.033031 42.520406 " transform="matrix(1,0,0,-1,78.451,46.704)"/>
<path style="fill:none;stroke-width:0.79701;stroke-linecap:butt;stroke-linejoin:miter;stroke:rgb(26.667786%,53.33252%,100%);stroke-opacity:1;stroke-dasharray:1.99255,0.49814;stroke-miterlimit:10;" d="M 24.295094 -7.085063 L 32.400562 -7.085063 " transform="matrix(1,0,0,-1,78.451,46.704)"/>
<path style="fill:none;stroke-width:0.79701;stroke-linecap:butt;stroke-linejoin:miter;stroke:rgb(26.667786%,53.33252%,100%);stroke-opacity:1;stroke-dasharray:1.99255,0.49814;stroke-miterlimit:10;" d="M 38.466969 -7.085063 L 46.572437 -7.085063 " transform="matrix(1,0,0,-1,78.451,46.704)"/>
<path style="fill:none;stroke-width:0.79701;stroke-linecap:butt;stroke-linejoin:miter;stroke:rgb(26.667786%,53.33252%,100%);stroke-opacity:1;stroke-dasharray:1.99255,0.49814;stroke-miterlimit:10;" d="M 24.295094 14.17275 L 32.400562 14.17275 " transform="matrix(1,0,0,-1,78.451,46.704)"/>
<path style="fill:none;stroke-width:0.79701;stroke-linecap:butt;stroke-linejoin:miter;stroke:rgb(26.667786%,53.33252%,100%);stroke-opacity:1;stroke-dasharray:1.99255,0.49814;stroke-miterlimit:10;" d="M 38.466969 14.17275 L 46.572437 14.17275 " transform="matrix(1,0,0,-1,78.451,46.704)"/>
<g clip-path="url(#clip1)" clip-rule="nonzero">
<path style="fill:none;stroke-width:0.3985;stroke-linecap:butt;stroke-linejoin:miter;stroke:rgb(0%,0%,0%);stroke-opacity:1;stroke-miterlimit:10;" d="M 52.64275 14.17275 L 63.779469 14.17275 " transform="matrix(1,0,0,-1,78.451,46.704)"/>
</g>
<g clip-path="url(#clip2)" clip-rule="nonzero">
<path style="fill:none;stroke-width:0.3985;stroke-linecap:butt;stroke-linejoin:miter;stroke:rgb(0%,0%,0%);stroke-opacity:1;stroke-miterlimit:10;" d="M 52.64275 -7.085063 L 63.779469 -7.085063 " transform="matrix(1,0,0,-1,78.451,46.704)"/>
</g>
<path style="fill-rule:nonzero;fill:rgb(86.66687%,100%,86.66687%);fill-opacity:1;stroke-width:0.3985;stroke-linecap:butt;stroke-linejoin:miter;stroke:rgb(0%,0%,0%);stroke-opacity:1;stroke-miterlimit:10;" d="M 24.095875 14.17275 C 24.095875 15.739156 22.826344 17.008687 21.259937 17.008687 C 19.693531 17.008687 18.424 15.739156 18.424 14.17275 C 18.424 12.606344 19.693531 11.336812 21.259937 11.336812 C 22.826344 11.336812 24.095875 12.606344 24.095875 14.17275 Z M 24.095875 14.17275 " transform="matrix(1,0,0,-1,78.451,46.704)"/>
<path style="fill:none;stroke-width:0.3985;stroke-linecap:butt;stroke-linejoin:miter;stroke:rgb(0%,0%,0%);stroke-opacity:1;stroke-miterlimit:10;" d="M -0.0000625 2.145437 L -0.0000625 0.00090625 " transform="matrix(1,0,0,-1,99.711,42.872)"/>
<path style="fill:none;stroke-width:0.3985;stroke-linecap:butt;stroke-linejoin:miter;stroke:rgb(0%,0%,0%);stroke-opacity:1;stroke-miterlimit:10;" d="M -3.488344 -0.108469 L 3.488219 -0.108469 M -2.324281 -1.417063 L 2.324156 -1.417063 M -1.164125 -2.72175 L 1.164 -2.72175 " transform="matrix(1,0,0,-1,99.711,42.872)"/>
<path style="fill-rule:nonzero;fill:rgb(86.66687%,100%,86.66687%);fill-opacity:1;stroke-width:0.3985;stroke-linecap:butt;stroke-linejoin:miter;stroke:rgb(0%,0%,0%);stroke-opacity:1;stroke-miterlimit:10;" d="M -68.033031 14.17275 C -68.033031 15.739156 -69.302563 17.008687 -70.865063 17.008687 C -72.431469 17.008687 -73.701 15.739156 -73.701 14.17275 C -73.701 12.606344 -72.431469 11.336812 -70.865063 11.336812 C -69.302563 11.336812 -68.033031 12.606344 -68.033031 14.17275 Z M -68.033031 14.17275 " transform="matrix(1,0,0,-1,78.451,46.704)"/>
<path style="fill-rule:nonzero;fill:rgb(86.66687%,100%,86.66687%);fill-opacity:1;stroke-width:0.3985;stroke-linecap:butt;stroke-linejoin:miter;stroke:rgb(0%,0%,0%);stroke-opacity:1;stroke-miterlimit:10;" d="M -68.033031 -7.085063 C -68.033031 -5.522563 -69.302563 -4.253031 -70.865063 -4.253031 C -72.431469 -4.253031 -73.701 -5.522563 -73.701 -7.085063 C -73.701 -8.651469 -72.431469 -9.921 -70.865063 -9.921 C -69.302563 -9.921 -68.033031 -8.651469 -68.033031 -7.085063 Z M -68.033031 -7.085063 " transform="matrix(1,0,0,-1,78.451,46.704)"/>
<path style="fill-rule:nonzero;fill:rgb(86.66687%,100%,86.66687%);fill-opacity:1;stroke-width:0.3985;stroke-linecap:butt;stroke-linejoin:miter;stroke:rgb(0%,0%,0%);stroke-opacity:1;stroke-miterlimit:10;" d="M -53.85725 14.17275 C -53.85725 15.739156 -55.126781 17.008687 -56.693188 17.008687 C -58.259594 17.008687 -59.529125 15.739156 -59.529125 14.17275 C -59.529125 12.606344 -58.259594 11.336812 -56.693188 11.336812 C -55.126781 11.336812 -53.85725 12.606344 -53.85725 14.17275 Z M -53.85725 14.17275 " transform="matrix(1,0,0,-1,78.451,46.704)"/>
<path style="fill-rule:nonzero;fill:rgb(86.66687%,100%,86.66687%);fill-opacity:1;stroke-width:0.3985;stroke-linecap:butt;stroke-linejoin:miter;stroke:rgb(0%,0%,0%);stroke-opacity:1;stroke-miterlimit:10;" d="M -53.85725 -7.085063 C -53.85725 -5.522563 -55.126781 -4.253031 -56.693188 -4.253031 C -58.259594 -4.253031 -59.529125 -5.522563 -59.529125 -7.085063 C -59.529125 -8.651469 -58.259594 -9.921 -56.693188 -9.921 C -55.126781 -9.921 -53.85725 -8.651469 -53.85725 -7.085063 Z M -53.85725 -7.085063 " transform="matrix(1,0,0,-1,78.451,46.704)"/>
<path style="fill-rule:nonzero;fill:rgb(86.66687%,100%,86.66687%);fill-opacity:1;stroke-width:0.3985;stroke-linecap:butt;stroke-linejoin:miter;stroke:rgb(0%,0%,0%);stroke-opacity:1;stroke-miterlimit:10;" d="M -39.685375 14.17275 C -39.685375 15.739156 -40.954906 17.008687 -42.521313 17.008687 C -44.083813 17.008687 -45.353344 15.739156 -45.353344 14.17275 C -45.353344 12.606344 -44.083813 11.336812 -42.521313 11.336812 C -40.954906 11.336812 -39.685375 12.606344 -39.685375 14.17275 Z M -39.685375 14.17275 " transform="matrix(1,0,0,-1,78.451,46.704)"/>
<path style="fill-rule:nonzero;fill:rgb(86.66687%,100%,86.66687%);fill-opacity:1;stroke-width:0.3985;stroke-linecap:butt;stroke-linejoin:miter;stroke:rgb(0%,0%,0%);stroke-opacity:1;stroke-miterlimit:10;" d="M -39.685375 -7.085063 C -39.685375 -5.522563 -40.954906 -4.253031 -42.521313 -4.253031 C -44.083813 -4.253031 -45.353344 -5.522563 -45.353344 -7.085063 C -45.353344 -8.651469 -44.083813 -9.921 -42.521313 -9.921 C -40.954906 -9.921 -39.685375 -8.651469 -39.685375 -7.085063 Z M -39.685375 -7.085063 " transform="matrix(1,0,0,-1,78.451,46.704)"/>
<path style="fill-rule:nonzero;fill:rgb(86.66687%,100%,86.66687%);fill-opacity:1;stroke-width:0.3985;stroke-linecap:butt;stroke-linejoin:miter;stroke:rgb(0%,0%,0%);stroke-opacity:1;stroke-miterlimit:10;" d="M -25.5135 -7.085063 C -25.5135 -5.522563 -26.783031 -4.253031 -28.345531 -4.253031 C -29.911938 -4.253031 -31.181469 -5.522563 -31.181469 -7.085063 C -31.181469 -8.651469 -29.911938 -9.921 -28.345531 -9.921 C -26.783031 -9.921 -25.5135 -8.651469 -25.5135 -7.085063 Z M -25.5135 -7.085063 " transform="matrix(1,0,0,-1,78.451,46.704)"/>
<path style="fill-rule:nonzero;fill:rgb(86.66687%,100%,86.66687%);fill-opacity:1;stroke-width:0.3985;stroke-linecap:butt;stroke-linejoin:miter;stroke:rgb(0%,0%,0%);stroke-opacity:1;stroke-miterlimit:10;" d="M -25.5135 14.17275 C -25.5135 15.739156 -26.783031 17.008687 -28.345531 17.008687 C -29.911938 17.008687 -31.181469 15.739156 -31.181469 14.17275 C -31.181469 12.606344 -29.911938 11.336812 -28.345531 11.336812 C -26.783031 11.336812 -25.5135 12.606344 -25.5135 14.17275 Z M -25.5135 14.17275 " transform="matrix(1,0,0,-1,78.451,46.704)"/>
<path style="fill-rule:nonzero;fill:rgb(86.66687%,100%,86.66687%);fill-opacity:1;stroke-width:0.3985;stroke-linecap:butt;stroke-linejoin:miter;stroke:rgb(0%,0%,0%);stroke-opacity:1;stroke-miterlimit:10;" d="M 2.834156 14.17275 C 2.834156 15.739156 1.564625 17.008687 -0.00178125 17.008687 C -1.564281 17.008687 -2.833813 15.739156 -2.833813 14.17275 C -2.833813 12.606344 -1.564281 11.336812 -0.00178125 11.336812 C 1.564625 11.336812 2.834156 12.606344 2.834156 14.17275 Z M 2.834156 14.17275 " transform="matrix(1,0,0,-1,78.451,46.704)"/>
<path style="fill-rule:nonzero;fill:rgb(86.66687%,100%,86.66687%);fill-opacity:1;stroke-width:0.3985;stroke-linecap:butt;stroke-linejoin:miter;stroke:rgb(0%,0%,0%);stroke-opacity:1;stroke-miterlimit:10;" d="M -25.5135 28.348531 C -25.5135 29.911031 -26.783031 31.180562 -28.345531 31.180562 C -29.911938 31.180562 -31.181469 29.911031 -31.181469 28.348531 C -31.181469 26.782125 -29.911938 25.512594 -28.345531 25.512594 C -26.783031 25.512594 -25.5135 26.782125 -25.5135 28.348531 Z M -25.5135 28.348531 " transform="matrix(1,0,0,-1,78.451,46.704)"/>
<path style="fill:none;stroke-width:0.3985;stroke-linecap:butt;stroke-linejoin:miter;stroke:rgb(0%,0%,0%);stroke-opacity:1;stroke-miterlimit:10;" d="M -0.001375 2.144219 L -0.001375 -0.0003125 " transform="matrix(0,-1,-1,0,60.445,18.358)"/>
<path style="fill:none;stroke-width:0.3985;stroke-linecap:butt;stroke-linejoin:miter;stroke:rgb(0%,0%,0%);stroke-opacity:1;stroke-miterlimit:10;" d="M -3.48575 -0.109687 L 3.486906 -0.109687 M -2.325594 -1.414375 L 2.322844 -1.414375 M -1.161531 -2.722969 L 1.162687 -2.722969 " transform="matrix(0,-1,-1,0,60.445,18.358)"/>
<path style="fill-rule:nonzero;fill:rgb(86.66687%,100%,86.66687%);fill-opacity:1;stroke-width:0.3985;stroke-linecap:butt;stroke-linejoin:miter;stroke:rgb(0%,0%,0%);stroke-opacity:1;stroke-miterlimit:10;" d="M 2.834156 42.520406 C 2.834156 44.086812 1.564625 45.356344 -0.00178125 45.356344 C -1.564281 45.356344 -2.833813 44.086812 -2.833813 42.520406 C -2.833813 40.954 -1.564281 39.684469 -0.00178125 39.684469 C 1.564625 39.684469 2.834156 40.954 2.834156 42.520406 Z M 2.834156 42.520406 " transform="matrix(1,0,0,-1,78.451,46.704)"/>
<path style="fill:none;stroke-width:0.3985;stroke-linecap:butt;stroke-linejoin:miter;stroke:rgb(0%,0%,0%);stroke-opacity:1;stroke-miterlimit:10;" d="M 0.00140625 2.146469 L 0.00140625 0.0019375 " transform="matrix(0,-1,-1,0,88.791,4.185)"/>
<path style="fill:none;stroke-width:0.3985;stroke-linecap:butt;stroke-linejoin:miter;stroke:rgb(0%,0%,0%);stroke-opacity:1;stroke-miterlimit:10;" d="M -3.486875 -0.107437 L 3.485781 -0.107437 M -2.322813 -1.416031 L 2.325625 -1.416031 M -1.162656 -2.724625 L 1.161562 -2.724625 " transform="matrix(0,-1,-1,0,88.791,4.185)"/>
<path style="fill-rule:nonzero;fill:rgb(86.66687%,100%,86.66687%);fill-opacity:1;stroke-width:0.3985;stroke-linecap:butt;stroke-linejoin:miter;stroke:rgb(0%,0%,0%);stroke-opacity:1;stroke-miterlimit:10;" d="M 2.834156 -7.085063 C 2.834156 -5.522563 1.564625 -4.253031 -0.00178125 -4.253031 C -1.564281 -4.253031 -2.833813 -5.522563 -2.833813 -7.085063 C -2.833813 -8.651469 -1.564281 -9.921 -0.00178125 -9.921 C 1.564625 -9.921 2.834156 -8.651469 2.834156 -7.085063 Z M 2.834156 -7.085063 " transform="matrix(1,0,0,-1,78.451,46.704)"/>
<path style="fill-rule:nonzero;fill:rgb(86.66687%,100%,86.66687%);fill-opacity:1;stroke-width:0.3985;stroke-linecap:butt;stroke-linejoin:miter;stroke:rgb(0%,0%,0%);stroke-opacity:1;stroke-miterlimit:10;" d="M 24.095875 -7.085063 C 24.095875 -5.522563 22.826344 -4.253031 21.259937 -4.253031 C 19.693531 -4.253031 18.424 -5.522563 18.424 -7.085063 C 18.424 -8.651469 19.693531 -9.921 21.259937 -9.921 C 22.826344 -9.921 24.095875 -8.651469 24.095875 -7.085063 Z M 24.095875 -7.085063 " transform="matrix(1,0,0,-1,78.451,46.704)"/>
<path style="fill:none;stroke-width:0.3985;stroke-linecap:butt;stroke-linejoin:miter;stroke:rgb(0%,0%,0%);stroke-opacity:1;stroke-miterlimit:10;" d="M -0.0000625 2.146625 L -0.0000625 -0.0018125 " transform="matrix(1,0,0,-1,99.711,64.131)"/>
<g clip-path="url(#clip3)" clip-rule="nonzero">
<path style="fill:none;stroke-width:0.3985;stroke-linecap:butt;stroke-linejoin:miter;stroke:rgb(0%,0%,0%);stroke-opacity:1;stroke-miterlimit:10;" d="M -3.488344 -0.107281 L 3.488219 -0.107281 M -2.324281 -1.415875 L 2.324156 -1.415875 M -1.164125 -2.724469 L 1.164 -2.724469 " transform="matrix(1,0,0,-1,99.711,64.131)"/>
</g>
<path style="fill-rule:nonzero;fill:rgb(86.66687%,100%,86.66687%);fill-opacity:1;stroke-width:0.3985;stroke-linecap:butt;stroke-linejoin:miter;stroke:rgb(0%,0%,0%);stroke-opacity:1;stroke-miterlimit:10;" d="M 24.095875 -7.085063 C 24.095875 -5.522563 22.826344 -4.253031 21.259937 -4.253031 C 19.693531 -4.253031 18.424 -5.522563 18.424 -7.085063 C 18.424 -8.651469 19.693531 -9.921 21.259937 -9.921 C 22.826344 -9.921 24.095875 -8.651469 24.095875 -7.085063 Z M 24.095875 -7.085063 " transform="matrix(1,0,0,-1,78.451,46.704)"/>
<path style="fill-rule:nonzero;fill:rgb(86.66687%,100%,86.66687%);fill-opacity:1;stroke-width:0.3985;stroke-linecap:butt;stroke-linejoin:miter;stroke:rgb(0%,0%,0%);stroke-opacity:1;stroke-miterlimit:10;" d="M 24.095875 -7.085063 C 24.095875 -5.522563 22.826344 -4.253031 21.259937 -4.253031 C 19.693531 -4.253031 18.424 -5.522563 18.424 -7.085063 C 18.424 -8.651469 19.693531 -9.921 21.259937 -9.921 C 22.826344 -9.921 24.095875 -8.651469 24.095875 -7.085063 Z M 24.095875 -7.085063 " transform="matrix(1,0,0,-1,78.451,46.704)"/>
<path style="fill-rule:nonzero;fill:rgb(86.66687%,100%,86.66687%);fill-opacity:1;stroke-width:0.3985;stroke-linecap:butt;stroke-linejoin:miter;stroke:rgb(0%,0%,0%);stroke-opacity:1;stroke-miterlimit:10;" d="M 2.834156 14.17275 C 2.834156 15.739156 1.564625 17.008687 -0.00178125 17.008687 C -1.564281 17.008687 -2.833813 15.739156 -2.833813 14.17275 C -2.833813 12.606344 -1.564281 11.336812 -0.00178125 11.336812 C 1.564625 11.336812 2.834156 12.606344 2.834156 14.17275 Z M 2.834156 14.17275 " transform="matrix(1,0,0,-1,78.451,46.704)"/>
<path style="fill-rule:nonzero;fill:rgb(86.66687%,100%,86.66687%);fill-opacity:1;stroke-width:0.3985;stroke-linecap:butt;stroke-linejoin:miter;stroke:rgb(0%,0%,0%);stroke-opacity:1;stroke-miterlimit:10;" d="M -39.685375 28.348531 C -39.685375 29.911031 -40.954906 31.180562 -42.521313 31.180562 C -44.083813 31.180562 -45.353344 29.911031 -45.353344 28.348531 C -45.353344 26.782125 -44.083813 25.512594 -42.521313 25.512594 C -40.954906 25.512594 -39.685375 26.782125 -39.685375 28.348531 Z M -39.685375 28.348531 " transform="matrix(1,0,0,-1,78.451,46.704)"/>
<path style="fill-rule:nonzero;fill:rgb(86.66687%,100%,86.66687%);fill-opacity:1;stroke-width:0.3985;stroke-linecap:butt;stroke-linejoin:miter;stroke:rgb(0%,0%,0%);stroke-opacity:1;stroke-miterlimit:10;" d="M -53.85725 28.348531 C -53.85725 29.911031 -55.126781 31.180562 -56.693188 31.180562 C -58.259594 31.180562 -59.529125 29.911031 -59.529125 28.348531 C -59.529125 26.782125 -58.259594 25.512594 -56.693188 25.512594 C -55.126781 25.512594 -53.85725 26.782125 -53.85725 28.348531 Z M -53.85725 28.348531 " transform="matrix(1,0,0,-1,78.451,46.704)"/>
<path style="fill-rule:nonzero;fill:rgb(86.66687%,100%,86.66687%);fill-opacity:1;stroke-width:0.3985;stroke-linecap:butt;stroke-linejoin:miter;stroke:rgb(0%,0%,0%);stroke-opacity:1;stroke-miterlimit:10;" d="M -39.685375 42.520406 C -39.685375 44.086812 -40.954906 45.356344 -42.521313 45.356344 C -44.083813 45.356344 -45.353344 44.086812 -45.353344 42.520406 C -45.353344 40.954 -44.083813 39.684469 -42.521313 39.684469 C -40.954906 39.684469 -39.685375 40.954 -39.685375 42.520406 Z M -39.685375 42.520406 " transform="matrix(1,0,0,-1,78.451,46.704)"/>
<path style="fill-rule:nonzero;fill:rgb(86.66687%,100%,86.66687%);fill-opacity:1;stroke-width:0.3985;stroke-linecap:butt;stroke-linejoin:miter;stroke:rgb(0%,0%,0%);stroke-opacity:1;stroke-miterlimit:10;" d="M -53.85725 42.520406 C -53.85725 44.086812 -55.126781 45.356344 -56.693188 45.356344 C -58.259594 45.356344 -59.529125 44.086812 -59.529125 42.520406 C -59.529125 40.954 -58.259594 39.684469 -56.693188 39.684469 C -55.126781 39.684469 -53.85725 40.954 -53.85725 42.520406 Z M -53.85725 42.520406 " transform="matrix(1,0,0,-1,78.451,46.704)"/>
<path style="fill-rule:nonzero;fill:rgb(86.66687%,100%,86.66687%);fill-opacity:1;stroke-width:0.3985;stroke-linecap:butt;stroke-linejoin:miter;stroke:rgb(0%,0%,0%);stroke-opacity:1;stroke-miterlimit:10;" d="M 38.26775 14.17275 C 38.26775 15.739156 36.998219 17.008687 35.431812 17.008687 C 33.869312 17.008687 32.599781 15.739156 32.599781 14.17275 C 32.599781 12.606344 33.869312 11.336812 35.431812 11.336812 C 36.998219 11.336812 38.26775 12.606344 38.26775 14.17275 Z M 38.26775 14.17275 " transform="matrix(1,0,0,-1,78.451,46.704)"/>
<path style="fill-rule:nonzero;fill:rgb(86.66687%,100%,86.66687%);fill-opacity:1;stroke-width:0.3985;stroke-linecap:butt;stroke-linejoin:miter;stroke:rgb(0%,0%,0%);stroke-opacity:1;stroke-miterlimit:10;" d="M 52.439625 14.17275 C 52.439625 15.739156 51.174 17.008687 49.607594 17.008687 C 48.041187 17.008687 46.771656 15.739156 46.771656 14.17275 C 46.771656 12.606344 48.041187 11.336812 49.607594 11.336812 C 51.174 11.336812 52.439625 12.606344 52.439625 14.17275 Z M 52.439625 14.17275 " transform="matrix(1,0,0,-1,78.451,46.704)"/>
<path style="fill-rule:nonzero;fill:rgb(86.66687%,100%,86.66687%);fill-opacity:1;stroke-width:0.3985;stroke-linecap:butt;stroke-linejoin:miter;stroke:rgb(0%,0%,0%);stroke-opacity:1;stroke-miterlimit:10;" d="M 38.26775 -7.085063 C 38.26775 -5.522563 36.998219 -4.253031 35.431812 -4.253031 C 33.869312 -4.253031 32.599781 -5.522563 32.599781 -7.085063 C 32.599781 -8.651469 33.869312 -9.921 35.431812 -9.921 C 36.998219 -9.921 38.26775 -8.651469 38.26775 -7.085063 Z M 38.26775 -7.085063 " transform="matrix(1,0,0,-1,78.451,46.704)"/>
<path style="fill-rule:nonzero;fill:rgb(86.66687%,100%,86.66687%);fill-opacity:1;stroke-width:0.3985;stroke-linecap:butt;stroke-linejoin:miter;stroke:rgb(0%,0%,0%);stroke-opacity:1;stroke-miterlimit:10;" d="M 52.439625 -7.085063 C 52.439625 -5.522563 51.174 -4.253031 49.607594 -4.253031 C 48.041187 -4.253031 46.771656 -5.522563 46.771656 -7.085063 C 46.771656 -8.651469 48.041187 -9.921 49.607594 -9.921 C 51.174 -9.921 52.439625 -8.651469 52.439625 -7.085063 Z M 52.439625 -7.085063 " transform="matrix(1,0,0,-1,78.451,46.704)"/>
</g>
</svg>
