<?xml version="1.0" encoding="UTF-8"?>
<svg xmlns="http://www.w3.org/2000/svg" xmlns:xlink="http://www.w3.org/1999/xlink" width="192.335pt" height="67.552pt" viewBox="0 0 192.335 67.552" version="1.1">
<defs>
<clipPath id="clip1">
  <path d="M 173 32 L 192.335938 32 L 192.335938 33 L 173 33 Z M 173 32 "/>
</clipPath>
<clipPath id="clip2">
  <path d="M 173 53 L 192.335938 53 L 192.335938 54 L 173 54 Z M 173 53 "/>
</clipPath>
<clipPath id="clip3">
  <path d="M 138 64 L 146 64 L 146 67.550781 L 138 67.550781 Z M 138 64 "/>
</clipPath>
</defs>
<g id="surface1">
<path style="fill:none;stroke-width:0.3985;stroke-linecap:butt;stroke-linejoin:miter;stroke:rgb(0%,0%,0%);stroke-opacity:1;stroke-miterlimit:10;" d="M 21.260469 3.543844 L 21.260469 11.137594 " transform="matrix(1,0,0,-1,120.97,46.704)"/>
<path style="fill:none;stroke-width:0.79701;stroke-linecap:butt;stroke-linejoin:miter;stroke:rgb(26.667786%,53.33252%,100%);stroke-opacity:1;stroke-dasharray:1.99255,0.49814;stroke-miterlimit:10;" d="M -67.833281 14.17275 L -59.727812 14.17275 " transform="matrix(1,0,0,-1,120.97,46.704)"/>
<path style="fill:none;stroke-width:0.79701;stroke-linecap:butt;stroke-linejoin:miter;stroke:rgb(26.667786%,53.33252%,100%);stroke-opacity:1;stroke-dasharray:1.99255,0.49814;stroke-miterlimit:10;" d="M -67.833281 -7.085063 L -59.727812 -7.085063 " transform="matrix(1,0,0,-1,120.97,46.704)"/>
<path style="fill:none;stroke-width:0.79701;stroke-linecap:butt;stroke-linejoin:miter;stroke:rgb(26.667786%,53.33252%,100%);stroke-opacity:1;stroke-dasharray:1.99255,0.49814;stroke-miterlimit:10;" d="M -53.661406 14.17275 L -45.555937 14.17275 " transform="matrix(1,0,0,-1,120.97,46.704)"/>
<path style="fill:none;stroke-width:0.79701;stroke-linecap:butt;stroke-linejoin:miter;stroke:rgb(26.667786%,53.33252%,100%);stroke-opacity:1;stroke-dasharray:1.99255,0.49814;stroke-miterlimit:10;" d="M -53.661406 -7.085063 L -45.555937 -7.085063 " transform="matrix(1,0,0,-1,120.97,46.704)"/>
<path style="fill:none;stroke-width:0.79701;stroke-linecap:butt;stroke-linejoin:miter;stroke:rgb(26.667786%,53.33252%,100%);stroke-opacity:1;stroke-dasharray:1.99255,0.49814;stroke-miterlimit:10;" d="M -39.485625 -7.085063 L -31.380156 -7.085063 " transform="matrix(1,0,0,-1,120.97,46.704)"/>
<path style="fill:none;stroke-width:0.79701;stroke-linecap:butt;stroke-linejoin:miter;stroke:rgb(26.667786%,53.33252%,100%);stroke-opacity:1;stroke-dasharray:1.99255,0.49814;stroke-miterlimit:10;" d="M -42.520781 -4.053813 L -42.520781 11.137594 " transform="matrix(1,0,0,-1,120.97,46.704)"/>
<path style="fill:none;stroke-width:0.3985;stroke-linecap:butt;stroke-linejoin:miter;stroke:rgb(0%,0%,0%);stroke-opacity:1;stroke-miterlimit:10;" d="M -25.31375 28.348531 L -17.716094 28.348531 " transform="matrix(1,0,0,-1,120.97,46.704)"/>
<path style="fill:none;stroke-width:0.79701;stroke-linecap:butt;stroke-linejoin:miter;stroke:rgb(26.667786%,53.33252%,100%);stroke-opacity:1;stroke-dasharray:1.99255,0.49814;stroke-miterlimit:10;" d="M -28.345 25.313375 L -28.345 17.207906 " transform="matrix(1,0,0,-1,120.97,46.704)"/>
<path style="fill:none;stroke-width:0.3985;stroke-linecap:butt;stroke-linejoin:miter;stroke:rgb(0%,0%,0%);stroke-opacity:1;stroke-miterlimit:10;" d="M 3.033906 42.520406 L 10.631563 42.520406 " transform="matrix(1,0,0,-1,120.97,46.704)"/>
<path style="fill:none;stroke-width:0.79701;stroke-linecap:butt;stroke-linejoin:miter;stroke:rgb(26.667786%,53.33252%,100%);stroke-opacity:1;stroke-dasharray:1.99255,0.49814;stroke-miterlimit:10;" d="M -0.00125 39.48525 L -0.00125 17.207906 " transform="matrix(1,0,0,-1,120.97,46.704)"/>
<path style="fill:none;stroke-width:0.79701;stroke-linecap:butt;stroke-linejoin:miter;stroke:rgb(26.667786%,53.33252%,100%);stroke-opacity:1;stroke-dasharray:1.99255,0.49814;stroke-miterlimit:10;" d="M -25.31375 -7.085063 L -3.0325 -7.085063 " transform="matrix(1,0,0,-1,120.97,46.704)"/>
<path style="fill:none;stroke-width:0.79701;stroke-linecap:butt;stroke-linejoin:miter;stroke:rgb(26.667786%,53.33252%,100%);stroke-opacity:1;stroke-dasharray:1.99255,0.49814;stroke-miterlimit:10;" d="M -0.00125 11.137594 L -0.00125 -4.053813 " transform="matrix(1,0,0,-1,120.97,46.704)"/>
<path style="fill:none;stroke-width:0.79701;stroke-linecap:butt;stroke-linejoin:miter;stroke:rgb(26.667786%,53.33252%,100%);stroke-opacity:1;stroke-dasharray:1.99255,0.49814;stroke-miterlimit:10;" d="M 3.033906 14.17275 L 18.225313 14.17275 " transform="matrix(1,0,0,-1,120.97,46.704)"/>
<path style="fill:none;stroke-width:0.3985;stroke-linecap:butt;stroke-linejoin:miter;stroke:rgb(0%,0%,0%);stroke-opacity:1;stroke-miterlimit:10;" d="M 21.260469 -17.717875 L 21.260469 -10.120219 " transform="matrix(1,0,0,-1,120.97,46.704)"/>
<path style="fill:none;stroke-width:0.79701;stroke-linecap:butt;stroke-linejoin:miter;stroke:rgb(26.667786%,53.33252%,100%);stroke-opacity:1;stroke-dasharray:1.99255,0.49814;stroke-miterlimit:10;" d="M 3.033906 -7.085063 L 18.225313 -7.085063 " transform="matrix(1,0,0,-1,120.97,46.704)"/>
<path style="fill:none;stroke-width:0.79701;stroke-linecap:butt;stroke-linejoin:miter;stroke:rgb(26.667786%,53.33252%,100%);stroke-opacity:1;stroke-dasharray:1.99255,0.49814;stroke-miterlimit:10;" d="M -39.485625 14.17275 L -31.380156 14.17275 " transform="matrix(1,0,0,-1,120.97,46.704)"/>
<path style="fill:none;stroke-width:0.79701;stroke-linecap:butt;stroke-linejoin:miter;stroke:rgb(26.667786%,53.33252%,100%);stroke-opacity:1;stroke-dasharray:1.99255,0.49814;stroke-miterlimit:10;" d="M -25.31375 14.17275 L -3.0325 14.17275 " transform="matrix(1,0,0,-1,120.97,46.704)"/>
<path style="fill:none;stroke-width:0.3985;stroke-linecap:butt;stroke-linejoin:miter;stroke:rgb(0%,0%,0%);stroke-opacity:1;stroke-miterlimit:10;" d="M -120.473906 42.520406 L -59.727812 42.520406 " transform="matrix(1,0,0,-1,120.97,46.704)"/>
<path style="fill:none;stroke-width:0.3985;stroke-linecap:butt;stroke-linejoin:miter;stroke:rgb(0%,0%,0%);stroke-opacity:1;stroke-miterlimit:10;" d="M -120.473906 28.348531 L -59.727812 28.348531 " transform="matrix(1,0,0,-1,120.97,46.704)"/>
<path style="fill:none;stroke-width:0.79701;stroke-linecap:butt;stroke-linejoin:miter;stroke:rgb(26.667786%,53.33252%,100%);stroke-opacity:1;stroke-dasharray:1.99255,0.49814;stroke-miterlimit:10;" d="M -53.661406 28.348531 L -45.555937 28.348531 " transform="matrix(1,0,0,-1,120.97,46.704)"/>
<path style="fill:none;stroke-width:0.79701;stroke-linecap:butt;stroke-linejoin:miter;stroke:rgb(26.667786%,53.33252%,100%);stroke-opacity:1;stroke-dasharray:1.99255,0.49814;stroke-miterlimit:10;" d="M -39.485625 28.348531 L -31.380156 28.348531 " transform="matrix(1,0,0,-1,120.97,46.704)"/>
<path style="fill:none;stroke-width:0.79701;stroke-linecap:butt;stroke-linejoin:miter;stroke:rgb(26.667786%,53.33252%,100%);stroke-opacity:1;stroke-dasharray:1.99255,0.49814;stroke-miterlimit:10;" d="M -53.661406 42.520406 L -45.555937 42.520406 " transform="matrix(1,0,0,-1,120.97,46.704)"/>
<path style="fill:none;stroke-width:0.79701;stroke-linecap:butt;stroke-linejoin:miter;stroke:rgb(26.667786%,53.33252%,100%);stroke-opacity:1;stroke-dasharray:1.99255,0.49814;stroke-miterlimit:10;" d="M -39.485625 42.520406 L -3.0325 42.520406 " transform="matrix(1,0,0,-1,120.97,46.704)"/>
<path style="fill:none;stroke-width:0.79701;stroke-linecap:butt;stroke-linejoin:miter;stroke:rgb(26.667786%,53.33252%,100%);stroke-opacity:1;stroke-dasharray:1.99255,0.49814;stroke-miterlimit:10;" d="M 24.295625 -7.085063 L 32.401094 -7.085063 " transform="matrix(1,0,0,-1,120.97,46.704)"/>
<path style="fill:none;stroke-width:0.79701;stroke-linecap:butt;stroke-linejoin:miter;stroke:rgb(26.667786%,53.33252%,100%);stroke-opacity:1;stroke-dasharray:1.99255,0.49814;stroke-miterlimit:10;" d="M 38.4675 -7.085063 L 46.572969 -7.085063 " transform="matrix(1,0,0,-1,120.97,46.704)"/>
<path style="fill:none;stroke-width:0.79701;stroke-linecap:butt;stroke-linejoin:miter;stroke:rgb(26.667786%,53.33252%,100%);stroke-opacity:1;stroke-dasharray:1.99255,0.49814;stroke-miterlimit:10;" d="M 24.295625 14.17275 L 32.401094 14.17275 " transform="matrix(1,0,0,-1,120.97,46.704)"/>
<path style="fill:none;stroke-width:0.79701;stroke-linecap:butt;stroke-linejoin:miter;stroke:rgb(26.667786%,53.33252%,100%);stroke-opacity:1;stroke-dasharray:1.99255,0.49814;stroke-miterlimit:10;" d="M 38.4675 14.17275 L 46.572969 14.17275 " transform="matrix(1,0,0,-1,120.97,46.704)"/>
<g clip-path="url(#clip1)" clip-rule="nonzero">
<path style="fill:none;stroke-width:0.3985;stroke-linecap:butt;stroke-linejoin:miter;stroke:rgb(0%,0%,0%);stroke-opacity:1;stroke-miterlimit:10;" d="M 52.639375 14.17275 L 70.865938 14.17275 " transform="matrix(1,0,0,-1,120.97,46.704)"/>
</g>
<g clip-path="url(#clip2)" clip-rule="nonzero">
<path style="fill:none;stroke-width:0.3985;stroke-linecap:butt;stroke-linejoin:miter;stroke:rgb(0%,0%,0%);stroke-opacity:1;stroke-miterlimit:10;" d="M 52.639375 -7.085063 L 70.865938 -7.085063 " transform="matrix(1,0,0,-1,120.97,46.704)"/>
</g>
<path style="fill-rule:nonzero;fill:rgb(86.66687%,100%,86.66687%);fill-opacity:1;stroke-width:0.3985;stroke-linecap:butt;stroke-linejoin:miter;stroke:rgb(0%,0%,0%);stroke-opacity:1;stroke-miterlimit:10;" d="M 24.096406 14.17275 C 24.096406 15.739156 22.826875 17.008687 21.260469 17.008687 C 19.694063 17.008687 18.424531 15.739156 18.424531 14.17275 C 18.424531 12.606344 19.694063 11.336812 21.260469 11.336812 C 22.826875 11.336812 24.096406 12.606344 24.096406 14.17275 Z M 24.096406 14.17275 " transform="matrix(1,0,0,-1,120.97,46.704)"/>
<path style="fill:none;stroke-width:0.3985;stroke-linecap:butt;stroke-linejoin:miter;stroke:rgb(0%,0%,0%);stroke-opacity:1;stroke-miterlimit:10;" d="M 0.00046875 2.145437 L 0.00046875 0.00090625 " transform="matrix(1,0,0,-1,142.23,42.872)"/>
<path style="fill:none;stroke-width:0.3985;stroke-linecap:butt;stroke-linejoin:miter;stroke:rgb(0%,0%,0%);stroke-opacity:1;stroke-miterlimit:10;" d="M -3.487813 -0.108469 L 3.48875 -0.108469 M -2.32375 -1.417063 L 2.324687 -1.417063 M -1.163594 -2.72175 L 1.160625 -2.72175 " transform="matrix(1,0,0,-1,142.23,42.872)"/>
<path style="fill-rule:nonzero;fill:rgb(86.66687%,100%,86.66687%);fill-opacity:1;stroke-width:0.3985;stroke-linecap:butt;stroke-linejoin:miter;stroke:rgb(0%,0%,0%);stroke-opacity:1;stroke-miterlimit:10;" d="M -68.0325 14.17275 C -68.0325 15.739156 -69.302031 17.008687 -70.868437 17.008687 C -72.430937 17.008687 -73.700469 15.739156 -73.700469 14.17275 C -73.700469 12.606344 -72.430937 11.336812 -70.868437 11.336812 C -69.302031 11.336812 -68.0325 12.606344 -68.0325 14.17275 Z M -68.0325 14.17275 " transform="matrix(1,0,0,-1,120.97,46.704)"/>
<path style="fill-rule:nonzero;fill:rgb(86.66687%,100%,86.66687%);fill-opacity:1;stroke-width:0.3985;stroke-linecap:butt;stroke-linejoin:miter;stroke:rgb(0%,0%,0%);stroke-opacity:1;stroke-miterlimit:10;" d="M -68.0325 -7.085063 C -68.0325 -5.522563 -69.302031 -4.253031 -70.868437 -4.253031 C -72.430937 -4.253031 -73.700469 -5.522563 -73.700469 -7.085063 C -73.700469 -8.651469 -72.430937 -9.921 -70.868437 -9.921 C -69.302031 -9.921 -68.0325 -8.651469 -68.0325 -7.085063 Z M -68.0325 -7.085063 " transform="matrix(1,0,0,-1,120.97,46.704)"/>
<path style="fill-rule:nonzero;fill:rgb(86.66687%,100%,86.66687%);fill-opacity:1;stroke-width:0.3985;stroke-linecap:butt;stroke-linejoin:miter;stroke:rgb(0%,0%,0%);stroke-opacity:1;stroke-miterlimit:10;" d="M -53.860625 14.17275 C -53.860625 15.739156 -55.12625 17.008687 -56.692656 17.008687 C -58.259062 17.008687 -59.528594 15.739156 -59.528594 14.17275 C -59.528594 12.606344 -58.259062 11.336812 -56.692656 11.336812 C -55.12625 11.336812 -53.860625 12.606344 -53.860625 14.17275 Z M -53.860625 14.17275 " transform="matrix(1,0,0,-1,120.97,46.704)"/>
<path style="fill-rule:nonzero;fill:rgb(86.66687%,100%,86.66687%);fill-opacity:1;stroke-width:0.3985;stroke-linecap:butt;stroke-linejoin:miter;stroke:rgb(0%,0%,0%);stroke-opacity:1;stroke-miterlimit:10;" d="M -53.860625 -7.085063 C -53.860625 -5.522563 -55.12625 -4.253031 -56.692656 -4.253031 C -58.259062 -4.253031 -59.528594 -5.522563 -59.528594 -7.085063 C -59.528594 -8.651469 -58.259062 -9.921 -56.692656 -9.921 C -55.12625 -9.921 -53.860625 -8.651469 -53.860625 -7.085063 Z M -53.860625 -7.085063 " transform="matrix(1,0,0,-1,120.97,46.704)"/>
<path style="fill-rule:nonzero;fill:rgb(86.66687%,100%,86.66687%);fill-opacity:1;stroke-width:0.3985;stroke-linecap:butt;stroke-linejoin:miter;stroke:rgb(0%,0%,0%);stroke-opacity:1;stroke-miterlimit:10;" d="M -39.684844 14.17275 C -39.684844 15.739156 -40.954375 17.008687 -42.520781 17.008687 C -44.087187 17.008687 -45.356719 15.739156 -45.356719 14.17275 C -45.356719 12.606344 -44.087187 11.336812 -42.520781 11.336812 C -40.954375 11.336812 -39.684844 12.606344 -39.684844 14.17275 Z M -39.684844 14.17275 " transform="matrix(1,0,0,-1,120.97,46.704)"/>
<path style="fill-rule:nonzero;fill:rgb(86.66687%,100%,86.66687%);fill-opacity:1;stroke-width:0.3985;stroke-linecap:butt;stroke-linejoin:miter;stroke:rgb(0%,0%,0%);stroke-opacity:1;stroke-miterlimit:10;" d="M -39.684844 -7.085063 C -39.684844 -5.522563 -40.954375 -4.253031 -42.520781 -4.253031 C -44.087187 -4.253031 -45.356719 -5.522563 -45.356719 -7.085063 C -45.356719 -8.651469 -44.087187 -9.921 -42.520781 -9.921 C -40.954375 -9.921 -39.684844 -8.651469 -39.684844 -7.085063 Z M -39.684844 -7.085063 " transform="matrix(1,0,0,-1,120.97,46.704)"/>
<path style="fill-rule:nonzero;fill:rgb(86.66687%,100%,86.66687%);fill-opacity:1;stroke-width:0.3985;stroke-linecap:butt;stroke-linejoin:miter;stroke:rgb(0%,0%,0%);stroke-opacity:1;stroke-miterlimit:10;" d="M -25.512969 -7.085063 C -25.512969 -5.522563 -26.7825 -4.253031 -28.345 -4.253031 C -29.911406 -4.253031 -31.180937 -5.522563 -31.180937 -7.085063 C -31.180937 -8.651469 -29.911406 -9.921 -28.345 -9.921 C -26.7825 -9.921 -25.512969 -8.651469 -25.512969 -7.085063 Z M -25.512969 -7.085063 " transform="matrix(1,0,0,-1,120.97,46.704)"/>
<path style="fill-rule:nonzero;fill:rgb(86.66687%,100%,86.66687%);fill-opacity:1;stroke-width:0.3985;stroke-linecap:butt;stroke-linejoin:miter;stroke:rgb(0%,0%,0%);stroke-opacity:1;stroke-miterlimit:10;" d="M -25.512969 14.17275 C -25.512969 15.739156 -26.7825 17.008687 -28.345 17.008687 C -29.911406 17.008687 -31.180937 15.739156 -31.180937 14.17275 C -31.180937 12.606344 -29.911406 11.336812 -28.345 11.336812 C -26.7825 11.336812 -25.512969 12.606344 -25.512969 14.17275 Z M -25.512969 14.17275 " transform="matrix(1,0,0,-1,120.97,46.704)"/>
<path style="fill-rule:nonzero;fill:rgb(86.66687%,100%,86.66687%);fill-opacity:1;stroke-width:0.3985;stroke-linecap:butt;stroke-linejoin:miter;stroke:rgb(0%,0%,0%);stroke-opacity:1;stroke-miterlimit:10;" d="M 2.834688 14.17275 C 2.834688 15.739156 1.565156 17.008687 -0.00125 17.008687 C -1.56375 17.008687 -2.833281 15.739156 -2.833281 14.17275 C -2.833281 12.606344 -1.56375 11.336812 -0.00125 11.336812 C 1.565156 11.336812 2.834688 12.606344 2.834688 14.17275 Z M 2.834688 14.17275 " transform="matrix(1,0,0,-1,120.97,46.704)"/>
<path style="fill-rule:nonzero;fill:rgb(86.66687%,100%,86.66687%);fill-opacity:1;stroke-width:0.3985;stroke-linecap:butt;stroke-linejoin:miter;stroke:rgb(0%,0%,0%);stroke-opacity:1;stroke-miterlimit:10;" d="M -25.512969 28.348531 C -25.512969 29.911031 -26.7825 31.180562 -28.345 31.180562 C -29.911406 31.180562 -31.180937 29.911031 -31.180937 28.348531 C -31.180937 26.782125 -29.911406 25.512594 -28.345 25.512594 C -26.7825 25.512594 -25.512969 26.782125 -25.512969 28.348531 Z M -25.512969 28.348531 " transform="matrix(1,0,0,-1,120.97,46.704)"/>
<path style="fill:none;stroke-width:0.3985;stroke-linecap:butt;stroke-linejoin:miter;stroke:rgb(0%,0%,0%);stroke-opacity:1;stroke-miterlimit:10;" d="M -0.001375 2.143687 L -0.001375 -0.00084375 " transform="matrix(0,-1,-1,0,102.964,18.358)"/>
<path style="fill:none;stroke-width:0.3985;stroke-linecap:butt;stroke-linejoin:miter;stroke:rgb(0%,0%,0%);stroke-opacity:1;stroke-miterlimit:10;" d="M -3.48575 -0.106313 L 3.486906 -0.106313 M -2.325594 -1.414906 L 2.322844 -1.414906 M -1.161531 -2.7235 L 1.162687 -2.7235 " transform="matrix(0,-1,-1,0,102.964,18.358)"/>
<path style="fill-rule:nonzero;fill:rgb(86.66687%,100%,86.66687%);fill-opacity:1;stroke-width:0.3985;stroke-linecap:butt;stroke-linejoin:miter;stroke:rgb(0%,0%,0%);stroke-opacity:1;stroke-miterlimit:10;" d="M 2.834688 42.520406 C 2.834688 44.086812 1.565156 45.356344 -0.00125 45.356344 C -1.56375 45.356344 -2.833281 44.086812 -2.833281 42.520406 C -2.833281 40.954 -1.56375 39.684469 -0.00125 39.684469 C 1.565156 39.684469 2.834688 40.954 2.834688 42.520406 Z M 2.834688 42.520406 " transform="matrix(1,0,0,-1,120.97,46.704)"/>
<path style="fill:none;stroke-width:0.3985;stroke-linecap:butt;stroke-linejoin:miter;stroke:rgb(0%,0%,0%);stroke-opacity:1;stroke-miterlimit:10;" d="M 0.00140625 2.143031 L 0.00140625 -0.0015 " transform="matrix(0,-1,-1,0,131.311,4.185)"/>
<path style="fill:none;stroke-width:0.3985;stroke-linecap:butt;stroke-linejoin:miter;stroke:rgb(0%,0%,0%);stroke-opacity:1;stroke-miterlimit:10;" d="M -3.486875 -0.106969 L 3.485781 -0.106969 M -2.322813 -1.415563 L 2.325625 -1.415563 M -1.162656 -2.724156 L 1.161562 -2.724156 " transform="matrix(0,-1,-1,0,131.311,4.185)"/>
<path style="fill-rule:nonzero;fill:rgb(86.66687%,100%,86.66687%);fill-opacity:1;stroke-width:0.3985;stroke-linecap:butt;stroke-linejoin:miter;stroke:rgb(0%,0%,0%);stroke-opacity:1;stroke-miterlimit:10;" d="M 2.834688 -7.085063 C 2.834688 -5.522563 1.565156 -4.253031 -0.00125 -4.253031 C -1.56375 -4.253031 -2.833281 -5.522563 -2.833281 -7.085063 C -2.833281 -8.651469 -1.56375 -9.921 -0.00125 -9.921 C 1.565156 -9.921 2.834688 -8.651469 2.834688 -7.085063 Z M 2.834688 -7.085063 " transform="matrix(1,0,0,-1,120.97,46.704)"/>
<path style="fill-rule:nonzero;fill:rgb(86.66687%,100%,86.66687%);fill-opacity:1;stroke-width:0.3985;stroke-linecap:butt;stroke-linejoin:miter;stroke:rgb(0%,0%,0%);stroke-opacity:1;stroke-miterlimit:10;" d="M 24.096406 -7.085063 C 24.096406 -5.522563 22.826875 -4.253031 21.260469 -4.253031 C 19.694063 -4.253031 18.424531 -5.522563 18.424531 -7.085063 C 18.424531 -8.651469 19.694063 -9.921 21.260469 -9.921 C 22.826875 -9.921 24.096406 -8.651469 24.096406 -7.085063 Z M 24.096406 -7.085063 " transform="matrix(1,0,0,-1,120.97,46.704)"/>
<path style="fill:none;stroke-width:0.3985;stroke-linecap:butt;stroke-linejoin:miter;stroke:rgb(0%,0%,0%);stroke-opacity:1;stroke-miterlimit:10;" d="M 0.00046875 2.146625 L 0.00046875 -0.0018125 " transform="matrix(1,0,0,-1,142.23,64.131)"/>
<g clip-path="url(#clip3)" clip-rule="nonzero">
<path style="fill:none;stroke-width:0.3985;stroke-linecap:butt;stroke-linejoin:miter;stroke:rgb(0%,0%,0%);stroke-opacity:1;stroke-miterlimit:10;" d="M -3.487813 -0.107281 L 3.48875 -0.107281 M -2.32375 -1.415875 L 2.324687 -1.415875 M -1.163594 -2.724469 L 1.160625 -2.724469 " transform="matrix(1,0,0,-1,142.23,64.131)"/>
</g>
<path style="fill-rule:nonzero;fill:rgb(86.66687%,100%,86.66687%);fill-opacity:1;stroke-width:0.3985;stroke-linecap:butt;stroke-linejoin:miter;stroke:rgb(0%,0%,0%);stroke-opacity:1;stroke-miterlimit:10;" d="M 24.096406 -7.085063 C 24.096406 -5.522563 22.826875 -4.253031 21.260469 -4.253031 C 19.694063 -4.253031 18.424531 -5.522563 18.424531 -7.085063 C 18.424531 -8.651469 19.694063 -9.921 21.260469 -9.921 C 22.826875 -9.921 24.096406 -8.651469 24.096406 -7.085063 Z M 24.096406 -7.085063 " transform="matrix(1,0,0,-1,120.97,46.704)"/>
<path style="fill-rule:nonzero;fill:rgb(86.66687%,100%,86.66687%);fill-opacity:1;stroke-width:0.3985;stroke-linecap:butt;stroke-linejoin:miter;stroke:rgb(0%,0%,0%);stroke-opacity:1;stroke-miterlimit:10;" d="M 24.096406 -7.085063 C 24.096406 -5.522563 22.826875 -4.253031 21.260469 -4.253031 C 19.694063 -4.253031 18.424531 -5.522563 18.424531 -7.085063 C 18.424531 -8.651469 19.694063 -9.921 21.260469 -9.921 C 22.826875 -9.921 24.096406 -8.651469 24.096406 -7.085063 Z M 24.096406 -7.085063 " transform="matrix(1,0,0,-1,120.97,46.704)"/>
<path style="fill-rule:nonzero;fill:rgb(86.66687%,100%,86.66687%);fill-opacity:1;stroke-width:0.3985;stroke-linecap:butt;stroke-linejoin:miter;stroke:rgb(0%,0%,0%);stroke-opacity:1;stroke-miterlimit:10;" d="M 2.834688 14.17275 C 2.834688 15.739156 1.565156 17.008687 -0.00125 17.008687 C -1.56375 17.008687 -2.833281 15.739156 -2.833281 14.17275 C -2.833281 12.606344 -1.56375 11.336812 -0.00125 11.336812 C 1.565156 11.336812 2.834688 12.606344 2.834688 14.17275 Z M 2.834688 14.17275 " transform="matrix(1,0,0,-1,120.97,46.704)"/>
<path style="fill-rule:nonzero;fill:rgb(86.66687%,100%,86.66687%);fill-opacity:1;stroke-width:0.3985;stroke-linecap:butt;stroke-linejoin:miter;stroke:rgb(0%,0%,0%);stroke-opacity:1;stroke-miterlimit:10;" d="M -39.684844 28.348531 C -39.684844 29.911031 -40.954375 31.180562 -42.520781 31.180562 C -44.087187 31.180562 -45.356719 29.911031 -45.356719 28.348531 C -45.356719 26.782125 -44.087187 25.512594 -42.520781 25.512594 C -40.954375 25.512594 -39.684844 26.782125 -39.684844 28.348531 Z M -39.684844 28.348531 " transform="matrix(1,0,0,-1,120.97,46.704)"/>
<path style="fill-rule:nonzero;fill:rgb(86.66687%,100%,86.66687%);fill-opacity:1;stroke-width:0.3985;stroke-linecap:butt;stroke-linejoin:miter;stroke:rgb(0%,0%,0%);stroke-opacity:1;stroke-miterlimit:10;" d="M -53.860625 28.348531 C -53.860625 29.911031 -55.12625 31.180562 -56.692656 31.180562 C -58.259062 31.180562 -59.528594 29.911031 -59.528594 28.348531 C -59.528594 26.782125 -58.259062 25.512594 -56.692656 25.512594 C -55.12625 25.512594 -53.860625 26.782125 -53.860625 28.348531 Z M -53.860625 28.348531 " transform="matrix(1,0,0,-1,120.97,46.704)"/>
<path style="fill-rule:nonzero;fill:rgb(86.66687%,100%,86.66687%);fill-opacity:1;stroke-width:0.3985;stroke-linecap:butt;stroke-linejoin:miter;stroke:rgb(0%,0%,0%);stroke-opacity:1;stroke-miterlimit:10;" d="M -39.684844 42.520406 C -39.684844 44.086812 -40.954375 45.356344 -42.520781 45.356344 C -44.087187 45.356344 -45.356719 44.086812 -45.356719 42.520406 C -45.356719 40.954 -44.087187 39.684469 -42.520781 39.684469 C -40.954375 39.684469 -39.684844 40.954 -39.684844 42.520406 Z M -39.684844 42.520406 " transform="matrix(1,0,0,-1,120.97,46.704)"/>
<path style="fill-rule:nonzero;fill:rgb(86.66687%,100%,86.66687%);fill-opacity:1;stroke-width:0.3985;stroke-linecap:butt;stroke-linejoin:miter;stroke:rgb(0%,0%,0%);stroke-opacity:1;stroke-miterlimit:10;" d="M -53.860625 42.520406 C -53.860625 44.086812 -55.12625 45.356344 -56.692656 45.356344 C -58.259062 45.356344 -59.528594 44.086812 -59.528594 42.520406 C -59.528594 40.954 -58.259062 39.684469 -56.692656 39.684469 C -55.12625 39.684469 -53.860625 40.954 -53.860625 42.520406 Z M -53.860625 42.520406 " transform="matrix(1,0,0,-1,120.97,46.704)"/>
<path style="fill-rule:nonzero;fill:rgb(86.66687%,100%,86.66687%);fill-opacity:1;stroke-width:0.3985;stroke-linecap:butt;stroke-linejoin:miter;stroke:rgb(0%,0%,0%);stroke-opacity:1;stroke-miterlimit:10;" d="M 38.268281 14.17275 C 38.268281 15.739156 36.99875 17.008687 35.432344 17.008687 C 33.869844 17.008687 32.600313 15.739156 32.600313 14.17275 C 32.600313 12.606344 33.869844 11.336812 35.432344 11.336812 C 36.99875 11.336812 38.268281 12.606344 38.268281 14.17275 Z M 38.268281 14.17275 " transform="matrix(1,0,0,-1,120.97,46.704)"/>
<path style="fill-rule:nonzero;fill:rgb(86.66687%,100%,86.66687%);fill-opacity:1;stroke-width:0.3985;stroke-linecap:butt;stroke-linejoin:miter;stroke:rgb(0%,0%,0%);stroke-opacity:1;stroke-miterlimit:10;" d="M 52.440156 14.17275 C 52.440156 15.739156 51.170625 17.008687 49.608125 17.008687 C 48.041719 17.008687 46.772188 15.739156 46.772188 14.17275 C 46.772188 12.606344 48.041719 11.336812 49.608125 11.336812 C 51.170625 11.336812 52.440156 12.606344 52.440156 14.17275 Z M 52.440156 14.17275 " transform="matrix(1,0,0,-1,120.97,46.704)"/>
<path style="fill-rule:nonzero;fill:rgb(86.66687%,100%,86.66687%);fill-opacity:1;stroke-width:0.3985;stroke-linecap:butt;stroke-linejoin:miter;stroke:rgb(0%,0%,0%);stroke-opacity:1;stroke-miterlimit:10;" d="M 38.268281 -7.085063 C 38.268281 -5.522563 36.99875 -4.253031 35.432344 -4.253031 C 33.869844 -4.253031 32.600313 -5.522563 32.600313 -7.085063 C 32.600313 -8.651469 33.869844 -9.921 35.432344 -9.921 C 36.99875 -9.921 38.268281 -8.651469 38.268281 -7.085063 Z M 38.268281 -7.085063 " transform="matrix(1,0,0,-1,120.97,46.704)"/>
<path style="fill-rule:nonzero;fill:rgb(86.66687%,100%,86.66687%);fill-opacity:1;stroke-width:0.3985;stroke-linecap:butt;stroke-linejoin:miter;stroke:rgb(0%,0%,0%);stroke-opacity:1;stroke-miterlimit:10;" d="M 52.440156 -7.085063 C 52.440156 -5.522563 51.170625 -4.253031 49.608125 -4.253031 C 48.041719 -4.253031 46.772188 -5.522563 46.772188 -7.085063 C 46.772188 -8.651469 48.041719 -9.921 49.608125 -9.921 C 51.170625 -9.921 52.440156 -8.651469 52.440156 -7.085063 Z M 52.440156 -7.085063 " transform="matrix(1,0,0,-1,120.97,46.704)"/>
</g>
</svg>
