<?xml version="1.0" encoding="UTF-8" standalone="no"?>
<svg
   xmlns:dc="http://purl.org/dc/elements/1.1/"
   xmlns:cc="http://creativecommons.org/ns#"
   xmlns:rdf="http://www.w3.org/1999/02/22-rdf-syntax-ns#"
   xmlns:svg="http://www.w3.org/2000/svg"
   xmlns="http://www.w3.org/2000/svg"
   xmlns:sodipodi="http://sodipodi.sourceforge.net/DTD/sodipodi-0.dtd"
   xmlns:inkscape="http://www.inkscape.org/namespaces/inkscape"
   id="Warstwa_1"
   data-name="Warstwa 1"
   viewBox="0 0 916.58002 308.35999"
   version="1.1"
   sodipodi:docname="logo-lmf-rgb.svg"
   width="916.58002"
   height="308.35999"
   inkscape:version="1.0.1 (c497b03c, 2020-09-10)">
  <sodipodi:namedview
     pagecolor="#ffffff"
     bordercolor="#666666"
     borderopacity="1"
     objecttolerance="10"
     gridtolerance="10"
     guidetolerance="10"
     inkscape:pageopacity="0"
     inkscape:pageshadow="2"
     inkscape:window-width="1176"
     inkscape:window-height="629"
     id="namedview49"
     showgrid="false"
     inkscape:zoom="0.63930723"
     inkscape:cx="458.46"
     inkscape:cy="154.41"
     inkscape:window-x="0"
     inkscape:window-y="25"
     inkscape:window-maximized="0"
     inkscape:current-layer="Warstwa_1" />
  <metadata
     id="metadata87">
    <rdf:RDF>
      <cc:Work
         rdf:about="">
        <dc:format>image/svg+xml</dc:format>
        <dc:type
           rdf:resource="http://purl.org/dc/dcmitype/StillImage" />
        <dc:title></dc:title>
      </cc:Work>
    </rdf:RDF>
  </metadata>
  <defs
     id="defs12">
    <style
       id="style10">.cls-1{fill:#141414;}</style>
  </defs>
  <path
     class="cls-1"
     d="m 541.84,103.11 v 4 h -22.51 v -36 l 4.37,0.05 v 32 z"
     id="path14" />
  <path
     class="cls-1"
     d="m 572.03,103.26 v 3.81 h -6.32 l -1.54,-3 c -1.6,2.31 -4.27,3.49 -7.71,3.49 -5.19,0 -8.69,-2.62 -8.69,-7.4 0,-10.28 16.35,-3.75 16.35,-9.25 v -0.16 c 0,-2.26 -1.55,-4.52 -5.3,-4.52 -3.34,0 -5.24,1.8 -6.27,4.57 l -3.6,-1.85 a 10.17,10.17 0 0 1 10,-6.58 c 5.65,0 9.45,3.4 9.45,8.59 v 12.28 z m -7.91,-5 v -3.14 c -4.12,2.11 -12.08,0.16 -12.08,5.19 0,3 2.67,3.4 4.57,3.4 5.85,0.02 7.51,-3.38 7.51,-5.43 z"
     id="path16" />
  <path
     class="cls-1"
     d="m 602.04,94.99 c 0,5.75 -3.14,12.59 -11.05,12.59 a 9.08,9.08 0 0 1 -7.51,-3.34 l -1.75,2.83 h -2.62 v -36 h 4.27 l -0.16,14.9 a 9.23,9.23 0 0 1 7.77,-3.6 c 7.91,0.04 11.05,6.91 11.05,12.62 z m -4.27,0 c 0,-5.35 -2.62,-8.74 -7.14,-8.74 -4.52,0 -7.82,3.34 -7.82,8.48 0,5.65 3.29,9 7.82,9 4.53,0 7.14,-3.4 7.14,-8.74 z"
     id="path18" />
  <path
     class="cls-1"
     d="m 609.67,94.73 c 0,-5.91 3.34,-12.34 11.46,-12.34 8.12,0 11.46,6.43 11.46,12.34 0,6.43 -3.34,12.85 -11.46,12.85 -8.12,0 -11.46,-6.42 -11.46,-12.85 z m 18.66,0 c 0,-5.14 -2.57,-8.48 -7.2,-8.48 -4.63,0 -7.19,3.34 -7.19,8.48 0,5.65 2.57,9 7.19,9 4.62,0 7.2,-3.32 7.2,-9 z"
     id="path20" />
  <path
     class="cls-1"
     d="m 663.21,88.97 -3.65,1.7 c -1.23,-3.13 -2.31,-4.42 -5,-4.42 -5.7,0 -6.63,5.7 -6.63,9.92 v 7 h 5 v 3.86 h -13.88 v -3.82 h 4.58 V 86.76 h -4.06 v -3.85 h 6.68 l 2,3.19 a 7.69,7.69 0 0 1 6.69,-3.71 c 3.52,0.02 6.52,1.86 8.27,6.58 z"
     id="path22" />
  <path
     class="cls-1"
     d="m 693.97,103.26 v 3.81 h -6.32 l -1.54,-3 c -1.59,2.31 -4.27,3.49 -7.71,3.49 -5.19,0 -8.69,-2.62 -8.69,-7.4 0,-10.28 16.35,-3.75 16.35,-9.25 v -0.16 c 0,-2.26 -1.54,-4.52 -5.3,-4.52 -3.34,0 -5.24,1.8 -6.27,4.57 l -3.59,-1.85 a 10.15,10.15 0 0 1 10,-6.58 c 5.65,0 9.46,3.4 9.46,8.59 v 12.28 z m -7.91,-5 v -3.14 c -4.11,2.11 -12.08,0.16 -12.08,5.19 0,3 2.67,3.4 4.57,3.4 5.91,0.02 7.51,-3.38 7.51,-5.43 z"
     id="path24" />
  <path
     class="cls-1"
     d="m 722.51,100.95 c -1.49,4.27 -4.31,6.63 -9,6.63 -5.66,0 -8.94,-3.44 -8.94,-9.3 V 86.76 h -6.48 v -3.85 h 6.48 v -8.64 h 4.26 v 8.64 h 12.49 v 3.85 h -12.48 v 10.85 c 0,2 0,6.12 4.73,6.12 3.34,0 4.32,-2 5.35,-4.58 z"
     id="path26" />
  <path
     class="cls-1"
     d="m 729.77,94.73 c 0,-5.91 3.34,-12.34 11.47,-12.34 8.13,0 11.46,6.43 11.46,12.34 0,6.43 -3.34,12.85 -11.46,12.85 -8.12,0 -11.47,-6.42 -11.47,-12.85 z m 18.66,0 c 0,-5.14 -2.57,-8.48 -7.19,-8.48 -4.62,0 -7.2,3.34 -7.2,8.48 0,5.65 2.57,9 7.2,9 4.63,0 7.22,-3.32 7.22,-9 z"
     id="path28" />
  <path
     class="cls-1"
     d="m 782.1,103.21 v 3.86 h -22.72 v -3.86 h 9.2 V 86.76 h -8.12 v -3.85 h 12.44 l 0.05,20.3 z m -8.74,-26.16 h -6 v -6 h 6 z"
     id="path30" />
  <path
     class="cls-1"
     d="m 813.76,88.97 -3.65,1.7 c -1.23,-3.13 -2.31,-4.42 -5,-4.42 -5.71,0 -6.63,5.7 -6.63,9.92 v 7 h 5 v 3.86 h -13.87 v -3.82 h 4.57 V 86.76 h -4.06 v -3.85 h 6.68 l 2,3.19 a 7.66,7.66 0 0 1 6.66,-3.69 c 3.52,0 6.56,1.84 8.3,6.56 z"
     id="path32" />
  <path
     class="cls-1"
     d="m 843.68,94.99 v 1.13 h -18.87 c 0.36,4.73 3,7.66 8,7.66 3.44,0 5.65,-1.44 6.68,-4.58 l 3.6,1.85 c -1.54,3.65 -4.58,6.58 -10.44,6.58 -8.78,0 -12.12,-6.53 -12.12,-12.64 0,-6.11 3.23,-12.55 11.87,-12.55 8.35,-0.03 11.59,6.07 11.28,12.55 z m -18.71,-2.68 14.24,0.06 c -0.31,-4.22 -2.93,-6.12 -6.79,-6.12 -4.26,0 -6.73,2.31 -7.45,6.06 z"
     id="path34" />
  <path
     class="cls-1"
     d="m 537.53,171.31 0.15,-27.86 -6.68,12.18 h -2.78 l -6.68,-12.22 0.16,27.86 h -4.37 v -36 h 3.49 l 8.74,15.27 8.74,-15.27 h 3.49 l 0.06,36 z"
     id="path36" />
  <path
     class="cls-1"
     d="m 571.96,159.23 -0.06,1.13 -18.86,-0.05 c 0.36,4.73 3,7.66 8,7.66 3.44,0 5.65,-1.44 6.68,-4.58 l 3.6,1.86 c -1.54,3.64 -4.58,6.57 -10.44,6.57 -8.79,0 -12.13,-6.52 -12.13,-12.64 0,-6.12 3.24,-12.54 11.88,-12.54 8.4,0 11.63,6.12 11.33,12.59 z m -18.71,-2.67 14.23,0.05 c -0.3,-4.21 -2.93,-6.12 -6.78,-6.12 -4.24,0 -6.73,2.32 -7.45,6.07 z m 9,-15.06 h -4.06 l 3.5,-8.74 h 4.57 z"
     id="path38" />
  <path
     class="cls-1"
     d="m 602.39,165.19 c -1.49,4.27 -4.32,6.63 -9,6.63 -5.66,0 -9,-3.44 -9,-9.3 v -11.51 h -6.47 v -3.86 h 6.54 v -8.63 h 4.27 v 8.63 h 12.49 v 3.86 h -12.5 v 10.84 c 0,2 0,6.12 4.73,6.12 3.34,0 4.31,-2 5.34,-4.58 z"
     id="path40" />
  <path
     class="cls-1"
     d="m 631.37,156.61 -0.06,14.7 h -4.26 v -13.57 -1.13 c 0,-1.23 0,-6.12 -5.55,-6.12 -6.27,0 -6.68,6.17 -6.68,9.87 v 10.95 h -4.27 v -36 h 4.27 l -0.16,15.73 a 8.35,8.35 0 0 1 7.61,-4.42 c 5.5,0.02 9.1,4.08 9.1,9.99 z"
     id="path42" />
  <path
     class="cls-1"
     d="m 639.93,158.97 c 0,-5.91 3.34,-12.33 11.46,-12.33 8.12,0 11.46,6.42 11.46,12.33 0,6.43 -3.33,12.85 -11.46,12.85 -8.13,0 -11.46,-6.41 -11.46,-12.85 z m 18.66,0 c 0,-5.14 -2.57,-8.48 -7.2,-8.48 -4.63,0 -7.19,3.34 -7.19,8.48 0,5.66 2.57,9 7.19,9 4.62,0 7.2,-3.34 7.2,-9 z"
     id="path44" />
  <path
     class="cls-1"
     d="m 693.46,135.33 v 36 h -2.62 l -1.74,-2.83 a 9.07,9.07 0 0 1 -7.51,3.34 c -7.92,0 -11.05,-6.83 -11.05,-12.59 0,-5.76 3.13,-12.59 11.05,-12.59 a 9.17,9.17 0 0 1 7.76,3.6 l -0.15,-14.91 z m -3.7,23.64 c 0,-5.14 -3.29,-8.48 -7.81,-8.48 -4.52,0 -7.14,3.4 -7.14,8.74 0,5.34 2.62,8.74 7.14,8.74 4.52,0 7.76,-3.34 7.76,-9 z"
     id="path46" />
  <path
     class="cls-1"
     d="m 724.77,159.23 v 1.13 l -18.87,-0.05 c 0.36,4.73 3,7.66 8,7.66 3.45,0 5.66,-1.44 6.68,-4.58 l 3.6,1.86 c -1.54,3.64 -4.57,6.57 -10.43,6.57 -8.79,0 -12.13,-6.52 -12.13,-12.64 0,-6.12 3.23,-12.54 11.87,-12.54 8.35,0 11.59,6.12 11.28,12.59 z m -18.71,-2.67 14.24,0.05 c -0.31,-4.21 -2.93,-6.12 -6.79,-6.12 -4.26,0 -6.73,2.32 -7.45,6.07 z"
     id="path48" />
  <path
     class="cls-1"
     d="m 736.01,163.41 c 1.29,2.83 2.68,4.58 7.51,4.58 2.72,0 5.08,-0.57 5.08,-3.45 0,-2.62 -2,-2.82 -5.65,-3.54 -4.52,-0.88 -9.1,-2.06 -9.1,-7.15 0,-4.78 4,-7.19 9,-7.19 5.19,0 8.58,2.62 10,6.58 l -3.6,1.85 c -1,-2.47 -2.36,-4.58 -6.53,-4.58 -2.67,0 -4.57,0.88 -4.57,3.34 0,1.85 1,2.42 4.88,3.19 4.47,0.87 9.87,1.75 9.87,7.5 0,5.2 -4.27,7.3 -9.92,7.3 -5.35,0 -9,-2.62 -10.54,-6.57 z"
     id="path50" />
  <path
     class="cls-1"
     d="m 522.72,203.53 v 11.67 h 15.53 v 4 h -15.53 v 16.39 h -4.36 v -36 h 22.46 v 4 z"
     id="path52" />
  <path
     class="cls-1"
     d="m 545.98,223.22 c 0,-5.91 3.34,-12.34 11.47,-12.34 8.13,0 11.46,6.43 11.46,12.34 0,6.42 -3.34,12.85 -11.46,12.85 -8.12,0 -11.47,-6.43 -11.47,-12.85 z m 18.66,0 c 0,-5.14 -2.57,-8.48 -7.19,-8.48 -4.62,0 -7.2,3.34 -7.2,8.48 0,5.65 2.57,9 7.2,9 4.63,0 7.19,-3.35 7.19,-9 z"
     id="path54" />
  <path
     class="cls-1"
     d="m 599.52,217.46 -3.65,1.7 c -1.23,-3.14 -2.31,-4.42 -5,-4.42 -5.71,0 -6.63,5.7 -6.63,9.92 v 7 h 5 v 3.85 h -13.87 v -3.85 h 4.57 v -16.41 h -4.06 v -3.84 h 6.68 l 2,3.18 a 7.66,7.66 0 0 1 6.68,-3.7 c 3.5,-0.01 6.54,1.84 8.28,6.57 z"
     id="path56" />
  <path
     class="cls-1"
     d="m 632.78,221.73 v 14 h -4.27 v -14 c 0,-2.78 0,-7 -3,-7 -2.36,0 -4.16,2.62 -4.16,9.87 v 10.94 h -4.17 l -0.1,-14 c 0,-3.44 -0.26,-7 -3,-7 -2.37,0 -4.16,2.62 -4.16,9.87 v 11.1 h -4.12 v -24.1 h 2.63 l 1.38,2.21 a 5.5,5.5 0 0 1 4.94,-2.73 c 3,0 4.68,1.85 5.6,4.11 1.08,-2.31 2.93,-4.11 6,-4.11 6.64,-0.01 6.43,7.7 6.43,10.84 z"
     id="path58" />
  <path
     class="cls-1"
     d="m 662.98,223.47 v 1.14 l -18.87,-0.06 c 0.36,4.73 3,7.66 8,7.66 3.44,0 5.66,-1.44 6.68,-4.57 l 3.6,1.85 c -1.54,3.65 -4.57,6.58 -10.43,6.58 -8.79,0 -12.13,-6.53 -12.13,-12.65 0,-6.12 3.23,-12.54 11.87,-12.54 8.35,0 11.59,6.12 11.28,12.59 z m -18.71,-2.67 14.24,0.05 c -0.31,-4.21 -2.93,-6.11 -6.79,-6.11 -4.26,0 -6.73,2.31 -7.45,6.06 z"
     id="path60" />
  <path
     class="cls-1"
     d="m 691.82,231.7 v 3.85 h -21.69 v -3.85 h 8.74 v -28.27 h -7.15 v -3.86 h 11.41 v 3.84 0 28.27 z"
     id="path62" />
  <path
     class="cls-1"
     d="m 721.75,231.7 v 3.85 h -21.69 v -3.85 h 8.73 l -0.05,-28.29 h -7.14 v -3.86 h 11.41 v 3.86 0 28.27 z"
     id="path64" />
  <path
     class="cls-1"
     d="m 751.82,223.47 -0.05,1.14 -18.87,-0.06 c 0.36,4.73 3,7.66 8,7.66 3.44,0 5.65,-1.44 6.68,-4.57 l 3.6,1.85 c -1.54,3.65 -4.58,6.58 -10.44,6.58 -8.79,0 -12.13,-6.53 -12.13,-12.65 0,-6.12 3.24,-12.54 11.88,-12.54 8.4,0 11.64,6.12 11.33,12.59 z m -18.71,-2.67 14.24,0.05 c -0.31,-4.21 -2.93,-6.11 -6.79,-6.11 -4.26,0 -6.73,2.31 -7.45,6.06 z"
     id="path66" />
  <path
     class="cls-1"
     d="m 763.06,227.64 c 1.29,2.83 2.67,4.57 7.5,4.57 2.73,0 5.09,-0.56 5.09,-3.44 0,-2.62 -2,-2.83 -5.65,-3.55 -4.52,-0.87 -9.1,-2.05 -9.1,-7.14 0,-4.78 4,-7.2 8.95,-7.2 5.19,0 8.58,2.62 10,6.58 l -3.6,1.85 c -1,-2.47 -2.37,-4.57 -6.53,-4.57 -2.67,0 -4.57,0.87 -4.57,3.34 0,1.85 1,2.41 4.88,3.18 4.47,0.88 9.87,1.75 9.87,7.51 0,5.19 -4.27,7.3 -9.92,7.3 -5.35,0 -9,-2.62 -10.54,-6.58 z"
     id="path68" />
  <rect
     class="cls-1"
     x="308.36002"
     y="152.57001"
     width="137.05"
     height="3.21"
     id="rect70" />
  <path
     class="cls-1"
     d="M 913.31,20.34 V 288.02 H 448.62 V 20.34 h 464.69 m 3.22,-3.21 H 445.46 v 274.1 H 916.58 V 17.13 Z"
     id="path72" />
  <polygon
     class="cls-1"
     points="244.07,373.69 244.07,394.03 265.49,394.03 308.32,394.03 308.32,373.69 265.49,373.69 265.49,325.51 244.07,325.51 "
     id="polygon74"
     transform="translate(-205.54,-205.59)" />
  <polygon
     class="cls-1"
     points="415.39,345.85 415.39,394.03 436.8,394.03 436.8,345.85 483.92,345.85 483.92,325.51 436.8,325.51 415.39,325.51 "
     id="polygon76"
     transform="translate(-205.54,-205.59)" />
  <circle
     class="cls-1"
     cx="253.56999"
     cy="162.75"
     r="12.85"
     id="circle78" />
  <path
     class="cls-1"
     d="m 175.59,123.92 -21.27,36.83 -21.56,-37.34 -2,-3.49 h -19.4 v 68.49 h 21.4 v -16.84 c 0,-6.67 -2.19,-17.39 -2.19,-17.39 l 12.68,25.76 2.4,4.16 h 17.22 l 2.46,-4.29 12.4,-25.4 c 0,0 -2.14,10.52 -2.14,16.92 v 17.08 H 197 v -68.49 h -19.1 z"
     id="path80" />
  <path
     class="cls-1"
     d="M 154.17,3.2429628e-7 A 154.18,154.18 0 1 0 308.36,154.18 154.18,154.18 0 0 0 154.17,3.2429628e-7 Z M 154.17,305.24 C 70.88,305.24 3.11,237.47 3.11,154.18 3.11,70.89 70.88,3.1200003 154.17,3.1200003 237.46,3.1200003 305.23,70.89 305.23,154.18 c 0,83.29 -67.77,151.06 -151.06,151.06 z"
     id="path82" />
</svg>
