<?xml version="1.0" encoding="UTF-8" standalone="no"?>
<!-- Created with Inkscape (http://www.inkscape.org/) -->

<svg
   version="1.1"
   id="svg2"
   width="466.66666"
   height="93.333336"
   viewBox="0 0 466.66666 93.333336"
   sodipodi:docname="qft6.svg"
   inkscape:version="1.2.2 (b0a8486541, 2022-12-01)"
   xmlns:inkscape="http://www.inkscape.org/namespaces/inkscape"
   xmlns:sodipodi="http://sodipodi.sourceforge.net/DTD/sodipodi-0.dtd"
   xmlns="http://www.w3.org/2000/svg"
   xmlns:svg="http://www.w3.org/2000/svg">
  <defs
     id="defs6" />
  <sodipodi:namedview
     id="namedview4"
     pagecolor="#ffffff"
     bordercolor="#cccccc"
     borderopacity="1"
     inkscape:showpageshadow="0"
     inkscape:pageopacity="1"
     inkscape:pagecheckerboard="0"
     inkscape:deskcolor="#d1d1d1"
     showgrid="false"
     inkscape:zoom="2.9528572"
     inkscape:cx="210.98209"
     inkscape:cy="46.734396"
     inkscape:window-width="1920"
     inkscape:window-height="1039"
     inkscape:window-x="0"
     inkscape:window-y="41"
     inkscape:window-maximized="1"
     inkscape:current-layer="g10">
    <inkscape:page
       x="0"
       y="0"
       id="page8"
       width="466.66666"
       height="93.333336" />
  </sodipodi:namedview>
  <g
     id="g10"
     inkscape:groupmode="layer"
     inkscape:label="Page 1"
     transform="matrix(13.333333,0,0,-13.333333,33.333332,80)">
    <path
       d="M 1.5,4 V 5"
       style="fill:none;stroke:#000000;stroke-width:0.02;stroke-linecap:butt;stroke-linejoin:miter;stroke-miterlimit:10;stroke-dasharray:none;stroke-opacity:1"
       id="path12" />
    <path
       d="M 3,3 V 5"
       style="fill:none;stroke:#000000;stroke-width:0.02;stroke-linecap:butt;stroke-linejoin:miter;stroke-miterlimit:10;stroke-dasharray:none;stroke-opacity:1"
       id="path14" />
    <path
       d="M 4.5,2 V 5"
       style="fill:none;stroke:#000000;stroke-width:0.02;stroke-linecap:butt;stroke-linejoin:miter;stroke-miterlimit:10;stroke-dasharray:none;stroke-opacity:1"
       id="path16" />
    <path
       d="M 6,1 V 5"
       style="fill:none;stroke:#000000;stroke-width:0.02;stroke-linecap:butt;stroke-linejoin:miter;stroke-miterlimit:10;stroke-dasharray:none;stroke-opacity:1"
       id="path18" />
    <path
       d="M 7.5,0 V 5"
       style="fill:none;stroke:#000000;stroke-width:0.02;stroke-linecap:butt;stroke-linejoin:miter;stroke-miterlimit:10;stroke-dasharray:none;stroke-opacity:1"
       id="path20" />
    <path
       d="M 10.5,3 V 4"
       style="fill:none;stroke:#000000;stroke-width:0.02;stroke-linecap:butt;stroke-linejoin:miter;stroke-miterlimit:10;stroke-dasharray:none;stroke-opacity:1"
       id="path22" />
    <path
       d="M 12,2 V 4"
       style="fill:none;stroke:#000000;stroke-width:0.02;stroke-linecap:butt;stroke-linejoin:miter;stroke-miterlimit:10;stroke-dasharray:none;stroke-opacity:1"
       id="path24" />
    <path
       d="M 13.5,1 V 4"
       style="fill:none;stroke:#000000;stroke-width:0.02;stroke-linecap:butt;stroke-linejoin:miter;stroke-miterlimit:10;stroke-dasharray:none;stroke-opacity:1"
       id="path26" />
    <path
       d="M 15,0 V 4"
       style="fill:none;stroke:#000000;stroke-width:0.02;stroke-linecap:butt;stroke-linejoin:miter;stroke-miterlimit:10;stroke-dasharray:none;stroke-opacity:1"
       id="path28" />
    <path
       d="M 18,2 V 3"
       style="fill:none;stroke:#000000;stroke-width:0.02;stroke-linecap:butt;stroke-linejoin:miter;stroke-miterlimit:10;stroke-dasharray:none;stroke-opacity:1"
       id="path30" />
    <path
       d="M 19.5,1 V 3"
       style="fill:none;stroke:#000000;stroke-width:0.02;stroke-linecap:butt;stroke-linejoin:miter;stroke-miterlimit:10;stroke-dasharray:none;stroke-opacity:1"
       id="path32" />
    <path
       d="M 21,0 V 3"
       style="fill:none;stroke:#000000;stroke-width:0.02;stroke-linecap:butt;stroke-linejoin:miter;stroke-miterlimit:10;stroke-dasharray:none;stroke-opacity:1"
       id="path34" />
    <path
       d="M 24,1 V 2"
       style="fill:none;stroke:#000000;stroke-width:0.02;stroke-linecap:butt;stroke-linejoin:miter;stroke-miterlimit:10;stroke-dasharray:none;stroke-opacity:1"
       id="path36" />
    <path
       d="M 25.5,0 V 2"
       style="fill:none;stroke:#000000;stroke-width:0.02;stroke-linecap:butt;stroke-linejoin:miter;stroke-miterlimit:10;stroke-dasharray:none;stroke-opacity:1"
       id="path38" />
    <path
       d="M 28.5,0 V 1"
       style="fill:none;stroke:#000000;stroke-width:0.02;stroke-linecap:butt;stroke-linejoin:miter;stroke-miterlimit:10;stroke-dasharray:none;stroke-opacity:1"
       id="path40" />
    <path
       d="m -1.5,5 h 33"
       style="fill:none;stroke:#000000;stroke-width:0.02;stroke-linecap:butt;stroke-linejoin:miter;stroke-miterlimit:10;stroke-dasharray:none;stroke-opacity:1"
       id="path42" />
    <path
       d="m -1.5,4 h 33"
       style="fill:none;stroke:#000000;stroke-width:0.02;stroke-linecap:butt;stroke-linejoin:miter;stroke-miterlimit:10;stroke-dasharray:none;stroke-opacity:1"
       id="path44" />
    <path
       d="m -1.5,3 h 33"
       style="fill:none;stroke:#000000;stroke-width:0.02;stroke-linecap:butt;stroke-linejoin:miter;stroke-miterlimit:10;stroke-dasharray:none;stroke-opacity:1"
       id="path46" />
    <path
       d="m -1.5,2 h 33"
       style="fill:none;stroke:#000000;stroke-width:0.02;stroke-linecap:butt;stroke-linejoin:miter;stroke-miterlimit:10;stroke-dasharray:none;stroke-opacity:1"
       id="path48" />
    <path
       d="m -1.5,1 h 33"
       style="fill:none;stroke:#000000;stroke-width:0.02;stroke-linecap:butt;stroke-linejoin:miter;stroke-miterlimit:10;stroke-dasharray:none;stroke-opacity:1"
       id="path50" />
    <path
       d="m -1.5,0 h 33"
       style="fill:none;stroke:#000000;stroke-width:0.02;stroke-linecap:butt;stroke-linejoin:miter;stroke-miterlimit:10;stroke-dasharray:none;stroke-opacity:1"
       id="path52" />
    <path
       d="m -0.3296875,4.6 h 0.659375 v 0.8 h -0.659375 z"
       style="fill:#ffffff;fill-opacity:1;fill-rule:nonzero;stroke:#000000;stroke-width:0.02;stroke-linecap:butt;stroke-linejoin:miter;stroke-miterlimit:10;stroke-dasharray:none;stroke-opacity:1"
       id="path54" />
    <text
       xml:space="preserve"
       transform="matrix(1,0,0,-1,-0.1796875,4.875)"
       style="font-variant:normal;font-weight:normal;font-size:0.5px;font-family:Times;-inkscape-font-specification:Times-Roman;writing-mode:lr-tb;fill:#000000;fill-opacity:1;fill-rule:nonzero;stroke:none"
       id="text58"><tspan
         x="0"
         y="0"
         id="tspan56">H</tspan></text>
    <path
       d="M 0.892969,4.6 H 2.107031 V 5.4 H 0.892969 Z"
       style="fill:#ffffff;fill-opacity:1;fill-rule:nonzero;stroke:#000000;stroke-width:0.02;stroke-linecap:butt;stroke-linejoin:miter;stroke-miterlimit:10;stroke-dasharray:none;stroke-opacity:1"
       id="path60" />
    <text
       xml:space="preserve"
       transform="matrix(1,0,0,-1,1.042969,4.875)"
       style="font-variant:normal;font-weight:normal;font-size:0.5px;font-family:Times;-inkscape-font-specification:Times-Roman;writing-mode:lr-tb;fill:#000000;fill-opacity:1;fill-rule:nonzero;stroke:none"
       id="text64"><tspan
         x="0 0.3335 0.5 0.75"
         y="0"
         sodipodi:role="line"
         id="tspan62">R(2)</tspan></text>
    <path
       d="M 1.65,4 C 1.65,4.082843 1.582843,4.15 1.5,4.15 1.417157,4.15 1.35,4.082843 1.35,4 1.35,3.917157 1.417157,3.85 1.5,3.85 1.582843,3.85 1.65,3.917157 1.65,4"
       style="fill:#000000;fill-opacity:1;fill-rule:nonzero;stroke:none"
       id="path66" />
    <path
       d="M 2.392969,4.6 H 3.607031 V 5.4 H 2.392969 Z"
       style="fill:#ffffff;fill-opacity:1;fill-rule:nonzero;stroke:#000000;stroke-width:0.02;stroke-linecap:butt;stroke-linejoin:miter;stroke-miterlimit:10;stroke-dasharray:none;stroke-opacity:1"
       id="path68" />
    <text
       xml:space="preserve"
       transform="matrix(1,0,0,-1,2.542969,4.875)"
       style="font-variant:normal;font-weight:normal;font-size:0.5px;font-family:Times;-inkscape-font-specification:Times-Roman;writing-mode:lr-tb;fill:#000000;fill-opacity:1;fill-rule:nonzero;stroke:none"
       id="text72"><tspan
         x="0 0.3335 0.5 0.75"
         y="0"
         sodipodi:role="line"
         id="tspan70">R(3)</tspan></text>
    <path
       d="M 3.15,3 C 3.15,3.0828427 3.0828427,3.15 3,3.15 2.9171573,3.15 2.85,3.0828427 2.85,3 2.85,2.9171573 2.9171573,2.85 3,2.85 3.082843,2.85 3.15,2.917157 3.15,3"
       style="fill:#000000;fill-opacity:1;fill-rule:nonzero;stroke:none"
       id="path74" />
    <path
       d="M 3.892969,4.6 H 5.107031 V 5.4 H 3.892969 Z"
       style="fill:#ffffff;fill-opacity:1;fill-rule:nonzero;stroke:#000000;stroke-width:0.02;stroke-linecap:butt;stroke-linejoin:miter;stroke-miterlimit:10;stroke-dasharray:none;stroke-opacity:1"
       id="path76" />
    <text
       xml:space="preserve"
       transform="matrix(1,0,0,-1,4.042969,4.875)"
       style="font-variant:normal;font-weight:normal;font-size:0.5px;font-family:Times;-inkscape-font-specification:Times-Roman;writing-mode:lr-tb;fill:#000000;fill-opacity:1;fill-rule:nonzero;stroke:none"
       id="text80"><tspan
         x="0 0.3335 0.5 0.75"
         y="0"
         sodipodi:role="line"
         id="tspan78">R(4)</tspan></text>
    <path
       d="M 4.65,2 C 4.65,2.082843 4.582843,2.15 4.5,2.15 4.417157,2.15 4.35,2.082843 4.35,2 4.35,1.917157 4.417157,1.85 4.5,1.85 4.582843,1.85 4.65,1.917157 4.65,2"
       style="fill:#000000;fill-opacity:1;fill-rule:nonzero;stroke:none"
       id="path82" />
    <path
       d="M 5.392969,4.6 H 6.607031 V 5.4 H 5.392969 Z"
       style="fill:#ffffff;fill-opacity:1;fill-rule:nonzero;stroke:#000000;stroke-width:0.02;stroke-linecap:butt;stroke-linejoin:miter;stroke-miterlimit:10;stroke-dasharray:none;stroke-opacity:1"
       id="path84" />
    <text
       xml:space="preserve"
       transform="matrix(1,0,0,-1,5.542969,4.875)"
       style="font-variant:normal;font-weight:normal;font-size:0.5px;font-family:Times;-inkscape-font-specification:Times-Roman;writing-mode:lr-tb;fill:#000000;fill-opacity:1;fill-rule:nonzero;stroke:none"
       id="text88"><tspan
         x="0 0.3335 0.5 0.75"
         y="0"
         sodipodi:role="line"
         id="tspan86">R(5)</tspan></text>
    <path
       d="M 6.15,1 C 6.15,1.0828427 6.0828427,1.15 6,1.15 5.9171573,1.15 5.85,1.0828427 5.85,1 5.85,0.91715729 5.9171573,0.85 6,0.85 6.082843,0.85 6.15,0.9171573 6.15,1"
       style="fill:#000000;fill-opacity:1;fill-rule:nonzero;stroke:none"
       id="path90" />
    <path
       d="M 6.892969,4.6 H 8.107031 V 5.4 H 6.892969 Z"
       style="fill:#ffffff;fill-opacity:1;fill-rule:nonzero;stroke:#000000;stroke-width:0.02;stroke-linecap:butt;stroke-linejoin:miter;stroke-miterlimit:10;stroke-dasharray:none;stroke-opacity:1"
       id="path92" />
    <text
       xml:space="preserve"
       transform="matrix(1,0,0,-1,7.042969,4.875)"
       style="font-variant:normal;font-weight:normal;font-size:0.5px;font-family:Times;-inkscape-font-specification:Times-Roman;writing-mode:lr-tb;fill:#000000;fill-opacity:1;fill-rule:nonzero;stroke:none"
       id="text96"><tspan
         x="0 0.3335 0.5 0.75"
         y="0"
         sodipodi:role="line"
         id="tspan94">R(6)</tspan></text>
    <path
       d="M 7.65,0 C 7.65,0.08284271 7.5828427,0.15 7.5,0.15 7.4171573,0.15 7.35,0.08284271 7.35,0 c 0,-0.08284271 0.067157,-0.15 0.15,-0.15 0.082843,0 0.15,0.06715729 0.15,0.15"
       style="fill:#000000;fill-opacity:1;fill-rule:nonzero;stroke:none"
       id="path98" />
    <path
       d="m 8.6703125,3.6 h 0.659375 v 0.8 h -0.659375 z"
       style="fill:#ffffff;fill-opacity:1;fill-rule:nonzero;stroke:#000000;stroke-width:0.02;stroke-linecap:butt;stroke-linejoin:miter;stroke-miterlimit:10;stroke-dasharray:none;stroke-opacity:1"
       id="path100" />
    <text
       xml:space="preserve"
       transform="matrix(1,0,0,-1,8.8203125,3.875)"
       style="font-variant:normal;font-weight:normal;font-size:0.5px;font-family:Times;-inkscape-font-specification:Times-Roman;writing-mode:lr-tb;fill:#000000;fill-opacity:1;fill-rule:nonzero;stroke:none"
       id="text104"><tspan
         x="0"
         y="0"
         id="tspan102">H</tspan></text>
    <path
       d="m 9.892969,3.6 h 1.214062 V 4.4 H 9.892969 Z"
       style="fill:#ffffff;fill-opacity:1;fill-rule:nonzero;stroke:#000000;stroke-width:0.02;stroke-linecap:butt;stroke-linejoin:miter;stroke-miterlimit:10;stroke-dasharray:none;stroke-opacity:1"
       id="path106" />
    <text
       xml:space="preserve"
       transform="matrix(1,0,0,-1,10.042969,3.875)"
       style="font-variant:normal;font-weight:normal;font-size:0.5px;font-family:Times;-inkscape-font-specification:Times-Roman;writing-mode:lr-tb;fill:#000000;fill-opacity:1;fill-rule:nonzero;stroke:none"
       id="text110"><tspan
         x="0 0.3335 0.5 0.75"
         y="0"
         sodipodi:role="line"
         id="tspan108">R(2)</tspan></text>
    <path
       d="m 10.65,3 c 0,0.082843 -0.06716,0.15 -0.15,0.15 -0.08284,0 -0.15,-0.067157 -0.15,-0.15 0,-0.082843 0.06716,-0.15 0.15,-0.15 0.08284,0 0.15,0.067157 0.15,0.15"
       style="fill:#000000;fill-opacity:1;fill-rule:nonzero;stroke:none"
       id="path112" />
    <path
       d="m 11.392969,3.6 h 1.214062 v 0.8 h -1.214062 z"
       style="fill:#ffffff;fill-opacity:1;fill-rule:nonzero;stroke:#000000;stroke-width:0.02;stroke-linecap:butt;stroke-linejoin:miter;stroke-miterlimit:10;stroke-dasharray:none;stroke-opacity:1"
       id="path114" />
    <text
       xml:space="preserve"
       transform="matrix(1,0,0,-1,11.542969,3.875)"
       style="font-variant:normal;font-weight:normal;font-size:0.5px;font-family:Times;-inkscape-font-specification:Times-Roman;writing-mode:lr-tb;fill:#000000;fill-opacity:1;fill-rule:nonzero;stroke:none"
       id="text118"><tspan
         x="0 0.3335 0.5 0.75"
         y="0"
         sodipodi:role="line"
         id="tspan116">R(3)</tspan></text>
    <path
       d="m 12.15,2 c 0,0.082843 -0.06716,0.15 -0.15,0.15 -0.08284,0 -0.15,-0.067157 -0.15,-0.15 0,-0.082843 0.06716,-0.15 0.15,-0.15 0.08284,0 0.15,0.067157 0.15,0.15"
       style="fill:#000000;fill-opacity:1;fill-rule:nonzero;stroke:none"
       id="path120" />
    <path
       d="m 12.892969,3.6 h 1.214062 v 0.8 h -1.214062 z"
       style="fill:#ffffff;fill-opacity:1;fill-rule:nonzero;stroke:#000000;stroke-width:0.02;stroke-linecap:butt;stroke-linejoin:miter;stroke-miterlimit:10;stroke-dasharray:none;stroke-opacity:1"
       id="path122" />
    <text
       xml:space="preserve"
       transform="matrix(1,0,0,-1,13.042969,3.875)"
       style="font-variant:normal;font-weight:normal;font-size:0.5px;font-family:Times;-inkscape-font-specification:Times-Roman;writing-mode:lr-tb;fill:#000000;fill-opacity:1;fill-rule:nonzero;stroke:none"
       id="text126"><tspan
         x="0 0.3335 0.5 0.75"
         y="0"
         sodipodi:role="line"
         id="tspan124">R(4)</tspan></text>
    <path
       d="m 13.65,1 c 0,0.082843 -0.06716,0.15 -0.15,0.15 -0.08284,0 -0.15,-0.067157 -0.15,-0.15 0,-0.0828427 0.06716,-0.15 0.15,-0.15 0.08284,0 0.15,0.0671573 0.15,0.15"
       style="fill:#000000;fill-opacity:1;fill-rule:nonzero;stroke:none"
       id="path128" />
    <path
       d="m 14.392969,3.6 h 1.214062 v 0.8 h -1.214062 z"
       style="fill:#ffffff;fill-opacity:1;fill-rule:nonzero;stroke:#000000;stroke-width:0.02;stroke-linecap:butt;stroke-linejoin:miter;stroke-miterlimit:10;stroke-dasharray:none;stroke-opacity:1"
       id="path130" />
    <text
       xml:space="preserve"
       transform="matrix(1,0,0,-1,14.542969,3.875)"
       style="font-variant:normal;font-weight:normal;font-size:0.5px;font-family:Times;-inkscape-font-specification:Times-Roman;writing-mode:lr-tb;fill:#000000;fill-opacity:1;fill-rule:nonzero;stroke:none"
       id="text134"><tspan
         x="0 0.3335 0.5 0.75"
         y="0"
         sodipodi:role="line"
         id="tspan132">R(5)</tspan></text>
    <path
       d="m 15.15,0 c 0,0.08284271 -0.06716,0.15 -0.15,0.15 -0.08284,0 -0.15,-0.06715729 -0.15,-0.15 0,-0.08284271 0.06716,-0.15 0.15,-0.15 0.08284,0 0.15,0.06715729 0.15,0.15"
       style="fill:#000000;fill-opacity:1;fill-rule:nonzero;stroke:none"
       id="path136" />
    <path
       d="m 16.170312,2.6 h 0.659375 v 0.8 h -0.659375 z"
       style="fill:#ffffff;fill-opacity:1;fill-rule:nonzero;stroke:#000000;stroke-width:0.02;stroke-linecap:butt;stroke-linejoin:miter;stroke-miterlimit:10;stroke-dasharray:none;stroke-opacity:1"
       id="path138" />
    <text
       xml:space="preserve"
       transform="matrix(1,0,0,-1,16.320312,2.875)"
       style="font-variant:normal;font-weight:normal;font-size:0.5px;font-family:Times;-inkscape-font-specification:Times-Roman;writing-mode:lr-tb;fill:#000000;fill-opacity:1;fill-rule:nonzero;stroke:none"
       id="text142"><tspan
         x="0"
         y="0"
         id="tspan140">H</tspan></text>
    <path
       d="m 17.392969,2.6 h 1.214062 v 0.8 h -1.214062 z"
       style="fill:#ffffff;fill-opacity:1;fill-rule:nonzero;stroke:#000000;stroke-width:0.02;stroke-linecap:butt;stroke-linejoin:miter;stroke-miterlimit:10;stroke-dasharray:none;stroke-opacity:1"
       id="path144" />
    <text
       xml:space="preserve"
       transform="matrix(1,0,0,-1,17.542969,2.875)"
       style="font-variant:normal;font-weight:normal;font-size:0.5px;font-family:Times;-inkscape-font-specification:Times-Roman;writing-mode:lr-tb;fill:#000000;fill-opacity:1;fill-rule:nonzero;stroke:none"
       id="text148"><tspan
         x="0 0.3335 0.5 0.75"
         y="0"
         sodipodi:role="line"
         id="tspan146">R(2)</tspan></text>
    <path
       d="m 18.15,2 c 0,0.082843 -0.06716,0.15 -0.15,0.15 -0.08284,0 -0.15,-0.067157 -0.15,-0.15 0,-0.082843 0.06716,-0.15 0.15,-0.15 0.08284,0 0.15,0.067157 0.15,0.15"
       style="fill:#000000;fill-opacity:1;fill-rule:nonzero;stroke:none"
       id="path150" />
    <path
       d="m 18.892969,2.6 h 1.214062 v 0.8 h -1.214062 z"
       style="fill:#ffffff;fill-opacity:1;fill-rule:nonzero;stroke:#000000;stroke-width:0.02;stroke-linecap:butt;stroke-linejoin:miter;stroke-miterlimit:10;stroke-dasharray:none;stroke-opacity:1"
       id="path152" />
    <text
       xml:space="preserve"
       transform="matrix(1,0,0,-1,19.042969,2.875)"
       style="font-variant:normal;font-weight:normal;font-size:0.5px;font-family:Times;-inkscape-font-specification:Times-Roman;writing-mode:lr-tb;fill:#000000;fill-opacity:1;fill-rule:nonzero;stroke:none"
       id="text156"><tspan
         x="0 0.3335 0.5 0.75"
         y="0"
         sodipodi:role="line"
         id="tspan154">R(3)</tspan></text>
    <path
       d="m 19.65,1 c 0,0.082843 -0.06716,0.15 -0.15,0.15 -0.08284,0 -0.15,-0.067157 -0.15,-0.15 0,-0.0828427 0.06716,-0.15 0.15,-0.15 0.08284,0 0.15,0.0671573 0.15,0.15"
       style="fill:#000000;fill-opacity:1;fill-rule:nonzero;stroke:none"
       id="path158" />
    <path
       d="m 20.392969,2.6 h 1.214062 v 0.8 h -1.214062 z"
       style="fill:#ffffff;fill-opacity:1;fill-rule:nonzero;stroke:#000000;stroke-width:0.02;stroke-linecap:butt;stroke-linejoin:miter;stroke-miterlimit:10;stroke-dasharray:none;stroke-opacity:1"
       id="path160" />
    <text
       xml:space="preserve"
       transform="matrix(1,0,0,-1,20.542969,2.875)"
       style="font-variant:normal;font-weight:normal;font-size:0.5px;font-family:Times;-inkscape-font-specification:Times-Roman;writing-mode:lr-tb;fill:#000000;fill-opacity:1;fill-rule:nonzero;stroke:none"
       id="text164"><tspan
         x="0 0.3335 0.5 0.75"
         y="0"
         sodipodi:role="line"
         id="tspan162">R(4)</tspan></text>
    <path
       d="m 21.15,0 c 0,0.08284271 -0.06716,0.15 -0.15,0.15 -0.08284,0 -0.15,-0.06715729 -0.15,-0.15 0,-0.08284271 0.06716,-0.15 0.15,-0.15 0.08284,0 0.15,0.06715729 0.15,0.15"
       style="fill:#000000;fill-opacity:1;fill-rule:nonzero;stroke:none"
       id="path166" />
    <path
       d="m 22.170312,1.6 h 0.659375 v 0.8 h -0.659375 z"
       style="fill:#ffffff;fill-opacity:1;fill-rule:nonzero;stroke:#000000;stroke-width:0.02;stroke-linecap:butt;stroke-linejoin:miter;stroke-miterlimit:10;stroke-dasharray:none;stroke-opacity:1"
       id="path168" />
    <text
       xml:space="preserve"
       transform="matrix(1,0,0,-1,22.320312,1.875)"
       style="font-variant:normal;font-weight:normal;font-size:0.5px;font-family:Times;-inkscape-font-specification:Times-Roman;writing-mode:lr-tb;fill:#000000;fill-opacity:1;fill-rule:nonzero;stroke:none"
       id="text172"><tspan
         x="0"
         y="0"
         id="tspan170">H</tspan></text>
    <path
       d="m 23.392969,1.6 h 1.214062 v 0.8 h -1.214062 z"
       style="fill:#ffffff;fill-opacity:1;fill-rule:nonzero;stroke:#000000;stroke-width:0.02;stroke-linecap:butt;stroke-linejoin:miter;stroke-miterlimit:10;stroke-dasharray:none;stroke-opacity:1"
       id="path174" />
    <text
       xml:space="preserve"
       transform="matrix(1,0,0,-1,23.542969,1.875)"
       style="font-variant:normal;font-weight:normal;font-size:0.5px;font-family:Times;-inkscape-font-specification:Times-Roman;writing-mode:lr-tb;fill:#000000;fill-opacity:1;fill-rule:nonzero;stroke:none"
       id="text178"><tspan
         x="0 0.3335 0.5 0.75"
         y="0"
         sodipodi:role="line"
         id="tspan176">R(2)</tspan></text>
    <path
       d="m 24.15,1 c 0,0.082843 -0.06716,0.15 -0.15,0.15 -0.08284,0 -0.15,-0.067157 -0.15,-0.15 0,-0.0828427 0.06716,-0.15 0.15,-0.15 0.08284,0 0.15,0.0671573 0.15,0.15"
       style="fill:#000000;fill-opacity:1;fill-rule:nonzero;stroke:none"
       id="path180" />
    <path
       d="m 24.892969,1.6 h 1.214062 v 0.8 h -1.214062 z"
       style="fill:#ffffff;fill-opacity:1;fill-rule:nonzero;stroke:#000000;stroke-width:0.02;stroke-linecap:butt;stroke-linejoin:miter;stroke-miterlimit:10;stroke-dasharray:none;stroke-opacity:1"
       id="path182" />
    <text
       xml:space="preserve"
       transform="matrix(1,0,0,-1,25.042969,1.875)"
       style="font-variant:normal;font-weight:normal;font-size:0.5px;font-family:Times;-inkscape-font-specification:Times-Roman;writing-mode:lr-tb;fill:#000000;fill-opacity:1;fill-rule:nonzero;stroke:none"
       id="text186"><tspan
         x="0 0.3335 0.5 0.75"
         y="0"
         sodipodi:role="line"
         id="tspan184">R(3)</tspan></text>
    <path
       d="m 25.65,0 c 0,0.08284271 -0.06716,0.15 -0.15,0.15 -0.08284,0 -0.15,-0.06715729 -0.15,-0.15 0,-0.08284271 0.06716,-0.15 0.15,-0.15 0.08284,0 0.15,0.06715729 0.15,0.15"
       style="fill:#000000;fill-opacity:1;fill-rule:nonzero;stroke:none"
       id="path188" />
    <path
       d="m 26.670312,0.6 h 0.659375 v 0.8 h -0.659375 z"
       style="fill:#ffffff;fill-opacity:1;fill-rule:nonzero;stroke:#000000;stroke-width:0.02;stroke-linecap:butt;stroke-linejoin:miter;stroke-miterlimit:10;stroke-dasharray:none;stroke-opacity:1"
       id="path190" />
    <text
       xml:space="preserve"
       transform="matrix(1,0,0,-1,26.820312,0.875)"
       style="font-variant:normal;font-weight:normal;font-size:0.5px;font-family:Times;-inkscape-font-specification:Times-Roman;writing-mode:lr-tb;fill:#000000;fill-opacity:1;fill-rule:nonzero;stroke:none"
       id="text194"><tspan
         x="0"
         y="0"
         id="tspan192">H</tspan></text>
    <path
       d="m 27.892969,0.6 h 1.214062 v 0.8 h -1.214062 z"
       style="fill:#ffffff;fill-opacity:1;fill-rule:nonzero;stroke:#000000;stroke-width:0.02;stroke-linecap:butt;stroke-linejoin:miter;stroke-miterlimit:10;stroke-dasharray:none;stroke-opacity:1"
       id="path196" />
    <text
       xml:space="preserve"
       transform="matrix(1,0,0,-1,28.042969,0.875)"
       style="font-variant:normal;font-weight:normal;font-size:0.5px;font-family:Times;-inkscape-font-specification:Times-Roman;writing-mode:lr-tb;fill:#000000;fill-opacity:1;fill-rule:nonzero;stroke:none"
       id="text200"><tspan
         x="0 0.3335 0.5 0.75"
         y="0"
         sodipodi:role="line"
         id="tspan198">R(2)</tspan></text>
    <path
       d="m 28.65,0 c 0,0.08284271 -0.06716,0.15 -0.15,0.15 -0.08284,0 -0.15,-0.06715729 -0.15,-0.15 0,-0.08284271 0.06716,-0.15 0.15,-0.15 0.08284,0 0.15,0.06715729 0.15,0.15"
       style="fill:#000000;fill-opacity:1;fill-rule:nonzero;stroke:none"
       id="path202" />
    <path
       d="m 29.670312,-0.4 h 0.659375 v 0.8 h -0.659375 z"
       style="fill:#ffffff;fill-opacity:1;fill-rule:nonzero;stroke:#000000;stroke-width:0.02;stroke-linecap:butt;stroke-linejoin:miter;stroke-miterlimit:10;stroke-dasharray:none;stroke-opacity:1"
       id="path204" />
    <text
       xml:space="preserve"
       transform="matrix(1,0,0,-1,29.820312,-0.125)"
       style="font-variant:normal;font-weight:normal;font-size:0.5px;font-family:Times;-inkscape-font-specification:Times-Roman;writing-mode:lr-tb;fill:#000000;fill-opacity:1;fill-rule:nonzero;stroke:none"
       id="text208"><tspan
         x="0"
         y="0"
         id="tspan206">H</tspan></text>
  </g>
</svg>
