<?xml version="1.0" encoding="UTF-8" standalone="no"?>
<svg
   xmlns:dc="http://purl.org/dc/elements/1.1/"
   xmlns:cc="http://creativecommons.org/ns#"
   xmlns:rdf="http://www.w3.org/1999/02/22-rdf-syntax-ns#"
   xmlns:svg="http://www.w3.org/2000/svg"
   xmlns="http://www.w3.org/2000/svg"
   xmlns:sodipodi="http://sodipodi.sourceforge.net/DTD/sodipodi-0.dtd"
   xmlns:inkscape="http://www.inkscape.org/namespaces/inkscape"
   inkscape:version="1.0 (4035a4fb49, 2020-05-01)"
   sodipodi:docname="superdenseCoding-opengraph-io.svg"
   id="svg170"
   version="1.1"
   viewBox="0 0 104.42668 70.656419"
   height="70.656418pt"
   width="104.42668pt">
  <metadata
     id="metadata174">
    <rdf:RDF>
      <cc:Work
         rdf:about="">
        <dc:format>image/svg+xml</dc:format>
        <dc:type
           rdf:resource="http://purl.org/dc/dcmitype/StillImage" />
        <dc:title></dc:title>
      </cc:Work>
    </rdf:RDF>
  </metadata>
  <sodipodi:namedview
     inkscape:current-layer="layer1"
     inkscape:window-maximized="0"
     inkscape:window-y="36"
     inkscape:window-x="0"
     inkscape:cy="50.985186"
     inkscape:cx="65.196668"
     inkscape:zoom="6.7996576"
     showgrid="false"
     id="namedview172"
     inkscape:window-height="1044"
     inkscape:window-width="1920"
     inkscape:pageshadow="2"
     inkscape:pageopacity="0"
     guidetolerance="10"
     gridtolerance="10"
     objecttolerance="10"
     borderopacity="1"
     bordercolor="#666666"
     pagecolor="#ffffff" />
  <defs
     id="defs53">
    <clipPath
       id="clip1">
      <path
         id="path2"
         d="M 86,22 H 98.195312 V 40 H 86 Z m 0,0" />
    </clipPath>
    <clipPath
       id="clip2">
      <path
         id="path5"
         d="m 0,49 h 6 v 6.675781 H 0 Z m 0,0" />
    </clipPath>
    <clipPath
       id="clip3">
      <path
         id="path8"
         d="M 0,44 H 12 V 55.675781 H 0 Z m 0,0" />
    </clipPath>
    <clipPath
       id="clip4">
      <path
         id="path11"
         d="m 14,49 h 7 v 6.675781 h -7 z m 0,0" />
    </clipPath>
    <clipPath
       id="clip5">
      <path
         id="path14"
         d="M 8,44 H 26 V 55.675781 H 8 Z m 0,0" />
    </clipPath>
    <clipPath
       id="clip6">
      <path
         id="path17"
         d="m 28,49 h 7 v 6.675781 h -7 z m 0,0" />
    </clipPath>
    <clipPath
       id="clip7">
      <path
         id="path20"
         d="M 22,44 H 40 V 55.675781 H 22 Z m 0,0" />
    </clipPath>
    <clipPath
       id="clip8">
      <path
         id="path23"
         d="m 42,49 h 7 v 6.675781 h -7 z m 0,0" />
    </clipPath>
    <clipPath
       id="clip9">
      <path
         id="path26"
         d="M 37,44 H 55 V 55.675781 H 37 Z m 0,0" />
    </clipPath>
    <clipPath
       id="clip10">
      <path
         id="path29"
         d="m 71,49 h 6 v 6.675781 h -6 z m 0,0" />
    </clipPath>
    <clipPath
       id="clip11">
      <path
         id="path32"
         d="M 65,44 H 83 V 55.675781 H 65 Z m 0,0" />
    </clipPath>
    <clipPath
       id="clip12">
      <path
         id="path35"
         d="m 92,49 h 6 v 6.675781 h -6 z m 0,0" />
    </clipPath>
    <clipPath
       id="clip13">
      <path
         id="path38"
         d="M 86,44 H 98.195312 V 55.675781 H 86 Z m 0,0" />
    </clipPath>
    <clipPath
       id="clip14">
      <path
         id="path41"
         d="m 92,49 h 6 v 6.675781 h -6 z m 0,0" />
    </clipPath>
    <clipPath
       id="clip15">
      <path
         id="path44"
         d="M 86,44 H 98.195312 V 55.675781 H 86 Z m 0,0" />
    </clipPath>
    <clipPath
       id="clip16">
      <path
         id="path47"
         d="m 92,49 h 6 v 6.675781 h -6 z m 0,0" />
    </clipPath>
    <clipPath
       id="clip17">
      <path
         id="path50"
         d="M 86,44 H 98.195312 V 55.675781 H 86 Z m 0,0" />
    </clipPath>
  </defs>
  <g
     transform="translate(3.0997735e-5,4.0787615)"
     id="surface1">
    <path
       id="path55"
       transform="matrix(1,0,0,-1,73.9,45.554)"
       d="m -67.833594,14.175094 h 8.105469"
       style="fill:none;stroke:#000000;stroke-width:0.3985;stroke-linecap:butt;stroke-linejoin:miter;stroke-miterlimit:10;stroke-opacity:1" />
    <path
       id="path57"
       transform="matrix(1,0,0,-1,73.9,45.554)"
       d="m -67.833594,-7.086625 h 8.105469"
       style="fill:none;stroke:#000000;stroke-width:0.3985;stroke-linecap:butt;stroke-linejoin:miter;stroke-miterlimit:10;stroke-opacity:1" />
    <path
       id="path59"
       transform="matrix(1,0,0,-1,73.9,45.554)"
       d="m -53.657813,14.175094 h 8.105469"
       style="fill:none;stroke:#000000;stroke-width:0.3985;stroke-linecap:butt;stroke-linejoin:miter;stroke-miterlimit:10;stroke-opacity:1" />
    <path
       id="path61"
       transform="matrix(1,0,0,-1,73.9,45.554)"
       d="m -53.657813,-7.086625 h 8.105469"
       style="fill:none;stroke:#000000;stroke-width:0.3985;stroke-linecap:butt;stroke-linejoin:miter;stroke-miterlimit:10;stroke-opacity:1" />
    <path
       id="path63"
       transform="matrix(1,0,0,-1,73.9,45.554)"
       d="m -39.485938,-7.086625 h 8.105469"
       style="fill:none;stroke:#000000;stroke-width:0.3985;stroke-linecap:butt;stroke-linejoin:miter;stroke-miterlimit:10;stroke-opacity:1" />
    <path
       id="path65"
       transform="matrix(1,0,0,-1,73.9,45.554)"
       d="M -42.521094,-4.051469 V 11.139938"
       style="fill:none;stroke:#000000;stroke-width:0.3985;stroke-linecap:butt;stroke-linejoin:miter;stroke-miterlimit:10;stroke-opacity:1" />
    <path
       id="path67"
       transform="matrix(1,0,0,-1,73.9,45.554)"
       d="M -28.345313,25.311813 V 17.206344"
       style="fill:none;stroke:#000000;stroke-width:0.3985;stroke-linecap:butt;stroke-linejoin:miter;stroke-miterlimit:10;stroke-opacity:1" />
    <path
       id="path69"
       transform="matrix(1,0,0,-1,73.9,45.554)"
       d="M -0.0015625,39.487594 V 17.206344"
       style="fill:none;stroke:#000000;stroke-width:0.3985;stroke-linecap:butt;stroke-linejoin:miter;stroke-miterlimit:10;stroke-opacity:1" />
    <path
       id="path71"
       transform="matrix(1,0,0,-1,73.9,45.554)"
       d="m -25.314063,-7.086625 h 22.28125"
       style="fill:none;stroke:#000000;stroke-width:0.3985;stroke-linecap:butt;stroke-linejoin:miter;stroke-miterlimit:10;stroke-opacity:1" />
    <path
       id="path73"
       transform="matrix(1,0,0,-1,73.9,45.554)"
       d="M -0.0015625,11.139938 V -4.051469"
       style="fill:none;stroke:#000000;stroke-width:0.3985;stroke-linecap:butt;stroke-linejoin:miter;stroke-miterlimit:10;stroke-opacity:1" />
    <path
       id="path75"
       transform="matrix(1,0,0,-1,73.9,45.554)"
       d="M 3.033594,14.175094 H 18.225"
       style="fill:none;stroke:#000000;stroke-width:0.3985;stroke-linecap:butt;stroke-linejoin:miter;stroke-miterlimit:10;stroke-opacity:1" />
    <path
       id="path77"
       transform="matrix(1,0,0,-1,73.9,45.554)"
       d="M 3.033594,-7.086625 H 18.225"
       style="fill:none;stroke:#000000;stroke-width:0.3985;stroke-linecap:butt;stroke-linejoin:miter;stroke-miterlimit:10;stroke-opacity:1" />
    <path
       id="path79"
       transform="matrix(1,0,0,-1,73.9,45.554)"
       d="m -39.485938,14.175094 h 8.105469"
       style="fill:none;stroke:#000000;stroke-width:0.3985;stroke-linecap:butt;stroke-linejoin:miter;stroke-miterlimit:10;stroke-opacity:1" />
    <path
       id="path81"
       transform="matrix(1,0,0,-1,73.9,45.554)"
       d="m -25.314063,14.175094 h 22.28125"
       style="fill:none;stroke:#000000;stroke-width:0.3985;stroke-linecap:butt;stroke-linejoin:miter;stroke-miterlimit:10;stroke-opacity:1" />
    <path
       id="path83"
       d="m 97.996094,31.378906 c 0,-1.5625 -1.269532,-2.832031 -2.835938,-2.832031 -1.566406,0 -2.835937,1.269531 -2.835937,2.832031 0,1.566406 1.269531,2.835938 2.835937,2.835938 1.566406,0 2.835938,-1.269532 2.835938,-2.835938 z m 0,0"
       style="fill:#000000;fill-opacity:1;fill-rule:nonzero;stroke:none" />
    <g
       id="g87"
       clip-rule="nonzero"
       clip-path="url(#clip1)">
      <path
         id="path85"
         transform="matrix(1,0,0,-1,73.9,45.554)"
         d="m 24.096094,14.175094 c 0,1.5625 -1.269532,2.832031 -2.835938,2.832031 -1.566406,0 -2.835937,-1.269531 -2.835937,-2.832031 0,-1.566406 1.269531,-2.835938 2.835937,-2.835938 1.566406,0 2.835938,1.269532 2.835938,2.835938 z m 0,0"
         style="fill:none;stroke:#000000;stroke-width:0.3985;stroke-linecap:butt;stroke-linejoin:miter;stroke-miterlimit:10;stroke-opacity:1" />
    </g>
    <path
       id="path89"
       transform="matrix(1,0,0,-1,73.9,45.554)"
       d="m -68.032813,14.175094 c 0,1.5625 -1.269531,2.832031 -2.835937,2.832031 -1.5625,0 -2.832031,-1.269531 -2.832031,-2.832031 0,-1.566406 1.269531,-2.835938 2.832031,-2.835938 1.566406,0 2.835937,1.269532 2.835937,2.835938 z m 0,0"
       style="fill:#000000;fill-opacity:1;fill-rule:nonzero;stroke:#000000;stroke-width:0.3985;stroke-linecap:butt;stroke-linejoin:miter;stroke-miterlimit:10;stroke-opacity:1" />
    <g
       id="g93"
       clip-rule="nonzero"
       clip-path="url(#clip2)">
      <path
         id="path91"
         d="m 5.867188,52.640625 c 0,-1.566406 -1.269532,-2.835937 -2.835938,-2.835937 -1.5625,0 -2.832031,1.269531 -2.832031,2.835937 0,1.566406 1.269531,2.835937 2.832031,2.835937 1.566406,0 2.835938,-1.269531 2.835938,-2.835937 z m 0,0"
         style="fill:#000000;fill-opacity:1;fill-rule:nonzero;stroke:none" />
    </g>
    <g
       id="g97"
       clip-rule="nonzero"
       clip-path="url(#clip3)">
      <path
         id="path95"
         transform="matrix(1,0,0,-1,73.9,45.554)"
         d="m -68.032813,-7.086625 c 0,1.566406 -1.269531,2.835938 -2.835937,2.835938 -1.5625,0 -2.832031,-1.269532 -2.832031,-2.835938 0,-1.566406 1.269531,-2.835937 2.832031,-2.835937 1.566406,0 2.835937,1.269531 2.835937,2.835937 z m 0,0"
         style="fill:none;stroke:#000000;stroke-width:0.3985;stroke-linecap:butt;stroke-linejoin:miter;stroke-miterlimit:10;stroke-opacity:1" />
    </g>
    <path
       id="path99"
       transform="matrix(1,0,0,-1,73.9,45.554)"
       d="m -53.857031,14.175094 c 0,1.5625 -1.269532,2.832031 -2.835938,2.832031 -1.566406,0 -2.835937,-1.269531 -2.835937,-2.832031 0,-1.566406 1.269531,-2.835938 2.835937,-2.835938 1.566406,0 2.835938,1.269532 2.835938,2.835938 z m 0,0"
       style="fill:#000000;fill-opacity:1;fill-rule:nonzero;stroke:#000000;stroke-width:0.3985;stroke-linecap:butt;stroke-linejoin:miter;stroke-miterlimit:10;stroke-opacity:1" />
    <g
       id="g103"
       clip-rule="nonzero"
       clip-path="url(#clip4)">
      <path
         id="path101"
         d="m 20.042969,52.640625 c 0,-1.566406 -1.269531,-2.835937 -2.835938,-2.835937 -1.566406,0 -2.835937,1.269531 -2.835937,2.835937 0,1.566406 1.269531,2.835937 2.835937,2.835937 1.566407,0 2.835938,-1.269531 2.835938,-2.835937 z m 0,0"
         style="fill:#000000;fill-opacity:1;fill-rule:nonzero;stroke:none" />
    </g>
    <g
       id="g107"
       clip-rule="nonzero"
       clip-path="url(#clip5)">
      <path
         id="path105"
         transform="matrix(1,0,0,-1,73.9,45.554)"
         d="m -53.857031,-7.086625 c 0,1.566406 -1.269532,2.835938 -2.835938,2.835938 -1.566406,0 -2.835937,-1.269532 -2.835937,-2.835938 0,-1.566406 1.269531,-2.835937 2.835937,-2.835937 1.566406,0 2.835938,1.269531 2.835938,2.835937 z m 0,0"
         style="fill:none;stroke:#000000;stroke-width:0.3985;stroke-linecap:butt;stroke-linejoin:miter;stroke-miterlimit:10;stroke-opacity:1" />
    </g>
    <path
       id="path109"
       transform="matrix(1,0,0,-1,73.9,45.554)"
       d="m -39.685156,14.175094 c 0,1.5625 -1.269532,2.832031 -2.835938,2.832031 -1.566406,0 -2.832031,-1.269531 -2.832031,-2.832031 0,-1.566406 1.265625,-2.835938 2.832031,-2.835938 1.566406,0 2.835938,1.269532 2.835938,2.835938 z m 0,0"
       style="fill:#000000;fill-opacity:1;fill-rule:nonzero;stroke:#000000;stroke-width:0.3985;stroke-linecap:butt;stroke-linejoin:miter;stroke-miterlimit:10;stroke-opacity:1" />
    <g
       id="g113"
       clip-rule="nonzero"
       clip-path="url(#clip6)">
      <path
         id="path111"
         d="m 34.214844,52.640625 c 0,-1.566406 -1.269532,-2.835937 -2.835938,-2.835937 -1.566406,0 -2.832031,1.269531 -2.832031,2.835937 0,1.566406 1.265625,2.835937 2.832031,2.835937 1.566406,0 2.835938,-1.269531 2.835938,-2.835937 z m 0,0"
         style="fill:#000000;fill-opacity:1;fill-rule:nonzero;stroke:none" />
    </g>
    <g
       id="g117"
       clip-rule="nonzero"
       clip-path="url(#clip7)">
      <path
         id="path115"
         transform="matrix(1,0,0,-1,73.9,45.554)"
         d="m -39.685156,-7.086625 c 0,1.566406 -1.269532,2.835938 -2.835938,2.835938 -1.566406,0 -2.832031,-1.269532 -2.832031,-2.835938 0,-1.566406 1.265625,-2.835937 2.832031,-2.835937 1.566406,0 2.835938,1.269531 2.835938,2.835937 z m 0,0"
         style="fill:none;stroke:#000000;stroke-width:0.3985;stroke-linecap:butt;stroke-linejoin:miter;stroke-miterlimit:10;stroke-opacity:1" />
    </g>
    <g
       id="g121"
       clip-rule="nonzero"
       clip-path="url(#clip8)">
      <path
         id="path119"
         d="m 48.386719,52.640625 c 0,-1.566406 -1.269531,-2.835937 -2.832031,-2.835937 -1.566407,0 -2.835938,1.269531 -2.835938,2.835937 0,1.566406 1.269531,2.835937 2.835938,2.835937 1.5625,0 2.832031,-1.269531 2.832031,-2.835937 z m 0,0"
         style="fill:#000000;fill-opacity:1;fill-rule:nonzero;stroke:none" />
    </g>
    <g
       id="g125"
       clip-rule="nonzero"
       clip-path="url(#clip9)">
      <path
         id="path123"
         transform="matrix(1,0,0,-1,73.9,45.554)"
         d="m -25.513281,-7.086625 c 0,1.566406 -1.269532,2.835938 -2.832032,2.835938 -1.566406,0 -2.835937,-1.269532 -2.835937,-2.835938 0,-1.566406 1.269531,-2.835937 2.835937,-2.835937 1.5625,0 2.832032,1.269531 2.832032,2.835937 z m 0,0"
         style="fill:none;stroke:#000000;stroke-width:0.3985;stroke-linecap:butt;stroke-linejoin:miter;stroke-miterlimit:10;stroke-opacity:1" />
    </g>
    <path
       id="path127"
       transform="matrix(1,0,0,-1,73.9,45.554)"
       d="m -25.513281,14.175094 c 0,1.5625 -1.269532,2.832031 -2.832032,2.832031 -1.566406,0 -2.835937,-1.269531 -2.835937,-2.832031 0,-1.566406 1.269531,-2.835938 2.835937,-2.835938 1.5625,0 2.832032,1.269532 2.832032,2.835938 z m 0,0"
       style="fill:#000000;fill-opacity:1;fill-rule:nonzero;stroke:#000000;stroke-width:0.3985;stroke-linecap:butt;stroke-linejoin:miter;stroke-miterlimit:10;stroke-opacity:1" />
    <path
       id="path129"
       transform="matrix(1,0,0,-1,73.9,45.554)"
       d="m 2.834375,14.175094 c 0,1.5625 -1.269531,2.832031 -2.8359375,2.832031 -1.5625005,0 -2.8320315,-1.269531 -2.8320315,-2.832031 0,-1.566406 1.269531,-2.835938 2.8320315,-2.835938 1.5664065,0 2.8359375,1.269532 2.8359375,2.835938 z m 0,0"
       style="fill:#000000;fill-opacity:1;fill-rule:nonzero;stroke:#000000;stroke-width:0.3985;stroke-linecap:butt;stroke-linejoin:miter;stroke-miterlimit:10;stroke-opacity:1" />
    <path
       id="path131"
       transform="matrix(1,0,0,-1,73.9,45.554)"
       d="m -25.513281,28.346969 c 0,1.566406 -1.269532,2.835937 -2.832032,2.835937 -1.566406,0 -2.835937,-1.269531 -2.835937,-2.835937 0,-1.566406 1.269531,-2.835938 2.835937,-2.835938 1.5625,0 2.832032,1.269532 2.832032,2.835938 z m 0,0"
       style="fill:#000000;fill-opacity:1;fill-rule:nonzero;stroke:#000000;stroke-width:0.3985;stroke-linecap:butt;stroke-linejoin:miter;stroke-miterlimit:10;stroke-opacity:1" />
    <path
       id="path133"
       transform="matrix(1,0,0,-1,73.9,45.554)"
       d="m 2.834375,42.518844 c 0,1.566406 -1.269531,2.835937 -2.8359375,2.835937 -1.5625005,0 -2.8320315,-1.269531 -2.8320315,-2.835937 0,-1.5625 1.269531,-2.832031 2.8320315,-2.832031 1.5664065,0 2.8359375,1.269531 2.8359375,2.832031 z m 0,0"
       style="fill:#000000;fill-opacity:1;fill-rule:nonzero;stroke:#000000;stroke-width:0.3985;stroke-linecap:butt;stroke-linejoin:miter;stroke-miterlimit:10;stroke-opacity:1" />
    <g
       id="g137"
       clip-rule="nonzero"
       clip-path="url(#clip10)">
      <path
         id="path135"
         d="m 76.734375,52.640625 c 0,-1.566406 -1.269531,-2.835937 -2.835937,-2.835937 -1.5625,0 -2.832032,1.269531 -2.832032,2.835937 0,1.566406 1.269532,2.835937 2.832032,2.835937 1.566406,0 2.835937,-1.269531 2.835937,-2.835937 z m 0,0"
         style="fill:#000000;fill-opacity:1;fill-rule:nonzero;stroke:none" />
    </g>
    <g
       id="g141"
       clip-rule="nonzero"
       clip-path="url(#clip11)">
      <path
         id="path139"
         transform="matrix(1,0,0,-1,73.9,45.554)"
         d="m 2.834375,-7.086625 c 0,1.566406 -1.269531,2.835938 -2.8359375,2.835938 -1.5625005,0 -2.8320315,-1.269532 -2.8320315,-2.835938 0,-1.566406 1.269531,-2.835937 2.8320315,-2.835937 1.5664065,0 2.8359375,1.269531 2.8359375,2.835937 z m 0,0"
         style="fill:none;stroke:#000000;stroke-width:0.3985;stroke-linecap:butt;stroke-linejoin:miter;stroke-miterlimit:10;stroke-opacity:1" />
    </g>
    <g
       id="g145"
       clip-rule="nonzero"
       clip-path="url(#clip12)">
      <path
         id="path143"
         d="m 97.996094,52.640625 c 0,-1.566406 -1.269532,-2.835937 -2.835938,-2.835937 -1.566406,0 -2.835937,1.269531 -2.835937,2.835937 0,1.566406 1.269531,2.835937 2.835937,2.835937 1.566406,0 2.835938,-1.269531 2.835938,-2.835937 z m 0,0"
         style="fill:#000000;fill-opacity:1;fill-rule:nonzero;stroke:none" />
    </g>
    <g
       id="g149"
       clip-rule="nonzero"
       clip-path="url(#clip13)">
      <path
         id="path147"
         transform="matrix(1,0,0,-1,73.9,45.554)"
         d="m 24.096094,-7.086625 c 0,1.566406 -1.269532,2.835938 -2.835938,2.835938 -1.566406,0 -2.835937,-1.269532 -2.835937,-2.835938 0,-1.566406 1.269531,-2.835937 2.835937,-2.835937 1.566406,0 2.835938,1.269531 2.835938,2.835937 z m 0,0"
         style="fill:none;stroke:#000000;stroke-width:0.3985;stroke-linecap:butt;stroke-linejoin:miter;stroke-miterlimit:10;stroke-opacity:1" />
    </g>
    <g
       id="g153"
       clip-rule="nonzero"
       clip-path="url(#clip14)">
      <path
         id="path151"
         d="m 97.996094,52.640625 c 0,-1.566406 -1.269532,-2.835937 -2.835938,-2.835937 -1.566406,0 -2.835937,1.269531 -2.835937,2.835937 0,1.566406 1.269531,2.835937 2.835937,2.835937 1.566406,0 2.835938,-1.269531 2.835938,-2.835937 z m 0,0"
         style="fill:#000000;fill-opacity:1;fill-rule:nonzero;stroke:none" />
    </g>
    <g
       id="g157"
       clip-rule="nonzero"
       clip-path="url(#clip15)">
      <path
         id="path155"
         transform="matrix(1,0,0,-1,73.9,45.554)"
         d="m 24.096094,-7.086625 c 0,1.566406 -1.269532,2.835938 -2.835938,2.835938 -1.566406,0 -2.835937,-1.269532 -2.835937,-2.835938 0,-1.566406 1.269531,-2.835937 2.835937,-2.835937 1.566406,0 2.835938,1.269531 2.835938,2.835937 z m 0,0"
         style="fill:none;stroke:#000000;stroke-width:0.3985;stroke-linecap:butt;stroke-linejoin:miter;stroke-miterlimit:10;stroke-opacity:1" />
    </g>
    <g
       id="g161"
       clip-rule="nonzero"
       clip-path="url(#clip16)">
      <path
         id="path159"
         d="m 97.996094,52.640625 c 0,-1.566406 -1.269532,-2.835937 -2.835938,-2.835937 -1.566406,0 -2.835937,1.269531 -2.835937,2.835937 0,1.566406 1.269531,2.835937 2.835937,2.835937 1.566406,0 2.835938,-1.269531 2.835938,-2.835937 z m 0,0"
         style="fill:#000000;fill-opacity:1;fill-rule:nonzero;stroke:none" />
    </g>
    <g
       id="g165"
       clip-rule="nonzero"
       clip-path="url(#clip17)">
      <path
         id="path163"
         transform="matrix(1,0,0,-1,73.9,45.554)"
         d="m 24.096094,-7.086625 c 0,1.566406 -1.269532,2.835938 -2.835938,2.835938 -1.566406,0 -2.835937,-1.269532 -2.835937,-2.835938 0,-1.566406 1.269531,-2.835937 2.835937,-2.835937 1.566406,0 2.835938,1.269531 2.835938,2.835937 z m 0,0"
         style="fill:none;stroke:#000000;stroke-width:0.3985;stroke-linecap:butt;stroke-linejoin:miter;stroke-miterlimit:10;stroke-opacity:1" />
    </g>
    <path
       id="path167"
       transform="matrix(1,0,0,-1,73.9,45.554)"
       d="m 2.834375,14.175094 c 0,1.5625 -1.269531,2.832031 -2.8359375,2.832031 -1.5625005,0 -2.8320315,-1.269531 -2.8320315,-2.832031 0,-1.566406 1.269531,-2.835938 2.8320315,-2.835938 1.5664065,0 2.8359375,1.269532 2.8359375,2.835938 z m 0,0"
       style="fill:#000000;fill-opacity:1;fill-rule:nonzero;stroke:#000000;stroke-width:0.3985;stroke-linecap:butt;stroke-linejoin:miter;stroke-miterlimit:10;stroke-opacity:1" />
  </g>
  <g
     transform="translate(3.0997735e-5,4.0787615)"
     inkscape:label="IO"
     id="layer1"
     inkscape:groupmode="layer">
    <rect
       rx="3.6977587"
       ry="4.1189933"
       y="-3.4861872"
       x="35.924572"
       height="27.463659"
       width="44.22266"
       id="rect1004"
       style="opacity:0.999;fill:none;stroke:#0000ff;stroke-width:0.75;stroke-linejoin:round;stroke-miterlimit:4;stroke-dasharray:3, 3;stroke-dashoffset:0" />
    <path
       sodipodi:nodetypes="sssscsssssscs"
       d="m 42.07874,-1.8849291 c -2.032386,0.00158 -3.668076,1.83721875 -3.668076,4.1191404 V 18.387042 c 0,2.281921 1.635817,4.141999 3.668076,4.119141 l 40.017868,-0.450116 c 1.899171,0.214444 2.997335,1.473992 2.934119,3.484653 -0.01332,0.424757 -0.127856,30.291519 -0.202048,33.185037 -0.03028,1.180716 0.484209,2.213415 2.076129,2.193859 2.625676,-0.03226 13.378582,-0.0175 14.542882,-0.0175 1.47577,0 2.48088,-1.178047 2.48088,-2.3783 0,-3.573631 0.0201,-56.4410724 0.0201,-57.60558994 0,-1.68558165 -0.51776,-2.83952826 -2.44743,-2.84948796 z"
       style="opacity:0.999;fill:none;stroke:#ff0000;stroke-width:0.75;stroke-linejoin:round;stroke-miterlimit:4;stroke-dasharray:3, 3;stroke-dashoffset:0"
       id="rect1006" />
  </g>
</svg>
